SplineFontDB: 3.0
FontName: ArabeyesNaskhi
FullName: Arabeyes Naskhi
FamilyName: Arabeyes Naskhi
Weight: Book
Copyright: Copyright (c) 2004-2007, SIL International (http://www.sil.org/), and released under the SIL Open Font License. Arabeyes additions are copyright (c) 2007-2008, Khaled Hosny (http://www.arabeyes.org/) and released under the same license, with no reserved font name
Version: 0.01
DefaultBaseFilename: aenaskhi
ItalicAngle: 0
UnderlinePosition: -62
UnderlineWidth: 8
Ascent: 1638
Descent: 410
LayerCount: 2
Layer: 0 1 "Back" 
Layer: 1 1 "Fore" 
NeedsXUIDChange: 1
XUID: [1021 796 621246681 10984750]
FSType: 0
OS2Version: 2
OS2_WeightWidthSlopeOnly: 0
OS2_UseTypoMetrics: 1
CreationTime: 1117800186
ModificationTime: 1215879865
PfmFamily: 81
TTFWeight: 400
TTFWidth: 5
LineGap: 0
VLineGap: 0
Panose: 1 0 6 0 2 0 0 2 0 3
OS2TypoAscent: 128
OS2TypoAOffset: 1
OS2TypoDescent: -541
OS2TypoDOffset: 1
OS2TypoLinegap: 0
OS2WinAscent: 12
OS2WinAOffset: 1
OS2WinDescent: -55
OS2WinDOffset: 1
HheadAscent: 12
HheadAOffset: 1
HheadDescent: 55
HheadDOffset: 1
OS2SubXSize: 856
OS2SubYSize: 856
OS2SubXOff: 0
OS2SubYOff: 1200
OS2SupXSize: 856
OS2SupYSize: 856
OS2SupXOff: 0
OS2SupYOff: 1200
OS2StrikeYSize: 209
OS2StrikeYPos: 1049
OS2Vendor: 'AE  '
OS2CodePages: 00000041.00000000
OS2UnicodeRanges: 80002003.00000000.00000000.00000000
Lookup: 1 9 0 "'init' Initial Forms in Arabic lookup 1"  {"'init' Initial Forms in Arabic lookup 1 subtable"  } ['init' ('arab' <'KUR ' 'SND ' 'URD ' 'dflt' > ) ]
Lookup: 1 9 0 "'fina' Terminal Forms in Arabic lookup 2"  {"'fina' Terminal Forms in Arabic lookup 2 subtable"  } ['fina' ('arab' <'KUR ' 'SND ' 'URD ' 'dflt' > ) ]
Lookup: 1 9 0 "'medi' Medial Forms in Arabic lookup 3"  {"'medi' Medial Forms in Arabic lookup 3 subtable"  } ['medi' ('arab' <'KUR ' 'SND ' 'URD ' 'dflt' > ) ]

StartChar: .notdef
Encoding: 65536 -1 0
Width: 1549
VWidth: 2796
GlyphClass: 2
Flags: MW
LayerCount: 2
Fore
SplineSet
1096 1072 m 0,0,1
 1096 1067.99 1096 1067.99 1088.5 1054 c 128,-1,2
 1080.94 1039.9 1080.94 1039.9 1071 1024.5 c 128,-1,3
 1060.95 1008.94 1060.95 1008.94 1051.5 996.5 c 128,-1,4
 1042 984 1042 984 1039 984 c 128,-1,5
 1036 984 1036 984 1023 992.5 c 2,6,-1
 996 1011 l 2,7,8
 982 1021.01 982 1021.01 970 1030.5 c 128,-1,9
 958 1039.99 958 1039.99 958 1044 c 256,10,11
 958 1049 958 1049 966.5 1062.5 c 2,12,-1
 985 1091.5 l 2,13,14
 995.044 1107.06 995.044 1107.06 1004.5 1119.5 c 128,-1,15
 1014 1132 1014 1132 1017 1132 c 0,16,17
 1021.01 1132 1021.01 1132 1033.5 1123 c 2,18,-1
 1060.5 1104 l 2,19,20
 1074.98 1094.01 1074.98 1094.01 1085.5 1084.5 c 128,-1,21
 1096 1075.01 1096 1075.01 1096 1072 c 0,0,1
1188 915 m 0,22,23
 1188 911 1188 911 1180.5 897 c 128,-1,24
 1173 882.996 1173 882.996 1162.5 867.5 c 128,-1,25
 1152.04 852.053 1152.04 852.053 1142.5 839.5 c 128,-1,26
 1133.01 827 1133.01 827 1129 827 c 0,27,28
 1128 827 1128 827 1116.5 835.5 c 2,29,-1
 1091 855 l 1,30,-1
 1055 882 l 1,31,32
 1053 885 1053 885 1047 885 c 0,33,34
 1046 885 1046 885 1040 882 c 1,35,-1
 1016 848 l 1,36,-1
 998 823 l 2,37,38
 990 812 990 812 987 812 c 256,39,40
 984 812 984 812 971 820.5 c 128,-1,41
 958 829 958 829 944 840 c 2,42,-1
 918.5 860.5 l 2,43,44
 907 870 907 870 907 872 c 0,45,46
 907 877 907 877 915 890.5 c 128,-1,47
 923 904 923 904 934 919.5 c 2,48,-1
 954.5 947.5 l 2,49,50
 964 960 964 960 965 960 c 0,51,52
 969 960 969 960 981 951.5 c 2,53,-1
 1006 933 l 1,54,-1
 1039 905 l 1,55,56
 1046 901 1046 901 1047 901 c 0,57,58
 1050 901 1050 901 1055 908 c 2,59,-1
 1079 942 l 1,60,-1
 1096.5 964.5 l 2,61,62
 1105.01 975 1105.01 975 1107 975 c 256,63,64
 1110 975 1110 975 1123 966 c 2,65,-1
 1150.5 947 l 2,66,67
 1164.94 937.042 1164.94 937.042 1176.5 927.5 c 128,-1,68
 1188.01 918 1188.01 918 1188 915 c 0,22,23
1322 612 m 0,69,70
 1322 586 1322 586 1315 551 c 128,-1,71
 1307.99 515.964 1307.99 515.964 1293.5 486 c 128,-1,72
 1278.99 455.99 1278.99 455.99 1258 435 c 128,-1,73
 1237 414 1237 414 1207 414 c 0,74,75
 1181.01 414 1181.01 414 1162 422.5 c 128,-1,76
 1143.01 430.996 1143.01 430.996 1128 443 c 128,-1,77
 1113 455 1113 455 1102.5 467 c 128,-1,78
 1092.02 478.979 1092.02 478.979 1084 486 c 1,79,80
 1073.03 468.044 1073.03 468.044 1056.5 445 c 128,-1,81
 1040 422 1040 422 1019 401.5 c 128,-1,82
 998 381 998 381 973 366.5 c 128,-1,83
 948 352 948 352 918 352 c 2,84,-1
 915 352 l 1,85,86
 915 208 915 208 874 119 c 128,-1,87
 833 30 833 30 769 -18.5 c 128,-1,88
 705 -67 705 -67 625.5 -83.5 c 128,-1,89
 546 -100 546 -100 470 -100 c 0,90,91
 418 -100 418 -100 376.5 -82 c 128,-1,92
 335 -64 335 -64 306 -34 c 128,-1,93
 277 -4 277 -4 261.5 36 c 128,-1,94
 246.001 76 246.001 76 246 120 c 256,95,96
 246 163.999 246 163.999 260 207 c 128,-1,97
 274 250.001 274 250.001 292 285.5 c 128,-1,98
 310 321 310 321 326.5 343 c 128,-1,99
 343 365 343 365 347 365 c 0,100,101
 359 365 359 365 359 355 c 0,102,103
 359 350 359 350 349.5 333.5 c 128,-1,104
 340 317 340 317 327.5 293 c 128,-1,105
 315 269 315 269 305.5 237.5 c 128,-1,106
 296 206 296 206 296 169 c 0,107,108
 296 125.999 296 125.999 318.5 96 c 128,-1,109
 341 66 341 66 373.5 47.5 c 128,-1,110
 406 29 406 29 442.5 21.5 c 128,-1,111
 479 14 479 14 508 14 c 0,112,113
 546 14 546 14 586.5 18 c 128,-1,114
 627 22 627 22 664.5 29.5 c 128,-1,115
 702 37 702 37 734 48.5 c 128,-1,116
 766 60 766 60 786 74 c 0,117,118
 834 105 834 105 850.5 149 c 128,-1,119
 867 192.999 867 192.999 867 258 c 0,120,121
 867 300 867 300 859.5 329.5 c 128,-1,122
 852 359 852 359 844 379 c 128,-1,123
 836 399 836 399 828.5 411 c 128,-1,124
 821 423 821 423 821 430 c 0,125,126
 821 434 821 434 827 450 c 128,-1,127
 833 466 833 466 841 482 c 128,-1,128
 848.993 497.987 848.993 497.987 856.5 511 c 128,-1,129
 864 524 864 524 867 524 c 1,130,131
 890 494 890 494 900 455 c 1,132,133
 933 455 933 455 967 469 c 128,-1,134
 1001 483 1001 483 1029.5 507 c 128,-1,135
 1057.99 530.991 1057.99 530.991 1077 562.5 c 128,-1,136
 1095.99 593.979 1095.99 593.979 1100 629 c 0,137,138
 1103 647 1103 647 1114 647 c 1,139,140
 1115 646 1115 646 1118 642 c 0,141,142
 1124 634 1124 634 1125 625 c 0,143,144
 1129 597 1129 597 1145 579 c 128,-1,145
 1161 561 1161 561 1180 551 c 128,-1,146
 1199.01 541 1199.01 541 1217.5 536.5 c 128,-1,147
 1235.99 532 1235.99 532 1248 532 c 0,148,149
 1252.99 532 1252.99 532 1266 539 c 128,-1,150
 1279 546 1279 546 1279 553 c 0,151,152
 1279 558 1279 558 1273 565 c 128,-1,153
 1267 571.996 1267 571.996 1259.5 579 c 2,154,-1
 1246 591.5 l 2,155,156
 1240 597 1240 597 1240 598 c 0,157,158
 1240 601.021 1240 601.021 1244 617.5 c 128,-1,159
 1248.02 634.067 1248.02 634.067 1254 653 c 128,-1,160
 1260.04 672.129 1260.04 672.129 1265.5 687.5 c 128,-1,161
 1271.01 703 1271.01 703 1275 703 c 0,162,163
 1282.99 703 1282.99 703 1291.5 693 c 128,-1,164
 1300.01 683 1300.01 683 1306.5 668 c 128,-1,165
 1313.01 652.962 1313.01 652.962 1317.5 638 c 128,-1,166
 1322 623 1322 623 1322 612 c 0,69,70
116 1360 m 1,167,-1
 116 -311 l 1,168,-1
 1434 -311 l 1,169,-1
 1434 1360 l 1,170,-1
 116 1360 l 1,167,-1
82 1394 m 1,171,-1
 1468 1394 l 1,172,-1
 1468 -345 l 1,173,-1
 82 -345 l 1,174,-1
 82 1394 l 1,171,-1
EndSplineSet
Validated: 1
EndChar

StartChar: exclam
Encoding: 33 33 5
Width: 757
VWidth: 2796
GlyphClass: 2
Flags: MW
LayerCount: 2
Fore
SplineSet
494 1144 m 0,0,1
 494 1054 494 1054 481 962.5 c 128,-1,2
 468 871 468 871 448 758 c 0,3,4
 440.004 711.018 440.004 711.018 433.5 680.5 c 128,-1,5
 427 650 427 650 422.5 623.5 c 128,-1,6
 418 597 418 597 415 568 c 128,-1,7
 412 539 412 539 411 497.5 c 128,-1,8
 410.002 456.122 410.002 456.122 409 394 c 128,-1,9
 408 332 408 332 408 238 c 0,10,11
 408 230.999 408 230.999 399 227.5 c 128,-1,12
 390 224.001 390 224.001 378.5 224 c 128,-1,13
 367 224 367 224 358.5 227.5 c 128,-1,14
 350 230.999 350 230.999 350 238 c 0,15,16
 350 332 350 332 349 394 c 128,-1,17
 348 456 348 456 346.5 497.5 c 128,-1,18
 345 539 345 539 342.5 568 c 128,-1,19
 340 597 340 597 335 623.5 c 2,20,-1
 324 680.5 l 2,21,22
 318 711 318 711 310 758 c 0,23,24
 289 871 289 871 276.5 962.5 c 128,-1,25
 264 1054 264 1054 264 1144 c 0,26,27
 264 1241.01 264 1241.01 296.5 1290 c 128,-1,28
 329 1339.01 329 1339.01 377 1339 c 0,29,30
 429 1339 429 1339 461.5 1290 c 128,-1,31
 494 1240.99 494 1240.99 494 1144 c 0,0,1
498 19 m 0,32,33
 498 -5 498 -5 488.5 -26.5 c 128,-1,34
 479 -48 479 -48 462.5 -63.5 c 128,-1,35
 446 -78.9999 446 -78.9999 424.5 -88.5 c 128,-1,36
 403 -97.9999 403 -97.9999 377 -98 c 0,37,38
 352 -98 352 -98 331 -88.5 c 128,-1,39
 310 -79.0001 310 -79.0001 294.5 -63.5 c 128,-1,40
 279 -48 279 -48 269 -26.5 c 128,-1,41
 259 -5.00005 259 -5.00005 259 19 c 256,42,43
 259 44 259 44 269 65.5 c 128,-1,44
 279 86.9999 279 86.9999 294.5 103.5 c 128,-1,45
 310 120 310 120 331 129.5 c 128,-1,46
 352 138.999 352 138.999 377 139 c 0,47,48
 429 139 429 139 463.5 104.5 c 128,-1,49
 498 70 498 70 498 19 c 0,32,33
EndSplineSet
Validated: 1
EndChar

StartChar: quotedbl
Encoding: 34 34 6
Width: 858
VWidth: 2796
GlyphClass: 2
Flags: MW
LayerCount: 2
Fore
SplineSet
721 1318 m 0,0,1
 721 1256.99 721 1256.99 713 1195 c 128,-1,2
 705 1133.01 705 1133.01 693 1070.5 c 128,-1,3
 681.008 1008.04 681.008 1008.04 667.5 946.5 c 128,-1,4
 654 885 654 885 643 827 c 1,5,-1
 593 827 l 1,6,7
 584 874 584 874 570.5 934.5 c 128,-1,8
 557.015 994.931 557.015 994.931 544 1060 c 128,-1,9
 531.006 1124.96 531.006 1124.96 521.5 1188.5 c 128,-1,10
 512 1251.99 512 1251.99 512 1303 c 0,11,12
 512 1358.99 512 1358.99 535 1392 c 128,-1,13
 558 1425 558 1425 618 1425 c 0,14,15
 666 1425 666 1425 693.5 1394.5 c 128,-1,16
 721 1364.01 721 1364.01 721 1318 c 0,0,1
344 1318 m 256,17,18
 344 1271.01 344 1271.01 333 1202 c 128,-1,19
 322.009 1133.05 322.009 1133.05 308 1061.5 c 128,-1,20
 294.016 990.075 294.016 990.075 280 926.5 c 128,-1,21
 266 863 266 863 259 827 c 1,22,-1
 218 827 l 1,23,24
 207.999 881 207.999 881 193.5 940 c 128,-1,25
 178.995 999.019 178.995 999.019 166.5 1061.5 c 128,-1,26
 153.998 1124.02 153.998 1124.02 145.5 1185.5 c 128,-1,27
 137 1247 137 1247 137 1303 c 0,28,29
 137 1355.99 137 1355.99 159.5 1390.5 c 128,-1,30
 182 1425 182 1425 240 1425 c 0,31,32
 288 1425 288 1425 316 1394.5 c 128,-1,33
 344 1364.01 344 1364.01 344 1318 c 256,17,18
EndSplineSet
Validated: 1
EndChar

StartChar: numbersign
Encoding: 35 35 7
Width: 1054
VWidth: 2796
GlyphClass: 2
Flags: MW
LayerCount: 2
Fore
SplineSet
736 440 m 1,0,-1
 640 -31 l 1,1,-1
 557 -31 l 1,2,-1
 651 440 l 1,3,-1
 302 440 l 1,4,-1
 205 -31 l 1,5,-1
 117 -31 l 1,6,-1
 213 440 l 1,7,-1
 37 440 l 1,8,-1
 37 526 l 1,9,-1
 229 526 l 1,10,-1
 302 878 l 1,11,-1
 37 878 l 1,12,-1
 37 958 l 1,13,-1
 322 958 l 1,14,-1
 416 1425 l 1,15,-1
 498 1425 l 1,16,-1
 408 958 l 1,17,-1
 755 958 l 1,18,-1
 853 1425 l 1,19,-1
 939 1425 l 1,20,-1
 841 958 l 1,21,-1
 1017 958 l 1,22,-1
 1017 878 l 1,23,-1
 827 878 l 1,24,-1
 755 526 l 1,25,-1
 1017 526 l 1,26,-1
 1017 440 l 1,27,-1
 736 440 l 1,0,-1
389 878 m 1,28,-1
 315 526 l 1,29,-1
 668 526 l 1,30,-1
 741 878 l 1,31,-1
 389 878 l 1,28,-1
EndSplineSet
Validated: 1
EndChar

StartChar: dollar
Encoding: 36 36 8
Width: 1054
VWidth: 2796
GlyphClass: 2
Flags: MW
LayerCount: 2
Fore
SplineSet
948 347 m 0,0,1
 948 262 948 262 914.5 194.5 c 128,-1,2
 881 127 881 127 824 78.5 c 128,-1,3
 767 30 767 30 694 2 c 128,-1,4
 621 -26 621 -26 542 -31 c 1,5,-1
 542 -160 l 1,6,-1
 475 -160 l 1,7,-1
 475 -31 l 1,8,9
 382 -26 382 -26 290 -5.5 c 128,-1,10
 198.001 15 198.001 15 112 53 c 1,11,-1
 112 344 l 1,12,-1
 157 344 l 1,13,14
 167.999 198.999 167.999 198.999 251.5 125.5 c 128,-1,15
 335 52 335 52 475 40 c 1,16,-1
 475 638 l 1,17,-1
 347.5 722 l 2,18,19
 283 765 283 765 231 817.5 c 128,-1,20
 178.999 870 178.999 870 145.5 935.5 c 128,-1,21
 112.001 1001 112.001 1001 112 1085 c 0,22,23
 112 1161.99 112 1161.99 142.5 1222 c 128,-1,24
 172.999 1282 172.999 1282 223.5 1324.5 c 128,-1,25
 274 1366.99 274 1366.99 340 1390.5 c 128,-1,26
 406 1414.01 406 1414.01 475 1420 c 1,27,-1
 475 1516 l 1,28,-1
 542 1516 l 1,29,-1
 542 1420 l 1,30,31
 588.027 1418.99 588.027 1418.99 630.5 1410 c 128,-1,32
 673.05 1400.99 673.05 1400.99 714 1388 c 128,-1,33
 755.114 1374.96 755.114 1374.96 796.5 1360 c 2,34,-1
 881 1328 l 1,35,-1
 881 1021 l 1,36,-1
 841 1021 l 1,37,38
 829 1162 829 1162 758.5 1248.5 c 128,-1,39
 688 1335.01 688 1335.01 542 1350 c 1,40,-1
 542 827 l 1,41,-1
 674 735.5 l 2,42,43
 745 687 745 687 806 629.5 c 128,-1,44
 867 572 867 572 907.5 502.5 c 128,-1,45
 948 433 948 433 948 347 c 0,0,1
475 1350 m 1,46,47
 433 1345.01 433 1345.01 395.5 1330.5 c 128,-1,48
 357.989 1315.99 357.989 1315.99 330.5 1292 c 128,-1,49
 303 1268 303 1268 287.5 1232.5 c 128,-1,50
 272 1196.99 272 1196.99 272 1150 c 256,51,52
 272 1103 272 1103 290.5 1062 c 128,-1,53
 309.003 1021 309.003 1021 338 986.5 c 128,-1,54
 367 952 367 952 403.5 923 c 128,-1,55
 439.996 894.003 439.996 894.003 475 872 c 1,56,-1
 475 1350 l 1,46,47
785 296 m 0,57,58
 785 348 785 348 761 391 c 128,-1,59
 737 434 737 434 701 470.5 c 128,-1,60
 665 507 665 507 622.5 537 c 2,61,-1
 542 593 l 1,62,-1
 542 40 l 1,63,64
 594 42 594 42 638.5 63.5 c 128,-1,65
 683 84.9999 683 84.9999 715.5 119.5 c 128,-1,66
 748 154 748 154 766.5 200 c 128,-1,67
 785 246.001 785 246.001 785 296 c 0,57,58
EndSplineSet
Validated: 1
EndChar

StartChar: percent
Encoding: 37 37 9
Width: 1822
VWidth: 2796
GlyphClass: 2
Flags: MW
LayerCount: 2
Fore
SplineSet
1664 523 m 0,0,1
 1664 467 1664 467 1652 403.5 c 128,-1,2
 1640 340 1640 340 1615.5 278.5 c 128,-1,3
 1591.01 217 1591.01 217 1555.5 161 c 128,-1,4
 1519.98 104.976 1519.98 104.976 1474 62 c 128,-1,5
 1427.99 18.9916 1427.99 18.9916 1371.5 -6 c 128,-1,6
 1314.99 -31 1314.99 -31 1249 -31 c 0,7,8
 1106.99 -31 1106.99 -31 1044.5 46 c 128,-1,9
 981.995 123 981.995 123 982 259 c 0,10,11
 982 347 982 347 1020 435 c 128,-1,12
 1057.99 523 1057.99 523 1121.5 594 c 128,-1,13
 1184.99 665 1184.99 665 1267.5 710 c 128,-1,14
 1350 755 1350 755 1440 755 c 0,15,16
 1488 755 1488 755 1529 736.5 c 128,-1,17
 1569.99 718 1569.99 718 1600 686.5 c 128,-1,18
 1630 655 1630 655 1647 613 c 128,-1,19
 1663.99 571 1663.99 571 1664 523 c 0,0,1
557 -31 m 1,20,-1
 456 -31 l 1,21,-1
 1193 1294 l 1,22,23
 1130.02 1267.01 1130.02 1267.01 1066 1252.5 c 128,-1,24
 1002.02 1238 1002.02 1238 934 1238 c 0,25,26
 907.039 1238 907.039 1238 880 1241.5 c 128,-1,27
 853.034 1244.99 853.034 1244.99 827 1256 c 1,28,29
 827 1226 827 1226 835.5 1198 c 128,-1,30
 844 1169.99 844 1169.99 844 1141 c 0,31,32
 844 1057.99 844 1057.99 811 964.5 c 128,-1,33
 778 871 778 871 719.5 792 c 128,-1,34
 661 713 661 713 582.5 661 c 128,-1,35
 504 609 504 609 411 609 c 0,36,37
 341 609 341 609 293.5 631 c 128,-1,38
 246 653 246 653 216.5 691 c 128,-1,39
 186.999 729 186.999 729 173.5 783 c 128,-1,40
 160 837 160 837 160 900 c 0,41,42
 160 986 160 986 197.5 1074.5 c 128,-1,43
 235 1163 235 1163 298.5 1236 c 128,-1,44
 362 1309.01 362 1309.01 444 1355 c 128,-1,45
 526 1401.01 526 1401.01 616 1401 c 0,46,47
 672 1401 672 1401 707.5 1383 c 128,-1,48
 742.955 1365.02 742.955 1365.02 777 1343.5 c 128,-1,49
 811.029 1321.99 811.029 1321.99 850.5 1304 c 128,-1,50
 890 1286 890 1286 953 1286 c 0,51,52
 1049 1286 1049 1286 1130.5 1320 c 128,-1,53
 1211.99 1354.01 1211.99 1354.01 1272 1432 c 1,54,-1
 1374 1432 l 1,55,-1
 557 -31 l 1,20,-1
1611 512 m 0,56,57
 1611 544.983 1611 544.983 1601.5 576.5 c 128,-1,58
 1592.01 607.978 1592.01 607.978 1573.5 632.5 c 128,-1,59
 1555.01 657 1555.01 657 1527 672.5 c 128,-1,60
 1498.99 688 1498.99 688 1462 688 c 0,61,62
 1414 688 1414 688 1372 662 c 128,-1,63
 1329.99 635.994 1329.99 635.994 1293.5 593 c 128,-1,64
 1257.01 550 1257.01 550 1229 495.5 c 128,-1,65
 1201.01 441.033 1201.01 441.033 1181.5 385 c 128,-1,66
 1162 329 1162 329 1151.5 276 c 128,-1,67
 1141 223.001 1141 223.001 1141 182 c 0,68,69
 1141 114.999 1141 114.999 1172 74.5 c 128,-1,70
 1203.01 34 1203.01 34 1272 34 c 0,71,72
 1323 34 1323 34 1368 57.5 c 128,-1,73
 1413 81.0001 1413 81.0001 1450.5 119.5 c 128,-1,74
 1488 158.001 1488 158.001 1518 208 c 128,-1,75
 1547.99 257.976 1547.99 257.976 1568.5 311.5 c 128,-1,76
 1589.01 365 1589.01 365 1600 416.5 c 128,-1,77
 1610.99 468 1610.99 468 1611 512 c 0,56,57
789 1171 m 0,78,79
 789 1193.01 789 1193.01 781.5 1220.5 c 128,-1,80
 774 1247.99 774 1247.99 771 1270 c 1,81,82
 755.964 1274.01 755.964 1274.01 735 1285.5 c 2,83,-1
 693 1308.5 l 1,84,-1
 653.5 1329.5 l 2,85,86
 634.991 1339 634.991 1339 624 1339 c 0,87,88
 598 1339 598 1339 571.5 1324 c 128,-1,89
 545 1309 545 1309 521.5 1286.5 c 128,-1,90
 497.981 1263.98 497.981 1263.98 478.5 1240.5 c 128,-1,91
 459 1216.99 459 1216.99 445 1197 c 0,92,93
 385 1120.01 385 1120.01 353.5 1029 c 128,-1,94
 322 938 322 938 322 838 c 0,95,96
 322 771 322 771 351 727 c 128,-1,97
 380 683 380 683 453 683 c 0,98,99
 505 683 505 683 550 706.5 c 128,-1,100
 595 730 595 730 632.5 770 c 128,-1,101
 670 810 670 810 699.5 860.5 c 128,-1,102
 729 911 729 911 749 965.5 c 128,-1,103
 768.996 1019.98 768.996 1019.98 779 1073 c 128,-1,104
 789 1126 789 1126 789 1171 c 0,78,79
EndSplineSet
Validated: 1
EndChar

StartChar: ampersand
Encoding: 38 38 10
Width: 1641
VWidth: 2796
GlyphClass: 2
Flags: MW
LayerCount: 2
Fore
SplineSet
1574 251 m 1,0,1
 1562 191 1562 191 1534.5 138.5 c 128,-1,2
 1507.02 86.0195 1507.02 86.0195 1467.5 48 c 128,-1,3
 1428.01 10 1428.01 10 1375.5 -12 c 128,-1,4
 1323 -34 1323 -34 1259 -34 c 0,5,6
 1204.01 -34 1204.01 -34 1153.5 -17 c 128,-1,7
 1102.99 -3.8147e-06 1102.99 -3.8147e-06 1057.5 28.5 c 128,-1,8
 1011.99 57.0116 1011.99 57.0116 971 93.5 c 128,-1,9
 930.003 129.997 930.003 129.997 894 168 c 1,10,11
 844.002 124.002 844.002 124.002 794 86.5 c 128,-1,12
 744 49 744 49 691 22.5 c 128,-1,13
 638 -4 638 -4 577.5 -19 c 128,-1,14
 517 -34 517 -34 448 -34 c 256,15,16
 378 -34 378 -34 312 -14.5 c 128,-1,17
 246 5 246 5 194 44 c 128,-1,18
 141.999 83 141.999 83 110 142 c 128,-1,19
 78.0001 200.999 78.0001 200.999 78 277 c 0,20,21
 78 366 78 366 118 441.5 c 128,-1,22
 158.001 517 158.001 517 220.5 580 c 128,-1,23
 283 643 283 643 359.5 693 c 128,-1,24
 436 743 436 743 507 780 c 1,25,26
 472 849 472 849 445.5 929.5 c 128,-1,27
 419 1010 419 1010 419 1088 c 256,28,29
 419 1166 419 1166 446.5 1229 c 128,-1,30
 474 1292 474 1292 521.5 1335.5 c 128,-1,31
 569 1379 569 1379 634.5 1402 c 128,-1,32
 700 1424.99 700 1424.99 777 1425 c 0,33,34
 834 1425 834 1425 884.5 1409 c 128,-1,35
 935 1392.99 935 1392.99 973.5 1361.5 c 128,-1,36
 1012 1330 1012 1330 1034.5 1283.5 c 128,-1,37
 1057 1237 1057 1237 1057 1177 c 0,38,39
 1057 1105 1057 1105 1025 1048 c 128,-1,40
 993.005 991 993.005 991 943 946.5 c 128,-1,41
 893 902 893 902 833 868 c 128,-1,42
 773 834 773 834 718 806 c 1,43,44
 780 694 780 694 847.5 588 c 128,-1,45
 915 482 915 482 993 381 c 1,46,-1
 1053 459 l 2,47,48
 1085.04 502.055 1085.04 502.055 1111 549.5 c 128,-1,49
 1137.02 597.051 1137.02 597.051 1154 646.5 c 128,-1,50
 1170.99 696 1170.99 696 1171 744 c 0,51,52
 1171 765 1171 765 1165 785.5 c 128,-1,53
 1159 806 1159 806 1147 822 c 128,-1,54
 1135 837.995 1135 837.995 1116.5 848.5 c 128,-1,55
 1098.01 859 1098.01 859 1073 859 c 1,56,-1
 1073 897 l 1,57,-1
 1507 897 l 1,58,-1
 1507 859 l 1,59,60
 1495 859 1495 859 1478.5 856 c 128,-1,61
 1462.01 853.003 1462.01 853.003 1444.5 849 c 128,-1,62
 1426.99 845 1426.99 845 1410 837.5 c 128,-1,63
 1392.98 829.99 1392.98 829.99 1379 819 c 0,64,65
 1363.01 806.009 1363.01 806.009 1343.5 781 c 128,-1,66
 1324.02 756.028 1324.02 756.028 1306.5 728 c 2,67,-1
 1273 673 l 2,68,69
 1257 646 1257 646 1247 627 c 0,70,71
 1200.01 545 1200.01 545 1149.5 468.5 c 128,-1,72
 1098.99 392 1098.99 392 1040 318 c 1,73,-1
 1103 252.5 l 2,74,75
 1137.03 217.979 1137.03 217.979 1177 190 c 128,-1,76
 1217 162 1217 162 1260 144 c 128,-1,77
 1303 126 1303 126 1348 126 c 0,78,79
 1424.99 126 1424.99 126 1471.5 164.5 c 128,-1,80
 1518 203.001 1518 203.001 1537 277 c 1,81,-1
 1574 251 l 1,0,1
937 1180 m 0,82,83
 937 1215 937 1215 926 1246.5 c 128,-1,84
 914.998 1278.01 914.998 1278.01 893.5 1301 c 128,-1,85
 872 1323.99 872 1323.99 843 1338.5 c 128,-1,86
 814 1353.01 814 1353.01 777 1353 c 0,87,88
 739 1353 739 1353 705.5 1338.5 c 128,-1,89
 672 1323.99 672 1323.99 647.5 1299.5 c 128,-1,90
 623.006 1275.01 623.006 1275.01 609 1241.5 c 128,-1,91
 595 1208 595 1208 595 1169 c 0,92,93
 595 1133 595 1133 603.5 1094 c 128,-1,94
 612.005 1054.98 612.005 1054.98 624 1017 c 128,-1,95
 636 979 636 979 652 942 c 2,96,-1
 683 872 l 1,97,98
 730 894 730 894 776 923.5 c 128,-1,99
 822 953 822 953 857.5 990.5 c 128,-1,100
 892.994 1027.99 892.994 1027.99 915 1075 c 128,-1,101
 937 1121.99 937 1121.99 937 1180 c 0,82,83
841 227 m 1,102,103
 752 347 752 347 679 463 c 128,-1,104
 606 579 606 579 537 710 c 1,105,106
 487 683 487 683 443 648.5 c 128,-1,107
 399 614 399 614 364.5 572 c 128,-1,108
 330 530 330 530 310.5 479.5 c 128,-1,109
 291 429 291 429 291 369 c 0,110,111
 291 313 291 313 309.5 262.5 c 128,-1,112
 328 211.999 328 211.999 362 174.5 c 128,-1,113
 396 137 396 137 444 115 c 128,-1,114
 492 92.9995 492 92.9995 550 93 c 0,115,116
 591 93 591 93 630 104.5 c 128,-1,117
 669 116.001 669 116.001 706 135 c 128,-1,118
 743 154.001 743 154.001 777 178 c 128,-1,119
 811 202 811 202 841 227 c 1,102,103
EndSplineSet
Validated: 1
EndChar

StartChar: quotesingle
Encoding: 39 39 11
Width: 380
VWidth: 2796
GlyphClass: 2
Flags: MW
LayerCount: 2
Fore
SplineSet
294 1318 m 0,0,1
 294 1303 294 1303 287.5 1255 c 128,-1,2
 281 1207 281 1207 266 1129 c 2,3,-1
 210 827 l 1,4,-1
 165 827 l 1,5,-1
 109 1132 l 2,6,7
 98 1193 98 1193 92 1236 c 128,-1,8
 86 1279.01 86 1279.01 86 1303 c 0,9,10
 86 1367.01 86 1367.01 111.5 1396 c 128,-1,11
 137 1424.99 137 1424.99 184 1425 c 0,12,13
 236.001 1425 236.001 1425 266 1393 c 0,14,15
 294 1361.01 294 1361.01 294 1318 c 0,0,1
EndSplineSet
Validated: 1
EndChar

StartChar: parenleft
Encoding: 40 40 12
Width: 746
VWidth: 2796
GlyphClass: 2
Flags: MW
LayerCount: 2
Fore
SplineSet
668 -512 m 1,0,1
 642 -500 642 -500 605 -476.5 c 128,-1,2
 568 -453 568 -453 525.5 -421.5 c 128,-1,3
 483 -390 483 -390 440 -352.5 c 128,-1,4
 397 -315 397 -315 358 -274 c 0,5,6
 307 -218.001 307 -218.001 260.5 -155.5 c 128,-1,7
 214 -92.9995 214 -92.9995 179.5 -18.5 c 128,-1,8
 145 56.0001 145 56.0001 124.5 143.5 c 128,-1,9
 103.999 230.999 103.999 230.999 104 336 c 256,10,11
 104 441 104 441 124.5 527.5 c 128,-1,12
 145.001 614 145.001 614 179.5 688 c 128,-1,13
 214 762 214 762 260.5 824.5 c 128,-1,14
 307 887 307 887 358 942 c 0,15,16
 397 983 397 983 440 1021 c 128,-1,17
 483.036 1059.03 483.036 1059.03 525.5 1090.5 c 128,-1,18
 567.952 1121.96 567.952 1121.96 605 1145.5 c 128,-1,19
 642 1169.01 642 1169.01 668 1180 c 1,20,-1
 685 1163 l 1,21,22
 597 1077 597 1077 529 996 c 128,-1,23
 461 915 461 915 414 822 c 0,24,25
 389 776 389 776 365 723 c 128,-1,26
 341 670 341 670 322 610 c 128,-1,27
 303 550 303 550 291.5 482 c 128,-1,28
 280 414 280 414 280 336 c 0,29,30
 280 257 280 257 291.5 188 c 128,-1,31
 303 119 303 119 322 58 c 128,-1,32
 341 -3.00005 341 -3.00005 365 -55.5 c 128,-1,33
 389 -108 389 -108 414 -154 c 0,34,35
 461 -247 461 -247 529 -326.5 c 128,-1,36
 597 -406 597 -406 685 -494 c 1,37,-1
 668 -512 l 1,0,1
EndSplineSet
Validated: 1
EndChar

StartChar: parenright
Encoding: 41 41 13
Width: 746
VWidth: 2796
GlyphClass: 2
Flags: MW
LayerCount: 2
Fore
SplineSet
640 336 m 256,0,1
 640 231 640 231 620.5 143.5 c 128,-1,2
 601 56.0001 601 56.0001 566 -18.5 c 128,-1,3
 531 -93.0001 531 -93.0001 484.5 -155.5 c 128,-1,4
 438 -218.001 438 -218.001 386 -274 c 0,5,6
 348 -315 348 -315 303.5 -352.5 c 128,-1,7
 259 -390 259 -390 217.5 -421.5 c 128,-1,8
 175.999 -453 175.999 -453 138.5 -476.5 c 128,-1,9
 101 -500 101 -500 75 -512 c 1,10,-1
 59 -494 l 1,11,12
 147.001 -406 147.001 -406 215 -326.5 c 128,-1,13
 283 -247 283 -247 330 -154 c 0,14,15
 355 -107.999 355 -107.999 379.5 -55.5 c 128,-1,16
 404 -3 404 -3 422.5 58 c 128,-1,17
 441 119 441 119 452.5 188 c 128,-1,18
 464 257 464 257 464 336 c 0,19,20
 464 414 464 414 452.5 482 c 128,-1,21
 441 550 441 550 422.5 610 c 128,-1,22
 404 670 404 670 379.5 723 c 128,-1,23
 355 776 355 776 330 822 c 0,24,25
 283 915 283 915 215 996 c 128,-1,26
 147 1077 147 1077 59 1163 c 1,27,-1
 75 1180 l 1,28,29
 101 1169.01 101 1169.01 138.5 1145.5 c 128,-1,30
 176.035 1121.97 176.035 1121.97 217.5 1090.5 c 128,-1,31
 258.938 1059.05 258.938 1059.05 303.5 1021 c 128,-1,32
 348 983 348 983 386 942 c 0,33,34
 438 887 438 887 484.5 824.5 c 128,-1,35
 531 762 531 762 566 688 c 128,-1,36
 601 614 601 614 620.5 527.5 c 128,-1,37
 640 441 640 441 640 336 c 256,0,1
EndSplineSet
Validated: 1
EndChar

StartChar: asterisk
Encoding: 42 42 14
Width: 939
VWidth: 2796
GlyphClass: 2
Flags: MW
LayerCount: 2
Fore
SplineSet
789 643 m 0,0,1
 806 628 806 628 800.5 596.5 c 128,-1,2
 795 565 795 565 752 523 c 0,3,4
 732 502 732 502 696.5 477.5 c 128,-1,5
 661 453 661 453 626 431.5 c 128,-1,6
 591 410 591 410 564 397.5 c 128,-1,7
 537 385 537 385 534 389 c 1,8,9
 530 392 530 392 543 419 c 128,-1,10
 556 446 556 446 577 481 c 128,-1,11
 598 516 598 516 623.5 551.5 c 128,-1,12
 649 587 649 587 668 606 c 0,13,14
 707 649 707 649 740.5 654 c 128,-1,15
 774 659 774 659 789 643 c 0,0,1
528 665 m 0,16,17
 528 636 528 636 520.5 594 c 128,-1,18
 513 552 513 552 503 511.5 c 128,-1,19
 493 471 493 471 483.5 442.5 c 128,-1,20
 474 414 474 414 470 414 c 0,21,22
 464 414 464 414 454 442.5 c 128,-1,23
 444 471 444 471 433.5 511.5 c 128,-1,24
 423 552 423 552 415.5 594 c 128,-1,25
 408 636 408 636 408 665 c 0,26,27
 408 725 408 725 427 751 c 128,-1,28
 446 777 446 777 470 777 c 256,29,30
 493 777 493 777 510.5 751 c 128,-1,31
 528 725 528 725 528 665 c 0,16,17
923 325 m 256,32,33
 923 302 923 302 895.5 284 c 128,-1,34
 868 266 868 266 811 266 c 0,35,36
 782 266 782 266 739 273 c 128,-1,37
 696 280 696 280 656 289.5 c 128,-1,38
 616 299 616 299 588 309 c 128,-1,39
 560 319 560 319 560 325 c 256,40,41
 560 330 560 330 588 340 c 128,-1,42
 616 350 616 350 656 359.5 c 128,-1,43
 696 369 696 369 739 376.5 c 128,-1,44
 782 384 782 384 811 384 c 0,45,46
 868 384 868 384 895.5 366 c 128,-1,47
 923 348 923 348 923 325 c 256,32,33
406 389 m 0,48,49
 403 385 403 385 375.5 397.5 c 128,-1,50
 348 410 348 410 312.5 431.5 c 128,-1,51
 277.017 452.989 277.017 452.989 241 477.5 c 128,-1,52
 205 502 205 502 184 523 c 0,53,54
 145 565 145 565 139.5 596.5 c 128,-1,55
 133.999 628 133.999 628 149 643 c 0,56,57
 165.001 659 165.001 659 197 654 c 128,-1,58
 228.999 649 228.999 649 272 606 c 0,59,60
 292 587 292 587 316.5 551.5 c 128,-1,61
 341 516 341 516 361.5 481 c 128,-1,62
 382 446 382 446 395 419 c 128,-1,63
 408 392 408 392 406 389 c 0,48,49
789 5 m 0,64,65
 774 -11 774 -11 740.5 -5.5 c 128,-1,66
 707 4.76837e-06 707 4.76837e-06 668 42 c 0,67,68
 649 63 649 63 623.5 97.5 c 128,-1,69
 598.002 131.998 598.002 131.998 577 167 c 128,-1,70
 556 201.999 556 201.999 543 229.5 c 128,-1,71
 530 256.999 530 256.999 534 259 c 1,72,73
 537 264 537 264 564 251.5 c 128,-1,74
 591 239.001 591 239.001 626 217 c 2,75,-1
 696.5 170.5 l 2,76,77
 732 146.001 732 146.001 752 126 c 0,78,79
 795 82.9999 795 82.9999 800.5 51.5 c 128,-1,80
 806 20 806 20 789 5 c 0,64,65
381 325 m 256,81,82
 381 319 381 319 352.5 309 c 128,-1,83
 324 299 324 299 283.5 289.5 c 128,-1,84
 243 280 243 280 200 273 c 128,-1,85
 156.999 266 156.999 266 128 266 c 0,86,87
 69.9999 266 69.9999 266 43 284 c 128,-1,88
 16 302 16 302 16 325 c 256,89,90
 16 348 16 348 43 366 c 128,-1,91
 70 384 70 384 128 384 c 0,92,93
 156.999 384 156.999 384 200 376.5 c 128,-1,94
 243.001 369 243.001 369 283.5 359.5 c 128,-1,95
 324 350 324 350 352.5 340 c 128,-1,96
 381 330 381 330 381 325 c 256,81,82
528 -16 m 0,97,98
 528 -76 528 -76 510.5 -102 c 128,-1,99
 493 -127.999 493 -127.999 470 -128 c 256,100,101
 446 -128 446 -128 427 -102 c 128,-1,102
 408 -76.0001 408 -76.0001 408 -16 c 0,103,104
 408 12 408 12 415.5 54.5 c 128,-1,105
 423 96.9999 423 96.9999 433.5 137 c 128,-1,106
 444 177.001 444 177.001 454 206 c 128,-1,107
 464 234.999 464 234.999 470 235 c 0,108,109
 474 235 474 235 483.5 206 c 128,-1,110
 493 177.001 493 177.001 503 137 c 128,-1,111
 513 96.9995 513 96.9995 520.5 54.5 c 128,-1,112
 528 12 528 12 528 -16 c 0,97,98
406 259 m 1,113,114
 408 257 408 257 395 229.5 c 128,-1,115
 382 202.001 382 202.001 361.5 167 c 128,-1,116
 340.998 131.998 340.998 131.998 316.5 97.5 c 128,-1,117
 292 63 292 63 272 42 c 0,118,119
 228.999 0 228.999 0 197 -5.5 c 128,-1,120
 165.001 -11 165.001 -11 149 5 c 0,121,122
 134 20 134 20 139.5 51.5 c 128,-1,123
 145.001 83 145.001 83 184 126 c 0,124,125
 205 145.999 205 145.999 241 170.5 c 2,126,-1
 312.5 217 l 2,127,128
 348 239.001 348 239.001 375.5 251.5 c 128,-1,129
 403 264 403 264 406 259 c 1,113,114
EndSplineSet
Validated: 33
EndChar

StartChar: plus
Encoding: 43 43 15
Width: 1249
VWidth: 2796
GlyphClass: 2
Flags: MW
LayerCount: 2
Fore
SplineSet
662 531 m 1,0,-1
 662 5 l 1,1,-1
 579 5 l 1,2,-1
 579 531 l 1,3,-1
 51 531 l 1,4,-1
 51 618 l 1,5,-1
 579 618 l 1,6,-1
 579 1147 l 1,7,-1
 662 1147 l 1,8,-1
 662 618 l 1,9,-1
 1191 618 l 1,10,-1
 1191 531 l 1,11,-1
 662 531 l 1,0,-1
EndSplineSet
Validated: 1
EndChar

StartChar: comma
Encoding: 44 44 16
Width: 528
VWidth: 2796
GlyphClass: 2
Flags: MW
LayerCount: 2
Fore
SplineSet
419 -11 m 0,0,1
 419 -248 419 -248 115 -352 c 1,2,-1
 115 -304 l 1,3,4
 199 -280 199 -280 264 -213 c 0,5,6
 299 -175.001 299 -175.001 317.5 -132 c 128,-1,7
 336 -88.9995 336 -88.9995 336 -42 c 0,8,9
 336 0 336 0 313 0 c 0,10,11
 296 0 296 0 269 -14 c 0,12,13
 254 -22 254 -22 243 -26.5 c 128,-1,14
 232.001 -31 232.001 -31 224 -31 c 0,15,16
 114.999 -31 114.999 -31 115 83 c 0,17,18
 115 111.001 115 111.001 123.5 132.5 c 128,-1,19
 132.001 153.999 132.001 153.999 154 171 c 0,20,21
 193 205.001 193 205.001 246 205 c 0,22,23
 314 205 314 205 363 152 c 0,24,25
 419 87.0005 419 87.0005 419 -11 c 0,0,1
EndSplineSet
Validated: 1
EndChar

StartChar: hyphen
Encoding: 45 45 17
Width: 701
VWidth: 2796
GlyphClass: 2
Flags: MW
LayerCount: 2
Fore
SplineSet
83 325 m 1,0,-1
 83 481 l 1,1,-1
 616 481 l 1,2,-1
 616 325 l 1,3,-1
 83 325 l 1,0,-1
EndSplineSet
Validated: 1
EndChar

StartChar: period
Encoding: 46 46 18
Width: 875
VWidth: 2796
GlyphClass: 2
Flags: MW
LayerCount: 2
Fore
SplineSet
498 90 m 0,0,1
 498 38 498 38 463.5 3.5 c 128,-1,2
 429 -31 429 -31 377 -31 c 0,3,4
 352 -31 352 -31 331 -21.5 c 128,-1,5
 310 -12.0001 310 -12.0001 294.5 4 c 128,-1,6
 279 20 279 20 269 42 c 128,-1,7
 259 64 259 64 259 90 c 0,8,9
 259 115.001 259 115.001 269 136 c 128,-1,10
 279 157 279 157 294.5 172.5 c 128,-1,11
 310 187.999 310 187.999 331 198 c 128,-1,12
 352 208.001 352 208.001 377 208 c 0,13,14
 403 208 403 208 424.5 198 c 128,-1,15
 446 187.999 446 187.999 462.5 172.5 c 128,-1,16
 479 157.001 479 157.001 488.5 136 c 128,-1,17
 498 115 498 115 498 90 c 0,0,1
EndSplineSet
Validated: 1
EndChar

StartChar: slash
Encoding: 47 47 19
Width: 741
VWidth: 2796
GlyphClass: 2
Flags: MW
LayerCount: 2
Fore
SplineSet
173 -355 m 1,0,-1
 90 -355 l 1,1,-1
 568 1697 l 1,2,-1
 654 1700 l 1,3,-1
 173 -355 l 1,0,-1
EndSplineSet
Validated: 1
EndChar

StartChar: zero
Encoding: 48 48 20
Width: 1054
VWidth: 2796
GlyphClass: 2
Flags: MW
LayerCount: 2
Fore
SplineSet
979 710 m 0,0,1
 979 640 979 640 969.5 559 c 128,-1,2
 960 478 960 478 938 396.5 c 128,-1,3
 916 315 916 315 881.5 238.5 c 128,-1,4
 847 162 847 162 795.5 104 c 128,-1,5
 744 45.9999 744 45.9999 676.5 10.5 c 128,-1,6
 609 -25 609 -25 520 -25 c 0,7,8
 438 -25 438 -25 372.5 10 c 128,-1,9
 307 45 307 45 258 102.5 c 128,-1,10
 208.999 159.999 208.999 159.999 174 234.5 c 128,-1,11
 139.001 309 139.001 309 117.5 388.5 c 128,-1,12
 96.0005 468 96.0005 468 85.5 546.5 c 128,-1,13
 75 625 75 625 75 691 c 0,14,15
 75 758 75 758 85.5 838.5 c 128,-1,16
 96 919 96 919 117.5 1000 c 128,-1,17
 138.996 1080.99 138.996 1080.99 174.5 1158.5 c 128,-1,18
 210.001 1236.01 210.001 1236.01 260.5 1295 c 128,-1,19
 311 1353.99 311 1353.99 378.5 1389.5 c 128,-1,20
 446 1425.01 446 1425.01 531 1425 c 256,21,22
 616 1425 616 1425 682 1390.5 c 128,-1,23
 748 1356 748 1356 798 1299 c 128,-1,24
 848 1242 848 1242 882 1168 c 128,-1,25
 916 1094 916 1094 938 1014 c 128,-1,26
 960 934.001 960 934.001 969.5 855.5 c 128,-1,27
 979 777 979 777 979 710 c 0,0,1
777 755 m 256,28,29
 777 795 777 795 775 855 c 128,-1,30
 773 915 773 915 764.5 982.5 c 128,-1,31
 756 1050 756 1050 740 1117 c 128,-1,32
 724 1184.01 724 1184.01 696.5 1238 c 128,-1,33
 669 1292 669 1292 628 1325.5 c 128,-1,34
 587 1358.99 587 1358.99 528 1359 c 0,35,36
 468 1359 468 1359 426.5 1318.5 c 128,-1,37
 385 1278 385 1278 357 1214 c 128,-1,38
 329 1149.99 329 1149.99 312.5 1070.5 c 128,-1,39
 296 991 296 991 288.5 914 c 128,-1,40
 281 837 281 837 279 771 c 128,-1,41
 277 705 277 705 277 665 c 256,42,43
 277 625 277 625 279 563.5 c 128,-1,44
 281 502 281 502 289.5 433.5 c 128,-1,45
 298 365 298 365 313.5 294.5 c 128,-1,46
 329 224 329 224 357 168 c 128,-1,47
 385 112.001 385 112.001 426 77 c 128,-1,48
 467 42 467 42 526 42 c 0,49,50
 590 42 590 42 633 84 c 128,-1,51
 676 126 676 126 704 192 c 128,-1,52
 732 258 732 258 747 339.5 c 128,-1,53
 762 421 762 421 769 500 c 128,-1,54
 776 579 776 579 776.5 647 c 128,-1,55
 777 715 777 715 777 755 c 256,28,29
EndSplineSet
Validated: 1
Substitution2: "Single Substitution lookup 22 subtable" zeroSmall
Substitution2: "Single Substitution lookup 21 subtable" zeroMedium
EndChar

StartChar: one
Encoding: 49 49 21
Width: 1054
VWidth: 2796
GlyphClass: 2
Flags: MW
LayerCount: 2
Fore
SplineSet
272 0 m 1,0,-1
 272 40 l 1,1,2
 339 40 339 40 375.5 48.5 c 128,-1,3
 412 57 412 57 429 80.5 c 128,-1,4
 446 104 446 104 449.5 144 c 128,-1,5
 453 184.001 453 184.001 453 246 c 2,6,-1
 453 1032 l 2,7,8
 453 1057.01 453 1057.01 454 1095 c 128,-1,9
 455.001 1133 455.001 1133 448.5 1169.5 c 128,-1,10
 442 1205.99 442 1205.99 424.5 1232.5 c 128,-1,11
 407 1259.01 407 1259.01 369 1259 c 0,12,13
 341 1259 341 1259 314 1248.5 c 128,-1,14
 287.054 1238.02 287.054 1238.02 264 1227 c 1,15,-1
 246 1259 l 1,16,-1
 587 1425 l 1,17,-1
 624 1425 l 1,18,-1
 624 246 l 2,19,20
 624 186 624 186 626 146 c 128,-1,21
 628 105.999 628 105.999 643.5 82.5 c 128,-1,22
 659 58.9999 659 58.9999 694.5 49.5 c 128,-1,23
 730 40 730 40 797 40 c 1,24,-1
 797 0 l 1,25,-1
 272 0 l 1,0,-1
EndSplineSet
Validated: 33
Substitution2: "Single Substitution lookup 22 subtable" oneSmall
Substitution2: "Single Substitution lookup 21 subtable" oneMedium
EndChar

StartChar: two
Encoding: 50 50 22
Width: 1054
VWidth: 2796
GlyphClass: 2
Flags: MW
LayerCount: 2
Fore
SplineSet
867 0 m 1,0,-1
 48 0 l 1,1,-1
 48 40 l 1,2,-1
 176 158.5 l 2,3,4
 246.999 224.001 246.999 224.001 320 299 c 128,-1,5
 393 374 393 374 462 456 c 128,-1,6
 531 538 531 538 585 622.5 c 128,-1,7
 638.999 706.998 638.999 706.998 672 793 c 128,-1,8
 705 879 705 879 705 963 c 0,9,10
 705 1022.99 705 1022.99 685.5 1078 c 128,-1,11
 666 1133.01 666 1133.01 630.5 1175.5 c 128,-1,12
 594.985 1218.01 594.985 1218.01 544.5 1242.5 c 128,-1,13
 494 1266.99 494 1266.99 430 1267 c 0,14,15
 310 1267 310 1267 235.5 1204 c 128,-1,16
 160.999 1141 160.999 1141 123 1032 c 1,17,-1
 86 1032 l 1,18,19
 96.9982 1116.99 96.9982 1116.99 126.5 1188.5 c 128,-1,20
 156.001 1260.01 156.001 1260.01 205 1312.5 c 128,-1,21
 254.001 1365 254.001 1365 323.5 1395 c 128,-1,22
 393 1425 393 1425 483 1425 c 0,23,24
 563 1425 563 1425 634.5 1398.5 c 128,-1,25
 706 1371.99 706 1371.99 760.5 1323.5 c 128,-1,26
 815 1275.01 815 1275.01 848 1207.5 c 128,-1,27
 881 1140 881 1140 881 1057 c 0,28,29
 881 979 881 979 853.5 902 c 128,-1,30
 826 825 826 825 783 752 c 128,-1,31
 740 679 740 679 687.5 612.5 c 128,-1,32
 635 546 635 546 584 492 c 2,33,-1
 428.5 321.5 l 2,34,35
 350 235 350 235 266 157 c 1,36,-1
 629 157 l 2,37,38
 679.959 157 679.959 157 721 157.5 c 128,-1,39
 762 157.999 762 157.999 797.5 167.5 c 128,-1,40
 833 176.999 833 176.999 865 200.5 c 128,-1,41
 897 224.001 897 224.001 928 269 c 1,42,-1
 968 269 l 1,43,-1
 867 0 l 1,0,-1
EndSplineSet
Validated: 1
Substitution2: "Single Substitution lookup 22 subtable" twoSmall
Substitution2: "Single Substitution lookup 21 subtable" twoMedium
EndChar

StartChar: three
Encoding: 51 51 23
Width: 1054
VWidth: 2796
GlyphClass: 2
Flags: MW
LayerCount: 2
Fore
SplineSet
881 461 m 0,0,1
 881 341 881 341 837 249.5 c 128,-1,2
 793 158 793 158 717.5 97.5 c 128,-1,3
 642 37 642 37 541.5 6 c 128,-1,4
 441 -25 441 -25 328 -25 c 0,5,6
 300 -25 300 -25 258.5 -22 c 128,-1,7
 216.999 -19 216.999 -19 179 -8 c 128,-1,8
 141.001 3 141.001 3 113.5 24.5 c 128,-1,9
 86.0001 46 86.0001 46 86 86 c 0,10,11
 86 117.001 86 117.001 112 138.5 c 128,-1,12
 137.999 159.999 137.999 159.999 168 160 c 0,13,14
 201.001 160 201.001 160 234.5 145 c 128,-1,15
 268 130 268 130 304 112 c 128,-1,16
 340 94 340 94 380.5 79 c 128,-1,17
 421 64 421 64 467 64 c 0,18,19
 522 64 522 64 569.5 86.5 c 128,-1,20
 617 109 617 109 652 146.5 c 128,-1,21
 687 184 687 184 706.5 233.5 c 128,-1,22
 726 283 726 283 726 336 c 0,23,24
 726 429 726 429 695 495 c 128,-1,25
 664 561 664 561 609 604 c 128,-1,26
 554 647 554 647 480.5 668 c 128,-1,27
 407 689 407 689 322 691 c 1,28,-1
 322 724 l 1,29,30
 385 732 385 732 441.5 758.5 c 128,-1,31
 498 785 498 785 542 827.5 c 128,-1,32
 586 870 586 870 612 926.5 c 128,-1,33
 638 983 638 983 638 1049 c 0,34,35
 638 1098.99 638 1098.99 621.5 1142 c 128,-1,36
 605 1185.01 605 1185.01 575 1216.5 c 128,-1,37
 545 1248 545 1248 502.5 1265.5 c 128,-1,38
 460 1283.01 460 1283.01 408 1283 c 0,39,40
 319 1283 319 1283 254.5 1234.5 c 128,-1,41
 190 1186.01 190 1186.01 142 1113 c 1,42,-1
 106 1129 l 1,43,44
 137.001 1192 137.001 1192 171 1246 c 128,-1,45
 205.001 1300 205.001 1300 249.5 1340 c 128,-1,46
 294 1380.01 294 1380.01 350.5 1402.5 c 128,-1,47
 407 1425 407 1425 483 1425 c 0,48,49
 546 1425 546 1425 605 1407 c 128,-1,50
 664 1389 664 1389 709 1352.5 c 128,-1,51
 754 1316.01 754 1316.01 781 1263.5 c 128,-1,52
 808 1211 808 1211 808 1141 c 0,53,54
 808 1094 808 1094 791 1050 c 128,-1,55
 773.995 1005.99 773.995 1005.99 747.5 966.5 c 128,-1,56
 721 927 721 927 687.5 892 c 128,-1,57
 654 857 654 857 621 827 c 1,58,59
 748 781 748 781 814.5 689.5 c 128,-1,60
 881 598 881 598 881 461 c 0,0,1
EndSplineSet
Validated: 1
Substitution2: "Single Substitution lookup 22 subtable" threeSmall
Substitution2: "Single Substitution lookup 21 subtable" threeMedium
EndChar

StartChar: four
Encoding: 52 52 24
Width: 1054
VWidth: 2796
GlyphClass: 2
Flags: MW
LayerCount: 2
Fore
SplineSet
795 369 m 1,0,-1
 795 0 l 1,1,-1
 624 0 l 1,2,-1
 624 369 l 1,3,-1
 34 369 l 1,4,-1
 34 498 l 1,5,-1
 683 1425 l 1,6,-1
 795 1425 l 1,7,-1
 795 515 l 1,8,-1
 979 515 l 1,9,-1
 979 369 l 1,10,-1
 795 369 l 1,0,-1
624 1208 m 1,11,-1
 134 515 l 1,12,-1
 624 515 l 1,13,-1
 624 1208 l 1,11,-1
EndSplineSet
Validated: 1
Substitution2: "Single Substitution lookup 22 subtable" fourSmall
Substitution2: "Single Substitution lookup 21 subtable" fourMedium
EndChar

StartChar: five
Encoding: 53 53 25
Width: 1054
VWidth: 2796
GlyphClass: 2
Flags: MW
LayerCount: 2
Fore
SplineSet
836 1219 m 1,0,-1
 416 1219 l 1,1,-1
 322 1035 l 1,2,3
 427 1024.01 427 1024.01 529.5 982.5 c 128,-1,4
 632 941 632 941 712.5 872.5 c 128,-1,5
 793 804 793 804 842.5 711 c 128,-1,6
 892 618 892 618 892 504 c 0,7,8
 892 392 892 392 846.5 295 c 128,-1,9
 801 197.999 801 197.999 725.5 127 c 128,-1,10
 650 56.0001 650 56.0001 550.5 15.5 c 128,-1,11
 451 -25 451 -25 341 -25 c 0,12,13
 310 -25 310 -25 268.5 -19.5 c 128,-1,14
 226.999 -13.9999 226.999 -13.9999 190 0.5 c 128,-1,15
 152.999 15.0001 152.999 15.0001 127 42.5 c 128,-1,16
 101.001 70 101.001 70 101 112 c 0,17,18
 101 152.001 101 152.001 122 169.5 c 128,-1,19
 143 187.001 143 187.001 182 187 c 0,20,21
 213 187 213 187 243 170.5 c 128,-1,22
 273 154 273 154 305 133.5 c 128,-1,23
 337 112.999 337 112.999 374 97 c 128,-1,24
 411 80.9999 411 80.9999 456 81 c 0,25,26
 520 81 520 81 575.5 106 c 128,-1,27
 631 131.001 631 131.001 671 174 c 128,-1,28
 711 217.001 711 217.001 734.5 273.5 c 128,-1,29
 758 330 758 330 758 395 c 0,30,31
 758 516 758 516 701 601.5 c 128,-1,32
 644 687 644 687 555.5 741.5 c 128,-1,33
 467 796 467 796 359 822.5 c 128,-1,34
 251 849 251 849 149 853 c 1,35,-1
 416 1395 l 1,36,-1
 915 1395 l 1,37,-1
 836 1219 l 1,0,-1
EndSplineSet
Validated: 1
Substitution2: "Single Substitution lookup 22 subtable" fiveSmall
Substitution2: "Single Substitution lookup 21 subtable" fiveMedium
EndChar

StartChar: six
Encoding: 54 54 26
Width: 1054
VWidth: 2796
GlyphClass: 2
Flags: MW
LayerCount: 2
Fore
SplineSet
973 470 m 0,0,1
 973 375 973 375 942 286.5 c 128,-1,2
 911 198 911 198 852 128.5 c 128,-1,3
 793 59.0001 793 59.0001 711 17 c 128,-1,4
 629 -25 629 -25 528 -25 c 0,5,6
 455 -25 455 -25 393.5 0 c 128,-1,7
 332 25 332 25 283.5 67 c 128,-1,8
 235.001 109 235.001 109 199.5 165 c 128,-1,9
 163.999 220.999 163.999 220.999 140 284.5 c 128,-1,10
 116 348 116 348 104.5 415.5 c 128,-1,11
 92.9999 483 92.9999 483 93 547 c 0,12,13
 93 654 93 654 120 760.5 c 128,-1,14
 147 867 147 867 197.5 964.5 c 128,-1,15
 248.001 1062 248.001 1062 320 1146 c 128,-1,16
 392 1230 392 1230 480 1292 c 128,-1,17
 568 1353.99 568 1353.99 671 1389.5 c 128,-1,18
 774 1425.01 774 1425.01 886 1425 c 2,19,-1
 945 1425 l 1,20,-1
 945 1387 l 1,21,22
 818 1379.01 818 1379.01 715 1326.5 c 128,-1,23
 612 1274 612 1274 534 1190 c 128,-1,24
 456 1106 456 1106 403 999.5 c 128,-1,25
 350 893 350 893 322 777 c 1,26,27
 389 823 389 823 464 852 c 128,-1,28
 539 881 539 881 621 881 c 0,29,30
 706 881 706 881 771.5 846 c 128,-1,31
 837 811 837 811 882 753 c 128,-1,32
 927 695 927 695 950 621 c 128,-1,33
 973 547 973 547 973 470 c 0,0,1
789 358 m 0,34,35
 789 421 789 421 777.5 496.5 c 128,-1,36
 766 572 766 572 736 637.5 c 128,-1,37
 706 703 706 703 653.5 747.5 c 128,-1,38
 601 792 601 792 520 792 c 0,39,40
 496 792 496 792 466.5 783 c 128,-1,41
 437 774 437 774 408.5 761 c 128,-1,42
 380 748 380 748 352.5 732.5 c 2,43,-1
 304 705 l 1,44,45
 298.004 647.04 298.004 647.04 291.5 592 c 128,-1,46
 285 537 285 537 285 481 c 0,47,48
 285 441 285 441 292 392.5 c 128,-1,49
 299.001 343.995 299.001 343.995 312.5 294 c 128,-1,50
 326 244 326 244 348 198 c 128,-1,51
 370 151.999 370 151.999 400 115 c 128,-1,52
 430 77.9999 430 77.9999 470.5 56 c 128,-1,53
 511 34 511 34 560 34 c 0,54,55
 623 34 623 34 666.5 65.5 c 128,-1,56
 710 97 710 97 737.5 145 c 128,-1,57
 765 193 765 193 777 250 c 128,-1,58
 789 307 789 307 789 358 c 0,34,35
EndSplineSet
Validated: 1
Substitution2: "Single Substitution lookup 22 subtable" sixSmall
Substitution2: "Single Substitution lookup 21 subtable" sixMedium
EndChar

StartChar: seven
Encoding: 55 55 27
Width: 1054
VWidth: 2796
GlyphClass: 2
Flags: MW
LayerCount: 2
Fore
SplineSet
492 -31 m 1,0,-1
 381 -31 l 1,1,-1
 797 1227 l 1,2,-1
 414 1227 l 2,3,4
 352.034 1227 352.034 1227 308 1220.5 c 128,-1,5
 264 1214.01 264 1214.01 229 1195 c 128,-1,6
 194.001 1175.99 194.001 1175.99 165.5 1143 c 128,-1,7
 137 1110 137 1110 106 1057 c 1,8,-1
 78 1065 l 1,9,-1
 213 1395 l 1,10,-1
 956 1395 l 1,11,-1
 956 1359 l 1,12,-1
 492 -31 l 1,0,-1
EndSplineSet
Validated: 1
Substitution2: "Single Substitution lookup 22 subtable" sevenSmall
Substitution2: "Single Substitution lookup 21 subtable" sevenMedium
EndChar

StartChar: eight
Encoding: 56 56 28
Width: 1054
VWidth: 2796
GlyphClass: 2
Flags: MW
LayerCount: 2
Fore
SplineSet
934 330 m 0,0,1
 934 243 934 243 901 176 c 128,-1,2
 868 108.999 868 108.999 812 64.5 c 128,-1,3
 756 20 756 20 682.5 -2.5 c 128,-1,4
 609 -25 609 -25 528 -25 c 0,5,6
 455 -25 455 -25 382.5 -1.5 c 128,-1,7
 310 22 310 22 252.5 66.5 c 128,-1,8
 195.001 111 195.001 111 160.5 174.5 c 128,-1,9
 126 237.999 126 237.999 126 318 c 0,10,11
 126 380 126 380 152.5 436 c 128,-1,12
 179.001 492 179.001 492 220 540 c 128,-1,13
 260.999 588 260.999 588 310 628.5 c 128,-1,14
 359 669 359 669 406 702 c 1,15,-1
 312 782 l 2,16,17
 265 823 265 823 226.5 869.5 c 128,-1,18
 187.999 916 187.999 916 165 970.5 c 128,-1,19
 142.001 1024.99 142.001 1024.99 142 1094 c 0,20,21
 142 1173.01 142 1173.01 175 1235 c 128,-1,22
 208.01 1297.01 208.01 1297.01 261.5 1339.5 c 128,-1,23
 315 1381.99 315 1381.99 385 1403.5 c 128,-1,24
 455 1424.99 455 1424.99 528 1425 c 0,25,26
 594 1425 594 1425 661 1407 c 128,-1,27
 728 1389 728 1389 782 1350.5 c 128,-1,28
 836 1311.99 836 1311.99 870 1256 c 128,-1,29
 904 1200.01 904 1200.01 904 1124 c 0,30,31
 904 1062.01 904 1062.01 876 1010 c 128,-1,32
 848 958 848 958 805.5 915 c 128,-1,33
 763 872 763 872 712.5 837.5 c 2,34,-1
 616 774 l 1,35,-1
 725.5 685.5 l 2,36,37
 782 639 782 639 828 585 c 128,-1,38
 874 531 874 531 904 468.5 c 128,-1,39
 934 406 934 406 934 330 c 0,0,1
755 1135 m 0,40,41
 755 1364.01 755 1364.01 528 1364 c 0,42,43
 482 1364 482 1364 439.5 1351 c 128,-1,44
 396.979 1337.99 396.979 1337.99 364.5 1313 c 128,-1,45
 331.993 1287.99 331.993 1287.99 313 1249.5 c 128,-1,46
 294 1210.99 294 1210.99 294 1161 c 0,47,48
 294 1103 294 1103 321 1053.5 c 128,-1,49
 348 1004 348 1004 389.5 961.5 c 128,-1,50
 431 919 431 919 479 883 c 2,51,-1
 568 814 l 1,52,53
 608 851 608 851 641 884.5 c 128,-1,54
 674 918 674 918 700 954 c 128,-1,55
 726 990 726 990 740.5 1033.5 c 128,-1,56
 755 1077 755 1077 755 1135 c 0,40,41
785 246 m 0,57,58
 785 313 785 313 750 372 c 128,-1,59
 715 431 715 431 664.5 483 c 128,-1,60
 614 535 614 535 557 580 c 2,61,-1
 453 665 l 1,62,63
 375 598 375 598 330 512.5 c 128,-1,64
 285 427 285 427 285 322 c 0,65,66
 285 264 285 264 301.5 211 c 128,-1,67
 318 158.001 318 158.001 350 119.5 c 128,-1,68
 382 80.9999 382 80.9999 430 57.5 c 128,-1,69
 478 34 478 34 542 34 c 0,70,71
 591 34 591 34 635 47.5 c 128,-1,72
 679 61 679 61 712 88 c 128,-1,73
 745 115 745 115 765 154.5 c 128,-1,74
 785 193.999 785 193.999 785 246 c 0,57,58
EndSplineSet
Validated: 1
Substitution2: "Single Substitution lookup 22 subtable" eightSmall
Substitution2: "Single Substitution lookup 21 subtable" eightMedium
EndChar

StartChar: nine
Encoding: 57 57 29
Width: 1054
VWidth: 2796
GlyphClass: 2
Flags: MW
LayerCount: 2
Fore
SplineSet
963 851 m 0,0,1
 963 744 963 744 935.5 637.5 c 128,-1,2
 908 531 908 531 857.5 433 c 128,-1,3
 807 335 807 335 735.5 250 c 128,-1,4
 664 164.999 664 164.999 576.5 102.5 c 128,-1,5
 489 40 489 40 386.5 4.5 c 128,-1,6
 284 -31 284 -31 171 -31 c 2,7,-1
 112 -31 l 1,8,-1
 112 8 l 1,9,10
 238 11 238 11 340 63.5 c 128,-1,11
 442 116 442 116 520 201.5 c 128,-1,12
 598 287 598 287 651.5 394.5 c 128,-1,13
 705 502 705 502 733 616 c 1,14,15
 668 572 668 572 593.5 540.5 c 128,-1,16
 519 509 519 509 440 509 c 0,17,18
 354 509 354 509 287.5 544 c 128,-1,19
 221.001 579 221.001 579 175.5 637.5 c 128,-1,20
 130.001 696 130.001 696 106.5 771.5 c 128,-1,21
 82.9999 847 82.9999 847 83 926 c 0,22,23
 83 1019 83 1019 113 1108 c 128,-1,24
 143 1196.99 143 1196.99 200 1267.5 c 128,-1,25
 257 1338 257 1338 337.5 1381.5 c 128,-1,26
 418 1425 418 1425 520 1425 c 0,27,28
 594 1425 594 1425 655.5 1400.5 c 128,-1,29
 717 1376.01 717 1376.01 766 1334 c 128,-1,30
 815 1292 815 1292 852 1234.5 c 128,-1,31
 888.991 1177.02 888.991 1177.02 913.5 1113.5 c 128,-1,32
 938 1050 938 1050 950.5 982.5 c 128,-1,33
 963 915 963 915 963 851 c 0,0,1
769 904 m 0,34,35
 769 964 769 964 755 1042 c 128,-1,36
 741 1120 741 1120 709 1191 c 128,-1,37
 677 1261.99 677 1261.99 624.5 1310.5 c 128,-1,38
 572 1358.99 572 1358.99 494 1359 c 0,39,40
 431 1359 431 1359 387.5 1326.5 c 128,-1,41
 343.99 1293.99 343.99 1293.99 318 1246.5 c 128,-1,42
 292 1198.99 292 1198.99 280.5 1141.5 c 128,-1,43
 269 1084.01 269 1084.01 269 1032 c 0,44,45
 269 973 269 973 280 898 c 128,-1,46
 291 823 291 823 319.5 757 c 128,-1,47
 348 691 348 691 397 646 c 128,-1,48
 446 601 446 601 523 601 c 0,49,50
 545 601 545 601 577.5 607.5 c 128,-1,51
 610 614 610 614 644.5 626.5 c 128,-1,52
 679 639 679 639 707.5 655.5 c 128,-1,53
 736 672 736 672 750 691 c 1,54,-1
 762.5 795.5 l 2,55,56
 769 848 769 848 769 904 c 0,34,35
EndSplineSet
Validated: 1
Substitution2: "Single Substitution lookup 22 subtable" nineSmall
Substitution2: "Single Substitution lookup 21 subtable" nineMedium
EndChar

StartChar: colon
Encoding: 58 58 30
Width: 875
VWidth: 2796
GlyphClass: 2
Flags: MW
LayerCount: 2
Fore
SplineSet
531 665 m 0,0,1
 531 640 531 640 521.5 618.5 c 128,-1,2
 512 597 512 597 496.5 580.5 c 128,-1,3
 481 564 481 564 459.5 554.5 c 128,-1,4
 438 545 438 545 414 545 c 0,5,6
 363 545 363 545 328.5 579.5 c 128,-1,7
 294 614 294 614 294 665 c 0,8,9
 294 717 294 717 328.5 751 c 128,-1,10
 363 785 363 785 414 785 c 0,11,12
 438 785 438 785 459.5 776 c 128,-1,13
 481 767 481 767 496.5 751 c 128,-1,14
 512 735 512 735 521.5 713 c 128,-1,15
 531 691 531 691 531 665 c 0,0,1
531 19 m 256,16,17
 531 -5 531 -5 521.5 -26.5 c 128,-1,18
 512 -48 512 -48 496.5 -63.5 c 128,-1,19
 481 -78.9999 481 -78.9999 459.5 -88.5 c 128,-1,20
 438 -97.9999 438 -97.9999 414 -98 c 256,21,22
 389 -98 389 -98 367 -88.5 c 128,-1,23
 345 -79.0001 345 -79.0001 329 -63.5 c 128,-1,24
 313 -48 313 -48 303.5 -26.5 c 128,-1,25
 294 -5.00005 294 -5.00005 294 19 c 0,26,27
 294 70 294 70 328.5 104.5 c 128,-1,28
 363 139 363 139 414 139 c 0,29,30
 438 139 438 139 459.5 129.5 c 128,-1,31
 481 120.001 481 120.001 496.5 103.5 c 128,-1,32
 512 87 512 87 521.5 65.5 c 128,-1,33
 531 44 531 44 531 19 c 256,16,17
EndSplineSet
Validated: 1
EndChar

StartChar: semicolon
Encoding: 59 59 31
Width: 587
VWidth: 2796
GlyphClass: 2
Flags: MW
LayerCount: 2
Fore
SplineSet
436 859 m 0,0,1
 436 812 436 812 403 777 c 1,2,3
 384 762 384 762 364.5 754.5 c 128,-1,4
 345 747 345 747 322 747 c 0,5,6
 276 747 276 747 240 780 c 0,7,8
 208.001 815 208.001 815 208 859 c 0,9,10
 208 911 208 911 240 939 c 0,11,12
 274 973 274 973 322 973 c 256,13,14
 370 973 370 973 403 939 c 0,15,16
 436 911 436 911 436 859 c 0,0,1
483 -11 m 0,17,18
 483 -248 483 -248 176 -352 c 1,19,-1
 176 -304 l 1,20,21
 261.999 -280 261.999 -280 328 -213 c 0,22,23
 397 -138 397 -138 397 -42 c 0,24,25
 397 0 397 0 374 0 c 0,26,27
 366 0 366 0 355.5 -3.5 c 128,-1,28
 345 -7 345 -7 330 -14 c 0,29,30
 315 -22 315 -22 304.5 -26.5 c 128,-1,31
 294 -31 294 -31 285 -31 c 0,32,33
 175.999 -31 175.999 -31 176 83 c 0,34,35
 176 138.001 176 138.001 216 171 c 0,36,37
 258 205.001 258 205.001 310 205 c 0,38,39
 375 205 375 205 425 152 c 0,40,41
 483 89 483 89 483 -11 c 0,17,18
EndSplineSet
Validated: 1
EndChar

StartChar: less
Encoding: 60 60 32
Width: 2027
VWidth: 2796
GlyphClass: 2
Flags: MW
LayerCount: 2
Fore
SplineSet
406 545 m 1,0,-1
 406 672 l 1,1,-1
 1622 1139 l 1,2,-1
 1622 1012 l 1,3,-1
 534 609 l 1,4,-1
 1622 205 l 1,5,-1
 1622 78 l 1,6,-1
 406 545 l 1,0,-1
EndSplineSet
Validated: 1
EndChar

StartChar: equal
Encoding: 61 61 33
Width: 1249
VWidth: 2796
GlyphClass: 2
Flags: MW
LayerCount: 2
Fore
SplineSet
51 377 m 1,0,-1
 51 464 l 1,1,-1
 1191 464 l 1,2,-1
 1191 377 l 1,3,-1
 51 377 l 1,0,-1
51 685 m 1,4,-1
 51 771 l 1,5,-1
 1191 771 l 1,6,-1
 1191 685 l 1,7,-1
 51 685 l 1,4,-1
EndSplineSet
EndChar

StartChar: greater
Encoding: 62 62 34
Width: 2027
VWidth: 2796
GlyphClass: 2
Flags: MW
LayerCount: 2
Fore
SplineSet
406 78 m 1,0,-1
 406 205 l 1,1,-1
 1494 609 l 1,2,-1
 406 1012 l 1,3,-1
 406 1139 l 1,4,-1
 1622 672 l 1,5,-1
 1622 545 l 1,6,-1
 406 78 l 1,0,-1
EndSplineSet
Validated: 1
EndChar

StartChar: question
Encoding: 63 63 35
Width: 936
VWidth: 2796
GlyphClass: 2
Flags: MW
LayerCount: 2
Fore
SplineSet
853 1102 m 0,0,1
 853 1024 853 1024 826 962 c 128,-1,2
 799 900 799 900 757 844 c 128,-1,3
 715 788 715 788 666 734.5 c 128,-1,4
 617 681 617 681 574 621 c 128,-1,5
 531 561 531 561 501 490 c 128,-1,6
 471 419 471 419 467 328 c 1,7,-1
 425 328 l 1,8,9
 429 452 429 452 465 563 c 128,-1,10
 501 674 501 674 565 780 c 0,11,12
 605 849 605 849 632 926.5 c 128,-1,13
 659 1004 659 1004 659 1088 c 0,14,15
 659 1142.99 659 1142.99 645 1193.5 c 128,-1,16
 631 1244.01 631 1244.01 601.5 1283.5 c 128,-1,17
 572 1322.99 572 1322.99 527.5 1347 c 128,-1,18
 483 1371 483 1371 422 1371 c 0,19,20
 393 1371 393 1371 359 1363.5 c 128,-1,21
 325 1356 325 1356 295.5 1339.5 c 128,-1,22
 266.007 1323 266.007 1323 246.5 1297 c 128,-1,23
 227 1271.01 227 1271.01 227 1236 c 0,24,25
 227 1214.99 227 1214.99 237 1190.5 c 128,-1,26
 247.02 1165.96 247.02 1165.96 258.5 1142 c 2,27,-1
 280.5 1095.5 l 2,28,29
 291 1073 291 1073 291 1057 c 0,30,31
 291 1022.99 291 1022.99 268.5 997 c 128,-1,32
 246 971 246 971 210 971 c 0,33,34
 180 971 180 971 158.5 986.5 c 128,-1,35
 137.001 1002 137.001 1002 122.5 1026 c 128,-1,36
 107.999 1050 107.999 1050 102 1078.5 c 128,-1,37
 96 1107 96 1107 96 1132 c 0,38,39
 96 1208.01 96 1208.01 128.5 1264 c 128,-1,40
 161.001 1319.99 161.001 1319.99 213.5 1355.5 c 128,-1,41
 266 1391.01 266 1391.01 332.5 1408 c 128,-1,42
 399.019 1425 399.019 1425 467 1425 c 0,43,44
 542 1425 542 1425 611.5 1406 c 128,-1,45
 681 1386.99 681 1386.99 735 1347.5 c 128,-1,46
 789 1308.01 789 1308.01 821 1247 c 128,-1,47
 853 1185.99 853 1185.99 853 1102 c 0,0,1
568 86 m 0,48,49
 568 38 568 38 534.5 5.5 c 128,-1,50
 501 -27 501 -27 453 -27 c 256,51,52
 406 -27 406 -27 371 4 c 128,-1,53
 336 35 336 35 336 86 c 0,54,55
 336 111.001 336 111.001 345.5 132.5 c 128,-1,56
 355 153.999 355 153.999 371.5 170 c 128,-1,57
 388 186.001 388 186.001 409 195.5 c 128,-1,58
 430 204.999 430 204.999 453 205 c 0,59,60
 501 205 501 205 534.5 170 c 128,-1,61
 568 135.001 568 135.001 568 86 c 0,48,49
EndSplineSet
Validated: 1
EndChar

StartChar: at
Encoding: 64 64 36
Width: 1942
VWidth: 2796
GlyphClass: 2
Flags: MW
LayerCount: 2
Fore
SplineSet
1890 176 m 1,0,1
 1849.99 30.0001 1849.99 30.0001 1760 -86.5 c 128,-1,2
 1670 -203.001 1670 -203.001 1549 -285 c 128,-1,3
 1427.99 -367 1427.99 -367 1285.5 -411.5 c 128,-1,4
 1143 -456 1143 -456 998 -456 c 0,5,6
 801 -456 801 -456 636.5 -385.5 c 128,-1,7
 472 -315 472 -315 353.5 -192.5 c 128,-1,8
 235 -69.9995 235 -69.9995 168 97.5 c 128,-1,9
 100.999 265.001 100.999 265.001 101 459 c 0,10,11
 101 668 101 668 173.5 850 c 128,-1,12
 245.999 1032 245.999 1032 375 1168.5 c 128,-1,13
 504 1305 504 1305 682 1383.5 c 128,-1,14
 860 1461.99 860 1461.99 1073 1462 c 0,15,16
 1233.99 1462 1233.99 1462 1369.5 1413.5 c 128,-1,17
 1504.99 1365.01 1504.99 1365.01 1602.5 1274.5 c 128,-1,18
 1700 1184.01 1700 1184.01 1754.5 1053.5 c 128,-1,19
 1808.99 923 1808.99 923 1809 758 c 0,20,21
 1809 676 1809 676 1793.5 590 c 128,-1,22
 1778.01 504 1778.01 504 1746.5 423.5 c 128,-1,23
 1715 343 1715 343 1667 272 c 128,-1,24
 1619 201.001 1619 201.001 1556.5 148.5 c 128,-1,25
 1493.99 96 1493.99 96 1414.5 65 c 128,-1,26
 1335 34 1335 34 1241 34 c 0,27,28
 1166 34 1166 34 1125.5 69.5 c 128,-1,29
 1085 105 1085 105 1085 182 c 0,30,31
 1085 217 1085 217 1090 253 c 128,-1,32
 1094.99 289 1094.99 289 1102 325 c 1,33,-1
 1022.5 236.5 l 2,34,35
 976 185.999 976 185.999 921.5 141 c 128,-1,36
 867 96 867 96 809.5 65 c 128,-1,37
 752.001 34 752.001 34 696 34 c 0,38,39
 649 34 649 34 614 55 c 128,-1,40
 579 76 579 76 556.5 110.5 c 128,-1,41
 534 145 534 145 523 186.5 c 128,-1,42
 512 228.001 512 228.001 512 269 c 0,43,44
 512 336 512 336 533 416 c 128,-1,45
 554 496 554 496 592.5 575.5 c 128,-1,46
 631 655 631 655 683.5 731 c 128,-1,47
 736 807 736 807 798 865 c 128,-1,48
 860 923 860 923 931 958 c 128,-1,49
 1002 993 1002 993 1076 993 c 0,50,51
 1224.99 993 1224.99 993 1256 851 c 1,52,-1
 1286 963 l 1,53,-1
 1449 987 l 1,54,55
 1443 971 1443 971 1425.5 911.5 c 2,56,-1
 1384 770.5 l 1,57,-1
 1333.5 596.5 l 1,58,-1
 1284.5 420 l 2,59,60
 1262.03 336.116 1262.03 336.116 1247.5 271 c 128,-1,61
 1232.99 206.001 1232.99 206.001 1233 182 c 0,62,63
 1233 150.001 1233 150.001 1257 128 c 128,-1,64
 1281 106 1281 106 1312 106 c 0,65,66
 1356 106 1356 106 1395.5 121.5 c 128,-1,67
 1435.02 137.008 1435.02 137.008 1470 162 c 128,-1,68
 1505 187 1505 187 1535 219 c 128,-1,69
 1565 251 1565 251 1591 284 c 0,70,71
 1673.01 390 1673.01 390 1709 517 c 128,-1,72
 1745 644 1745 644 1745 777 c 0,73,74
 1745 923 1745 923 1693.5 1040.5 c 128,-1,75
 1642.01 1157.99 1642.01 1157.99 1553 1240.5 c 128,-1,76
 1464.01 1323 1464.01 1323 1342.5 1367.5 c 128,-1,77
 1221 1412.01 1221 1412.01 1080 1412 c 0,78,79
 945 1412 945 1412 826 1374.5 c 128,-1,80
 707 1337 707 1337 609 1270.5 c 128,-1,81
 511 1204.01 511 1204.01 433.5 1112 c 128,-1,82
 356 1020.01 356 1020.01 303.5 910.5 c 128,-1,83
 251 801 251 801 223 679 c 128,-1,84
 194.999 557 194.999 557 195 430 c 0,85,86
 195 248 195 248 253 97.5 c 128,-1,87
 311 -53 311 -53 417 -161.5 c 128,-1,88
 523 -269.999 523 -269.999 672.5 -331 c 128,-1,89
 822 -392 822 -392 1004 -392 c 0,90,91
 1148 -392 1148 -392 1274.5 -351.5 c 128,-1,92
 1400.99 -311 1400.99 -311 1505.5 -237.5 c 128,-1,93
 1610.01 -164 1610.01 -164 1692 -59 c 128,-1,94
 1774.01 46 1774.01 46 1831 176 c 1,95,-1
 1890 176 l 1,0,1
1217 777 m 0,96,97
 1217 810.028 1217 810.028 1211.5 840 c 128,-1,98
 1205.99 870.024 1205.99 870.024 1191.5 894 c 128,-1,99
 1176.99 918 1176.99 918 1151.5 931.5 c 128,-1,100
 1126 945 1126 945 1088 945 c 0,101,102
 1038 945 1038 945 986.5 910 c 128,-1,103
 935 875 935 875 889.5 818.5 c 128,-1,104
 844 762 844 762 804.5 691.5 c 128,-1,105
 765 621 765 621 736 549.5 c 128,-1,106
 707 478 707 478 690.5 412.5 c 128,-1,107
 674 347 674 347 674 302 c 0,108,109
 674 277 674 277 681.5 251 c 128,-1,110
 689 225.001 689 225.001 704.5 204 c 128,-1,111
 720 183 720 183 741.5 170 c 128,-1,112
 763 156.999 763 156.999 792 157 c 0,113,114
 849 157 849 157 903 189 c 128,-1,115
 957 220.999 957 220.999 1004 273.5 c 128,-1,116
 1051.01 326.017 1051.01 326.017 1090 393 c 128,-1,117
 1129 460 1129 460 1157 529 c 128,-1,118
 1185 598 1185 598 1201 663 c 128,-1,119
 1217.01 728 1217.01 728 1217 777 c 0,96,97
EndSplineSet
Validated: 1
EndChar

StartChar: A
Encoding: 65 65 37
Width: 1515
VWidth: 2796
GlyphClass: 2
Flags: MW
LayerCount: 2
Fore
SplineSet
948 0 m 1,0,-1
 948 40 l 1,1,2
 971 40 971 40 995.5 43 c 128,-1,3
 1019.99 46 1019.99 46 1040.5 56 c 128,-1,4
 1061 65.996 1061 65.996 1074.5 83 c 128,-1,5
 1088 99.9999 1088 99.9999 1088 128 c 256,6,7
 1088 156.001 1088 156.001 1071.5 205 c 128,-1,8
 1054.97 254.082 1054.97 254.082 1034.5 306 c 0,9,10
 1013.93 358.159 1013.93 358.159 993.5 403 c 128,-1,11
 973 448 973 448 965 467 c 1,12,-1
 425 467 l 1,13,14
 419 456 419 456 407.5 431 c 2,15,-1
 381 373.5 l 1,16,-1
 351 305.5 l 2,17,18
 336.001 270.002 336.001 270.002 323 236 c 128,-1,19
 310 201.999 310 201.999 302 173.5 c 128,-1,20
 294 145 294 145 294 128 c 0,21,22
 294 101 294 101 311.5 84 c 128,-1,23
 329 67.0001 329 67.0001 355 57.5 c 128,-1,24
 380.999 48.0001 380.999 48.0001 408.5 44.5 c 128,-1,25
 436 41 436 41 456 40 c 1,26,-1
 456 0 l 1,27,-1
 16 0 l 1,28,-1
 16 40 l 1,29,30
 68 42 68 42 104.5 64.5 c 128,-1,31
 140.999 87 140.999 87 166 120.5 c 128,-1,32
 191.001 153.999 191.001 153.999 210 195 c 128,-1,33
 229 236 229 236 246 277 c 2,34,-1
 739 1425 l 1,35,-1
 774 1425 l 1,36,-1
 1259 269 l 2,37,38
 1278.9 221.226 1278.9 221.226 1297.5 181 c 0,39,40
 1315.98 141.029 1315.98 141.029 1342 110 c 128,-1,41
 1367.99 78.9999 1367.99 78.9999 1405 60.5 c 128,-1,42
 1442.01 42 1442.01 42 1499 40 c 1,43,-1
 1499 0 l 1,44,-1
 948 0 l 1,0,-1
699 1110 m 1,45,-1
 456 542 l 1,46,-1
 937 542 l 1,47,-1
 699 1110 l 1,45,-1
EndSplineSet
Validated: 1
EndChar

StartChar: B
Encoding: 66 66 38
Width: 1370
VWidth: 2796
GlyphClass: 2
Flags: MW
LayerCount: 2
Fore
SplineSet
1289 381 m 0,0,1
 1289 299 1289 299 1263 238 c 128,-1,2
 1237.01 176.999 1237.01 176.999 1192 135 c 128,-1,3
 1147 93 1147 93 1087.5 66.5 c 128,-1,4
 1027.99 39.9979 1027.99 39.9979 962 25.5 c 128,-1,5
 896 10.9999 896 10.9999 827 5.5 c 128,-1,6
 758 -4.76837e-06 758 -4.76837e-06 694 0 c 2,7,-1
 37 0 l 1,8,-1
 37 40 l 1,9,10
 102 40 102 40 141 48.5 c 128,-1,11
 180 57 180 57 200.5 79.5 c 128,-1,12
 221.001 102 221.001 102 228 142.5 c 128,-1,13
 235.001 183 235.001 183 235 246 c 2,14,-1
 235 1150 l 2,15,16
 235 1214.99 235 1214.99 229.5 1255.5 c 128,-1,17
 223.999 1296 223.999 1296 203.5 1319 c 128,-1,18
 182.999 1341.99 182.999 1341.99 143.5 1350.5 c 128,-1,19
 104.024 1359 104.024 1359 37 1359 c 1,20,-1
 37 1395 l 1,21,-1
 638 1395 l 2,22,23
 702.063 1395 702.063 1395 770 1389.5 c 128,-1,24
 838 1383.99 838 1383.99 903.5 1370 c 128,-1,25
 968.956 1356.01 968.956 1356.01 1028 1330 c 128,-1,26
 1086.99 1304.01 1086.99 1304.01 1131.5 1262.5 c 128,-1,27
 1176 1221 1176 1221 1201.5 1161.5 c 128,-1,28
 1227 1101.99 1227 1101.99 1227 1021 c 0,29,30
 1227 963 1227 963 1207.5 913.5 c 128,-1,31
 1188 864 1188 864 1154 825 c 128,-1,32
 1119.99 786 1119.99 786 1073.5 757.5 c 128,-1,33
 1027 729 1027 729 973 713 c 1,34,35
 1043.01 700 1043.01 700 1100.5 675 c 128,-1,36
 1157.99 650 1157.99 650 1200 609.5 c 128,-1,37
 1242 569 1242 569 1265.5 512.5 c 128,-1,38
 1289.01 456 1289.01 456 1289 381 c 0,0,1
1009 1032 m 0,39,40
 1009 1114.01 1009 1114.01 974 1170 c 128,-1,41
 939 1225.99 939 1225.99 884 1261 c 128,-1,42
 829 1295.99 829 1295.99 760 1311 c 128,-1,43
 691 1326 691 1326 621 1326 c 0,44,45
 573 1326 573 1326 526 1321 c 128,-1,46
 479 1316 479 1316 433 1305 c 1,47,-1
 433 769 l 1,48,49
 482 758 482 758 532 756.5 c 128,-1,50
 582 755 582 755 629 755 c 0,51,52
 702 755 702 755 770 766.5 c 128,-1,53
 838 778 838 778 891.5 809.5 c 128,-1,54
 945 841 945 841 977 895 c 128,-1,55
 1009 949 1009 949 1009 1032 c 0,39,40
1051 366 m 0,56,57
 1051 456 1051 456 1011.5 517 c 128,-1,58
 972 578 972 578 910 614.5 c 128,-1,59
 848 651 848 651 770 667 c 128,-1,60
 692 683 692 683 616 683 c 2,61,-1
 524.5 683 l 2,62,63
 477 683 477 683 433 674 c 1,64,-1
 433 101 l 1,65,66
 493 87.0001 493 87.0001 551.5 79.5 c 128,-1,67
 610 72 610 72 672 72 c 0,68,69
 741 72 741 72 809 88 c 128,-1,70
 877 104 877 104 930.5 138.5 c 128,-1,71
 984 173 984 173 1017.5 229 c 128,-1,72
 1050.99 285 1050.99 285 1051 366 c 0,56,57
EndSplineSet
Validated: 1
EndChar

StartChar: C
Encoding: 67 67 39
Width: 1406
VWidth: 2796
GlyphClass: 2
Flags: MW
LayerCount: 2
Fore
SplineSet
1331 328 m 1,0,1
 1236.99 158.001 1236.99 158.001 1094.5 62 c 128,-1,2
 952 -34 952 -34 755 -34 c 0,3,4
 599 -34 599 -34 473.5 20.5 c 128,-1,5
 348 75 348 75 259.5 170.5 c 128,-1,6
 171 266.001 171 266.001 123 396 c 128,-1,7
 75 526 75 526 75 677 c 0,8,9
 75 833 75 833 126 969 c 128,-1,10
 177 1105.01 177 1105.01 271 1206.5 c 128,-1,11
 365 1308.01 365 1308.01 495 1366.5 c 128,-1,12
 625 1425 625 1425 785 1425 c 0,13,14
 838 1425 838 1425 884 1417.5 c 128,-1,15
 930 1410 930 1410 973 1398 c 128,-1,16
 1016 1386 1016 1386 1058 1369 c 128,-1,17
 1100 1352 1100 1352 1147 1331 c 1,18,19
 1166.99 1331 1166.99 1331 1182 1340.5 c 128,-1,20
 1196.98 1349.98 1196.98 1349.98 1207 1364 c 128,-1,21
 1217 1378 1217 1378 1223 1395 c 128,-1,22
 1229 1412 1229 1412 1233 1425 c 1,23,-1
 1270 1425 l 1,24,-1
 1300 953 l 1,25,-1
 1270 953 l 1,26,27
 1244.01 1040 1244.01 1040 1203.5 1113 c 128,-1,28
 1163.01 1185.99 1163.01 1185.99 1106.5 1239.5 c 128,-1,29
 1049.99 1293.01 1049.99 1293.01 975 1323 c 128,-1,30
 900 1353 900 1353 803 1353 c 0,31,32
 707 1353 707 1353 634 1325 c 128,-1,33
 561 1296.99 561 1296.99 506 1248 c 128,-1,34
 450.987 1198.98 450.987 1198.98 413 1133.5 c 128,-1,35
 374.993 1067.98 374.993 1067.98 352.5 992 c 128,-1,36
 330 916 330 916 320 835 c 128,-1,37
 310 754 310 754 310 674 c 0,38,39
 310 550 310 550 340 438 c 128,-1,40
 370 326 370 326 433.5 241.5 c 128,-1,41
 497 157.001 497 157.001 596 108 c 128,-1,42
 695 58.9999 695 58.9999 833 59 c 0,43,44
 920 59 920 59 986.5 79.5 c 128,-1,45
 1052.99 100 1052.99 100 1107 137.5 c 128,-1,46
 1160.99 174.991 1160.99 174.991 1207 229 c 128,-1,47
 1253.01 283 1253.01 283 1300 350 c 1,48,-1
 1331 328 l 1,0,1
EndSplineSet
Validated: 1
EndChar

StartChar: D
Encoding: 68 68 40
Width: 1520
VWidth: 2796
GlyphClass: 2
Flags: MW
LayerCount: 2
Fore
SplineSet
1440 705 m 0,0,1
 1440 527 1440 527 1381.5 395.5 c 128,-1,2
 1323 264 1323 264 1218.5 175.5 c 128,-1,3
 1113.99 87 1113.99 87 970.5 43.5 c 128,-1,4
 827 0 827 0 659 0 c 2,5,-1
 37 0 l 1,6,-1
 37 40 l 1,7,8
 102 40 102 40 141 48 c 128,-1,9
 180 56 180 56 200.5 78.5 c 128,-1,10
 221.001 101 221.001 101 228 141.5 c 128,-1,11
 235.001 182 235.001 182 235 246 c 2,12,-1
 235 1150 l 2,13,14
 235 1214.99 235 1214.99 229.5 1256 c 128,-1,15
 223.999 1296.99 223.999 1296.99 203.5 1319.5 c 128,-1,16
 182.999 1342 182.999 1342 143.5 1350.5 c 128,-1,17
 104.024 1359 104.024 1359 37 1359 c 1,18,-1
 37 1395 l 1,19,-1
 603 1395 l 2,20,21
 780 1395 780 1395 932.5 1362.5 c 128,-1,22
 1085.01 1329.99 1085.01 1329.99 1198 1250 c 128,-1,23
 1310.99 1170.01 1310.99 1170.01 1375.5 1037.5 c 128,-1,24
 1440 905 1440 905 1440 705 c 0,0,1
1208 696 m 0,25,26
 1208 826 1208 826 1172 938.5 c 128,-1,27
 1136 1051 1136 1051 1064.5 1136 c 128,-1,28
 992.995 1221.01 992.995 1221.01 888.5 1269.5 c 128,-1,29
 784 1317.99 784 1317.99 646 1318 c 0,30,31
 590.969 1318 590.969 1318 538.5 1309.5 c 128,-1,32
 485.957 1300.99 485.957 1300.99 433 1286 c 1,33,-1
 433 101 l 1,34,35
 486 90.0001 486 90.0001 541.5 80 c 128,-1,36
 597 69.9999 597 69.9999 651 70 c 0,37,38
 788 70 788 70 891.5 119.5 c 128,-1,39
 995 169 995 169 1065.5 254.5 c 128,-1,40
 1136 340 1136 340 1172 454 c 128,-1,41
 1208 568 1208 568 1208 696 c 0,25,26
EndSplineSet
Validated: 1
EndChar

StartChar: E
Encoding: 69 69 41
Width: 1286
VWidth: 2796
GlyphClass: 2
Flags: MW
LayerCount: 2
Fore
SplineSet
1118 0 m 1,0,-1
 45 0 l 1,1,-1
 45 40 l 1,2,3
 111 40 111 40 149.5 48 c 128,-1,4
 188.001 56 188.001 56 208.5 78.5 c 128,-1,5
 229.001 101 229.001 101 236 141.5 c 128,-1,6
 243.001 182 243.001 182 243 246 c 2,7,-1
 243 1155 l 2,8,9
 243 1221 243 1221 237.5 1260.5 c 128,-1,10
 231.998 1300.01 231.998 1300.01 211.5 1321.5 c 128,-1,11
 190.988 1343.01 190.988 1343.01 151.5 1351 c 128,-1,12
 111.975 1359 111.975 1359 45 1359 c 1,13,-1
 45 1395 l 1,14,-1
 1118 1395 l 1,15,-1
 1135 1091 l 1,16,-1
 1096 1091 l 1,17,18
 1079.01 1158.01 1079.01 1158.01 1063 1202.5 c 128,-1,19
 1046.99 1247.01 1046.99 1247.01 1020.5 1272.5 c 128,-1,20
 993.995 1298 993.995 1298 948 1309 c 128,-1,21
 902 1319.99 902 1319.99 825 1320 c 2,22,-1
 440 1320 l 1,23,-1
 440 769 l 1,24,-1
 747 769 l 2,25,26
 811 769 811 769 850 777.5 c 128,-1,27
 889 786 889 786 913 808.5 c 128,-1,28
 937 831 937 831 948.5 870 c 128,-1,29
 960 909 960 909 968 971 c 1,30,-1
 1006 971 l 1,31,-1
 1006 483 l 1,32,-1
 968 483 l 1,33,34
 960 545 960 545 948.5 584.5 c 128,-1,35
 937 624 937 624 913.5 648 c 128,-1,36
 890 672 890 672 851 681.5 c 128,-1,37
 812 691 812 691 747 691 c 2,38,-1
 440 691 l 1,39,-1
 440 232 l 2,40,41
 440 194.001 440 194.001 441 164.5 c 128,-1,42
 442 134.999 442 134.999 452.5 115.5 c 128,-1,43
 463 96 463 96 487.5 85.5 c 128,-1,44
 512 75 512 75 557 75 c 2,45,-1
 792 75 l 2,46,47
 883 75 883 75 942 90 c 128,-1,48
 1001 105 1001 105 1044 138 c 128,-1,49
 1086.98 170.985 1086.98 170.985 1121 223.5 c 128,-1,50
 1154.96 275.933 1154.96 275.933 1197 350 c 1,51,-1
 1241 350 l 1,52,-1
 1118 0 l 1,0,-1
EndSplineSet
Validated: 1
EndChar

StartChar: F
Encoding: 70 70 42
Width: 1171
VWidth: 2796
GlyphClass: 2
Flags: MW
LayerCount: 2
Fore
SplineSet
1051 1091 m 1,0,1
 1031.02 1158.96 1031.02 1158.96 1006.5 1203.5 c 128,-1,2
 982 1248.01 982 1248.01 946.5 1274 c 128,-1,3
 911 1299.99 911 1299.99 861 1310 c 128,-1,4
 811 1320 811 1320 741 1320 c 2,5,-1
 430 1320 l 1,6,-1
 430 771 l 1,7,-1
 685 771 l 2,8,9
 737 771 737 771 769 783.5 c 128,-1,10
 801 796 801 796 821 820.5 c 128,-1,11
 841 845 841 845 851.5 880.5 c 128,-1,12
 862 916 862 916 867 963 c 1,13,-1
 907 963 l 1,14,-1
 907 489 l 1,15,-1
 867 489 l 1,16,17
 867 538 867 538 858 575 c 128,-1,18
 849 612 849 612 828 636.5 c 128,-1,19
 807 661 807 661 772 673 c 128,-1,20
 737 685 737 685 685 685 c 2,21,-1
 430 685 l 1,22,-1
 430 246 l 2,23,24
 430 181.999 430 181.999 436 141.5 c 128,-1,25
 442 101 442 101 463.5 78.5 c 128,-1,26
 485 56 485 56 525 48 c 128,-1,27
 565 40 565 40 632 40 c 1,28,-1
 632 0 l 1,29,-1
 34 0 l 1,30,-1
 34 40 l 1,31,32
 101 40 101 40 140.5 48.5 c 128,-1,33
 179.999 57 179.999 57 200.5 79.5 c 128,-1,34
 221.001 102 221.001 102 226.5 142.5 c 128,-1,35
 232.001 183 232.001 183 232 246 c 2,36,-1
 232 1150 l 2,37,38
 232 1211.99 232 1211.99 226 1252.5 c 128,-1,39
 220 1293 220 1293 199.5 1317 c 128,-1,40
 178.999 1341 178.999 1341 139.5 1350 c 128,-1,41
 100.001 1359 100.001 1359 34 1359 c 1,42,-1
 34 1395 l 1,43,-1
 1073 1395 l 1,44,-1
 1088 1091 l 1,45,-1
 1051 1091 l 1,0,1
EndSplineSet
Validated: 1
EndChar

StartChar: G
Encoding: 71 71 43
Width: 1520
VWidth: 2796
GlyphClass: 2
Flags: MW
LayerCount: 2
Fore
SplineSet
1494 724 m 1,0,1
 1435.99 724 1435.99 724 1405 710 c 128,-1,2
 1373.99 696 1373.99 696 1358.5 670 c 128,-1,3
 1343.01 644 1343.01 644 1340 606 c 128,-1,4
 1337 568 1337 568 1337 520 c 2,5,-1
 1337 93 l 1,6,7
 1224.99 27 1224.99 27 1100 -3.5 c 128,-1,8
 975.005 -34 975.005 -34 844 -34 c 0,9,10
 684 -34 684 -34 543.5 13.5 c 128,-1,11
 403 61 403 61 298.5 152.5 c 128,-1,12
 193.999 244 193.999 244 133 376 c 128,-1,13
 71.9999 508 71.9999 508 72 677 c 0,14,15
 72 833 72 833 129 969.5 c 128,-1,16
 186 1106 186 1106 285.5 1207.5 c 128,-1,17
 385 1309.01 385 1309.01 521 1367 c 128,-1,18
 657 1425.01 657 1425.01 814 1425 c 0,19,20
 882 1425 882 1425 948 1415 c 128,-1,21
 1014 1404.99 1014 1404.99 1080 1382 c 1,22,23
 1083 1382 1083 1382 1102 1375 c 128,-1,24
 1120.91 1368.03 1120.91 1368.03 1143.5 1360.5 c 128,-1,25
 1166.09 1352.97 1166.09 1352.97 1185 1346 c 128,-1,26
 1204 1339 1204 1339 1206 1339 c 0,27,28
 1221.01 1339 1221.01 1339 1230.5 1349.5 c 128,-1,29
 1240 1360.01 1240 1360.01 1246 1373.5 c 128,-1,30
 1251.99 1386.98 1251.99 1386.98 1254.5 1401.5 c 128,-1,31
 1257 1415.98 1257 1415.98 1259 1425 c 1,32,-1
 1294 1425 l 1,33,-1
 1331 987 l 1,34,-1
 1294 987 l 1,35,36
 1267 1072.01 1267 1072.01 1226 1139.5 c 128,-1,37
 1185.01 1206.99 1185.01 1206.99 1129 1255.5 c 128,-1,38
 1073.01 1303.99 1073.01 1303.99 999.5 1330 c 128,-1,39
 926 1355.99 926 1355.99 833 1356 c 0,40,41
 696 1356 696 1356 598 1302.5 c 128,-1,42
 500 1248.99 500 1248.99 435.5 1160.5 c 128,-1,43
 371 1072 371 1072 340.5 957 c 128,-1,44
 310 842 310 842 310 721 c 256,45,46
 310 599 310 599 342 477.5 c 128,-1,47
 374 356 374 356 440.5 258.5 c 128,-1,48
 507 161 507 161 608 100.5 c 128,-1,49
 709 40 709 40 848 40 c 0,50,51
 923 40 923 40 996 58 c 128,-1,52
 1069 76 1069 76 1135 115 c 1,53,-1
 1135 520 l 2,54,55
 1135 578.035 1135 578.035 1129.5 616 c 128,-1,56
 1123.99 654 1123.99 654 1104.5 677 c 128,-1,57
 1085 700 1085 700 1049.5 711 c 128,-1,58
 1013.99 722 1013.99 722 953 724 c 1,59,-1
 953 760 l 1,60,-1
 1494 760 l 1,61,-1
 1494 724 l 1,0,1
EndSplineSet
Validated: 1
EndChar

StartChar: H
Encoding: 72 72 44
Width: 1520
VWidth: 2796
GlyphClass: 2
Flags: MW
LayerCount: 2
Fore
SplineSet
881 0 m 1,0,-1
 881 40 l 1,1,2
 946 40 946 40 986.5 48.5 c 128,-1,3
 1027 57 1027 57 1048 79.5 c 128,-1,4
 1069 102 1069 102 1076 142.5 c 128,-1,5
 1083 182.971 1083 182.971 1083 246 c 2,6,-1
 1083 674 l 1,7,-1
 430 674 l 1,8,-1
 430 246 l 2,9,10
 430 181.999 430 181.999 437 141.5 c 128,-1,11
 444 101 444 101 465.5 78.5 c 128,-1,12
 487 56 487 56 527.5 48 c 128,-1,13
 568 40 568 40 635 40 c 1,14,-1
 635 0 l 1,15,-1
 37 0 l 1,16,-1
 37 40 l 1,17,18
 104 40 104 40 143.5 48 c 128,-1,19
 182.999 56 182.999 56 203.5 78.5 c 128,-1,20
 224.001 101 224.001 101 229.5 141.5 c 128,-1,21
 235.001 182 235.001 182 235 246 c 2,22,-1
 235 1150 l 2,23,24
 235 1214.01 235 1214.01 229 1254 c 128,-1,25
 223.002 1293.99 223.002 1293.99 202.5 1317.5 c 128,-1,26
 181.999 1341.01 181.999 1341.01 142 1350 c 128,-1,27
 101.999 1359 101.999 1359 37 1359 c 1,28,-1
 37 1395 l 1,29,-1
 635 1395 l 1,30,-1
 635 1359 l 1,31,32
 569 1359 569 1359 529.5 1350 c 128,-1,33
 490 1341 490 1341 467.5 1317.5 c 128,-1,34
 444.998 1293.99 444.998 1293.99 437.5 1254 c 128,-1,35
 430 1213.99 430 1213.99 430 1150 c 2,36,-1
 430 750 l 1,37,-1
 1083 750 l 1,38,-1
 1083 1150 l 2,39,40
 1083 1214 1083 1214 1076 1254 c 128,-1,41
 1069 1294 1069 1294 1048 1317.5 c 128,-1,42
 1027 1341.01 1027 1341.01 986.5 1350 c 128,-1,43
 946 1359 946 1359 881 1359 c 1,44,-1
 881 1395 l 1,45,-1
 1479 1395 l 1,46,-1
 1479 1359 l 1,47,48
 1417 1359 1417 1359 1378 1351 c 128,-1,49
 1339.01 1343.01 1339.01 1343.01 1316.5 1323 c 128,-1,50
 1294 1303 1294 1303 1286 1265 c 128,-1,51
 1278 1227 1278 1227 1278 1166 c 2,52,-1
 1281 232 l 2,53,54
 1281 169 1281 169 1289 131 c 128,-1,55
 1296.99 93.0005 1296.99 93.0005 1318 72.5 c 128,-1,56
 1339 52 1339 52 1378 46 c 128,-1,57
 1417 40 1417 40 1479 40 c 1,58,-1
 1479 0 l 1,59,-1
 881 0 l 1,0,-1
EndSplineSet
Validated: 1
EndChar

StartChar: I
Encoding: 73 73 45
Width: 701
VWidth: 2796
GlyphClass: 2
Flags: MW
LayerCount: 2
Fore
SplineSet
53 0 m 1,0,-1
 53 40 l 1,1,2
 120 40 120 40 159.5 48.5 c 128,-1,3
 198.999 57 198.999 57 219.5 79.5 c 128,-1,4
 240.001 102 240.001 102 245.5 142.5 c 128,-1,5
 251.001 183 251.001 183 251 246 c 2,6,-1
 251 1150 l 2,7,8
 251 1214.01 251 1214.01 245.5 1254 c 128,-1,9
 240.001 1293.99 240.001 1293.99 219.5 1317.5 c 128,-1,10
 198.999 1341.01 198.999 1341.01 159.5 1350 c 128,-1,11
 120.001 1359 120.001 1359 53 1359 c 1,12,-1
 53 1395 l 1,13,-1
 651 1395 l 1,14,-1
 651 1359 l 1,15,16
 586 1359 586 1359 546.5 1350 c 128,-1,17
 507 1341 507 1341 485.5 1317.5 c 128,-1,18
 463.997 1293.99 463.997 1293.99 457.5 1254 c 128,-1,19
 451 1213.99 451 1213.99 451 1150 c 2,20,-1
 451 246 l 2,21,22
 451 183 451 183 457 142.5 c 128,-1,23
 463 102 463 102 483.5 79.5 c 128,-1,24
 504 57 504 57 543.5 48.5 c 128,-1,25
 583 40 583 40 651 40 c 1,26,-1
 651 0 l 1,27,-1
 53 0 l 1,0,-1
EndSplineSet
Validated: 1
EndChar

StartChar: J
Encoding: 74 74 46
Width: 821
VWidth: 2796
GlyphClass: 2
Flags: MW
LayerCount: 2
Fore
SplineSet
808 1359 m 1,0,1
 741 1359 741 1359 701.5 1350 c 128,-1,2
 662 1341 662 1341 641.5 1317.5 c 128,-1,3
 620.998 1293.99 620.998 1293.99 615 1254 c 128,-1,4
 609 1213.99 609 1213.99 609 1150 c 2,5,-1
 609 467 l 2,6,7
 609 380 609 380 592.5 291 c 128,-1,8
 576 202.001 576 202.001 535 129.5 c 128,-1,9
 494 57.0001 494 57.0001 425 11.5 c 128,-1,10
 356 -34 356 -34 251 -34 c 0,11,12
 216.001 -34 216.001 -34 179 -25 c 128,-1,13
 141.999 -16 141.999 -16 112.5 3.5 c 128,-1,14
 82.9999 23 82.9999 23 64 53 c 128,-1,15
 45 83 45 83 45 126 c 0,16,17
 45 232.001 45 232.001 149 232 c 0,18,19
 177.001 232 177.001 232 197 217.5 c 128,-1,20
 216.999 202.999 216.999 202.999 232 182.5 c 128,-1,21
 247 161.999 247 161.999 258 137 c 128,-1,22
 269 111.999 269 111.999 280.5 91.5 c 128,-1,23
 292.002 70.9973 292.002 70.9973 305 56.5 c 128,-1,24
 318 42 318 42 336 42 c 0,25,26
 363 42 363 42 378 59 c 128,-1,27
 393 75.9999 393 75.9999 400.5 100 c 128,-1,28
 408 124 408 124 409.5 150 c 128,-1,29
 411 175.999 411 175.999 411 195 c 2,30,-1
 411 1150 l 2,31,32
 411 1211.99 411 1211.99 405 1252.5 c 128,-1,33
 399 1293 399 1293 378.5 1317 c 128,-1,34
 358 1341 358 1341 318.5 1350 c 128,-1,35
 279 1359 279 1359 210 1359 c 1,36,-1
 210 1395 l 1,37,-1
 808 1395 l 1,38,-1
 808 1359 l 1,0,1
EndSplineSet
Validated: 1
EndChar

StartChar: K
Encoding: 75 75 47
Width: 1520
VWidth: 2796
GlyphClass: 2
Flags: MW
LayerCount: 2
Fore
SplineSet
875 0 m 1,0,-1
 875 40 l 1,1,2
 893 40 893 40 913.5 42.5 c 128,-1,3
 934 45 934 45 951 52.5 c 128,-1,4
 968 60 968 60 979 73.5 c 128,-1,5
 990 87 990 87 990 109 c 0,6,7
 990 119.999 990 119.999 981 136 c 128,-1,8
 972 152.001 972 152.001 959 167.5 c 128,-1,9
 945.99 183.011 945.99 183.011 933 196.5 c 2,10,-1
 912 218 l 1,11,-1
 492 638 l 1,12,-1
 430 576 l 1,13,-1
 430 246 l 2,14,15
 430 181.999 430 181.999 436 141.5 c 128,-1,16
 442 101 442 101 463.5 78.5 c 128,-1,17
 485 56 485 56 524.5 48 c 128,-1,18
 564 40 564 40 629 40 c 1,19,-1
 629 0 l 1,20,-1
 37 0 l 1,21,-1
 37 40 l 1,22,23
 104 40 104 40 143 48 c 128,-1,24
 182 56 182 56 201.5 78.5 c 128,-1,25
 221 101 221 101 226.5 141.5 c 128,-1,26
 232.001 182 232.001 182 232 246 c 2,27,-1
 232 1150 l 2,28,29
 232 1211.99 232 1211.99 226.5 1252.5 c 128,-1,30
 220.999 1293 220.999 1293 201.5 1317 c 128,-1,31
 182 1341 182 1341 143 1350 c 128,-1,32
 104 1359 104 1359 37 1359 c 1,33,-1
 37 1395 l 1,34,-1
 629 1395 l 1,35,-1
 629 1359 l 1,36,37
 565 1359 565 1359 526 1350 c 128,-1,38
 487 1341 487 1341 465.5 1317.5 c 128,-1,39
 443.998 1293.99 443.998 1293.99 437 1254 c 128,-1,40
 430 1213.99 430 1213.99 430 1150 c 2,41,-1
 430 710 l 1,42,-1
 506 776.5 l 1,43,-1
 616 877 l 1,44,-1
 738.5 995 l 2,45,46
 800.954 1056.95 800.954 1056.95 853 1115.5 c 128,-1,47
 904.984 1173.98 904.984 1173.98 938 1222.5 c 128,-1,48
 971 1270.99 971 1270.99 971 1300 c 0,49,50
 971 1324 971 1324 957 1336 c 128,-1,51
 943.01 1347.99 943.01 1347.99 923.5 1353.5 c 128,-1,52
 904.018 1359 904.018 1359 882 1359 c 2,53,-1
 844 1359 l 1,54,-1
 844 1395 l 1,55,-1
 1359 1395 l 1,56,-1
 1359 1359 l 1,57,58
 1282.99 1359 1282.99 1359 1209 1317 c 128,-1,59
 1135.01 1275 1135.01 1275 1068 1215.5 c 128,-1,60
 1000.97 1155.97 1000.97 1155.97 943.5 1093.5 c 2,61,-1
 844 987 l 1,62,-1
 629 774 l 1,63,-1
 1147 264 l 2,64,65
 1190.99 217.999 1190.99 217.999 1234 179.5 c 128,-1,66
 1277.03 140.978 1277.03 140.978 1323 112 c 128,-1,67
 1369.01 83.0001 1369.01 83.0001 1422 64.5 c 128,-1,68
 1474.99 46.0013 1474.99 46.0013 1540 40 c 1,69,-1
 1540 0 l 1,70,-1
 875 0 l 1,0,-1
EndSplineSet
Validated: 1
EndChar

StartChar: L
Encoding: 76 76 48
Width: 1286
VWidth: 2796
GlyphClass: 2
Flags: MW
LayerCount: 2
Fore
SplineSet
1124 0 m 1,0,-1
 40 0 l 1,1,-1
 40 40 l 1,2,3
 89.0001 40 89.0001 40 127 46 c 128,-1,4
 164.999 52 164.999 52 190.5 70.5 c 128,-1,5
 216 88.9999 216 88.9999 229.5 123 c 128,-1,6
 243 157.001 243 157.001 243 213 c 2,7,-1
 243 1182 l 2,8,9
 243 1237.01 243 1237.01 229.5 1271 c 128,-1,10
 216 1305.01 216 1305.01 190.5 1323.5 c 128,-1,11
 165 1341.99 165 1341.99 127 1349 c 128,-1,12
 89 1356 89 1356 40 1356 c 1,13,-1
 40 1395 l 1,14,-1
 646 1395 l 1,15,-1
 646 1356 l 1,16,17
 595 1356 595 1356 557 1349 c 128,-1,18
 519 1341.99 519 1341.99 493 1323.5 c 128,-1,19
 467 1305.01 467 1305.01 453.5 1271 c 128,-1,20
 440 1236.99 440 1236.99 440 1182 c 2,21,-1
 440 264 l 2,22,23
 440 211.999 440 211.999 448 178.5 c 128,-1,24
 456 145.001 456 145.001 476 125 c 128,-1,25
 496 105.001 496 105.001 530 97.5 c 128,-1,26
 564 90 564 90 616 90 c 2,27,-1
 755 90 l 2,28,29
 856 90 856 90 924.5 101.5 c 128,-1,30
 993 113.001 993 113.001 1042.5 145 c 128,-1,31
 1092 176.999 1092 176.999 1130.5 235.5 c 128,-1,32
 1168.99 293.977 1168.99 293.977 1208 386 c 1,33,-1
 1244 381 l 1,34,-1
 1124 0 l 1,0,-1
EndSplineSet
Validated: 1
EndChar

StartChar: M
Encoding: 77 77 49
Width: 1875
VWidth: 2796
GlyphClass: 2
Flags: MW
LayerCount: 2
Fore
SplineSet
1236 0 m 1,0,-1
 1236 40 l 1,1,2
 1300.99 40 1300.99 40 1340 48 c 128,-1,3
 1379 56 1379 56 1400 78.5 c 128,-1,4
 1421 101 1421 101 1428 140.5 c 128,-1,5
 1435 179.971 1435 179.971 1435 243 c 2,6,-1
 1435 1174 l 1,7,-1
 894 0 l 1,8,-1
 862 0 l 1,9,-1
 322 1174 l 1,10,-1
 322 243 l 2,11,12
 322 178.999 322 178.999 329 139.5 c 128,-1,13
 336 100.001 336 100.001 356.5 77.5 c 128,-1,14
 377 55 377 55 416 47.5 c 128,-1,15
 455 40 455 40 520 40 c 1,16,-1
 520 0 l 1,17,-1
 37 0 l 1,18,-1
 37 40 l 1,19,20
 102 40 102 40 140.5 48 c 128,-1,21
 179.001 56 179.001 56 199.5 78.5 c 128,-1,22
 220.001 101 220.001 101 226 140.5 c 128,-1,23
 232 179.999 232 179.999 232 243 c 2,24,-1
 232 1155 l 2,25,26
 232 1210.99 232 1210.99 223 1250 c 128,-1,27
 214 1289 214 1289 192.5 1313 c 128,-1,28
 171.001 1337 171.001 1337 133.5 1348 c 128,-1,29
 96 1358.99 96 1358.99 37 1359 c 1,30,-1
 37 1395 l 1,31,-1
 430 1395 l 1,32,-1
 937 304 l 1,33,-1
 1435 1395 l 1,34,-1
 1831 1395 l 1,35,-1
 1831 1359 l 1,36,37
 1764.97 1359 1764.97 1359 1725.5 1350.5 c 128,-1,38
 1686.01 1341.99 1686.01 1341.99 1665.5 1319.5 c 128,-1,39
 1644.99 1297 1644.99 1297 1639 1257.5 c 128,-1,40
 1633 1218.01 1633 1218.01 1633 1155 c 2,41,-1
 1633 243 l 2,42,43
 1633 178.971 1633 178.971 1640 139.5 c 128,-1,44
 1647.01 99.9861 1647.01 99.9861 1667.5 77.5 c 128,-1,45
 1688.01 54.9976 1688.01 54.9976 1726.5 47.5 c 128,-1,46
 1765.01 40 1765.01 40 1831 40 c 1,47,-1
 1831 0 l 1,48,-1
 1236 0 l 1,0,-1
EndSplineSet
Validated: 1
EndChar

StartChar: N
Encoding: 78 78 50
Width: 1520
VWidth: 2796
GlyphClass: 2
Flags: MW
LayerCount: 2
Fore
SplineSet
1494 1359 m 1,0,1
 1427.97 1359 1427.97 1359 1388.5 1350.5 c 128,-1,2
 1349.01 1341.99 1349.01 1341.99 1328 1319.5 c 128,-1,3
 1307 1297 1307 1297 1300.5 1257.5 c 128,-1,4
 1294 1217.97 1294 1217.97 1294 1155 c 2,5,-1
 1294 -22 l 1,6,-1
 1259 -22 l 1,7,-1
 336 1102 l 1,8,-1
 336 243 l 2,9,10
 336 177 336 177 342 137.5 c 128,-1,11
 348 98.0005 348 98.0005 368.5 76.5 c 128,-1,12
 389 55 389 55 428.5 47.5 c 128,-1,13
 468 40 468 40 534 40 c 1,14,-1
 534 0 l 1,15,-1
 48 0 l 1,16,-1
 48 40 l 1,17,18
 113 40 113 40 152 48 c 128,-1,19
 191 56 191 56 211.5 78.5 c 128,-1,20
 232.001 101 232.001 101 239 140.5 c 128,-1,21
 246.001 179.999 246.001 179.999 246 243 c 2,22,-1
 246 1214 l 1,23,24
 219.97 1249.04 219.97 1249.04 197.5 1276 c 128,-1,25
 175 1303 175 1303 149.5 1321 c 128,-1,26
 124.012 1338.99 124.012 1338.99 91.5 1349 c 128,-1,27
 59.0164 1359 59.0164 1359 11 1359 c 1,28,-1
 11 1395 l 1,29,-1
 352 1395 l 1,30,-1
 1206 350 l 1,31,-1
 1206 1155 l 2,32,33
 1206 1218.03 1206 1218.03 1199 1257.5 c 128,-1,34
 1191.99 1296.99 1191.99 1296.99 1171 1319.5 c 128,-1,35
 1150 1342 1150 1342 1111 1350.5 c 128,-1,36
 1072.02 1359 1072.02 1359 1006 1359 c 1,37,-1
 1006 1395 l 1,38,-1
 1494 1395 l 1,39,-1
 1494 1359 l 1,0,1
EndSplineSet
Validated: 1
EndChar

StartChar: O
Encoding: 79 79 51
Width: 1520
VWidth: 2796
GlyphClass: 2
Flags: MW
LayerCount: 2
Fore
SplineSet
1440 705 m 0,0,1
 1440 556 1440 556 1391 422 c 128,-1,2
 1341.99 288 1341.99 288 1252.5 186.5 c 128,-1,3
 1162.99 84.9995 1162.99 84.9995 1037 25.5 c 128,-1,4
 911 -34 911 -34 755 -34 c 256,5,6
 599 -34 599 -34 473 24.5 c 128,-1,7
 347 83 347 83 257.5 183.5 c 128,-1,8
 167.999 284 167.999 284 120 418 c 128,-1,9
 72 552 72 552 72 702 c 0,10,11
 72 853 72 853 123.5 985 c 128,-1,12
 174.999 1117 174.999 1117 267.5 1214.5 c 128,-1,13
 360 1312 360 1312 488.5 1368.5 c 128,-1,14
 617 1425.01 617 1425.01 771 1425 c 0,15,16
 923 1425 923 1425 1046 1367 c 128,-1,17
 1169 1308.99 1169 1308.99 1257 1210 c 128,-1,18
 1345.01 1111 1345.01 1111 1392.5 980 c 128,-1,19
 1440.01 849 1440.01 849 1440 705 c 0,0,1
1206 691 m 0,20,21
 1206 767 1206 767 1198.5 846.5 c 128,-1,22
 1191 926 1191 926 1171.5 999.5 c 128,-1,23
 1152 1073.01 1152 1073.01 1119.5 1137 c 128,-1,24
 1086.99 1201.01 1086.99 1201.01 1036.5 1249 c 128,-1,25
 985.995 1297 985.995 1297 915.5 1325 c 128,-1,26
 845 1353.01 845 1353.01 750 1353 c 0,27,28
 662 1353 662 1353 596 1325 c 128,-1,29
 530 1296.99 530 1296.99 480.5 1249 c 128,-1,30
 431 1201 431 1201 398.5 1137 c 128,-1,31
 365.993 1072.98 365.993 1072.98 346 1001.5 c 128,-1,32
 326 930 326 930 318 854 c 128,-1,33
 310 778 310 778 310 707 c 0,34,35
 310 638 310 638 318 561.5 c 128,-1,36
 326 485 326 485 346.5 411 c 128,-1,37
 367 337 367 337 400 270 c 128,-1,38
 433 202.999 433 202.999 482 152.5 c 128,-1,39
 531 101.999 531 101.999 598 72 c 128,-1,40
 665 42 665 42 752 42 c 0,41,42
 844 42 844 42 913 69.5 c 128,-1,43
 982 96.9999 982 96.9999 1032.5 144 c 128,-1,44
 1083.01 190.999 1083.01 190.999 1116.5 254.5 c 128,-1,45
 1149.99 318 1149.99 318 1169.5 389.5 c 128,-1,46
 1189 461 1189 461 1197.5 538.5 c 128,-1,47
 1206 615.954 1206 615.954 1206 691 c 0,20,21
EndSplineSet
Validated: 1
EndChar

StartChar: P
Encoding: 80 80 52
Width: 1171
VWidth: 2796
GlyphClass: 2
Flags: MW
LayerCount: 2
Fore
SplineSet
1099 1009 m 0,0,1
 1099 896 1099 896 1060 821.5 c 128,-1,2
 1021 747 1021 747 954 703 c 128,-1,3
 887 659 887 659 798 641.5 c 128,-1,4
 709 624 709 624 609 624 c 0,5,6
 565.006 624 565.006 624 521 627.5 c 2,7,-1
 430 635 l 1,8,-1
 430 246 l 2,9,10
 430 181.999 430 181.999 437.5 141.5 c 128,-1,11
 445 101 445 101 466 78.5 c 128,-1,12
 487 56 487 56 527 48 c 128,-1,13
 567 40 567 40 632 40 c 1,14,-1
 632 0 l 1,15,-1
 37 0 l 1,16,-1
 37 40 l 1,17,18
 102 40 102 40 141 48 c 128,-1,19
 180 56 180 56 200.5 78.5 c 128,-1,20
 221.001 101 221.001 101 226.5 141.5 c 128,-1,21
 232.001 182 232.001 182 232 246 c 2,22,-1
 232 1150 l 2,23,24
 232 1214.99 232 1214.99 226.5 1255.5 c 128,-1,25
 220.999 1296 220.999 1296 201.5 1319 c 128,-1,26
 182 1341.99 182 1341.99 143 1350.5 c 128,-1,27
 104.023 1359 104.023 1359 37 1359 c 1,28,-1
 37 1395 l 1,29,-1
 545 1395 l 2,30,31
 639 1395 639 1395 738 1379 c 128,-1,32
 837 1362.99 837 1362.99 917 1320 c 128,-1,33
 997 1276.99 997 1276.99 1048 1201.5 c 128,-1,34
 1099 1126.01 1099 1126.01 1099 1009 c 0,0,1
864 990 m 0,35,36
 864 1056.99 864 1056.99 844.5 1116.5 c 128,-1,37
 825 1176.01 825 1176.01 787.5 1219.5 c 128,-1,38
 750 1263 750 1263 694.5 1289 c 128,-1,39
 639 1314.99 639 1314.99 568 1315 c 0,40,41
 534 1315 534 1315 499 1308 c 2,42,-1
 430 1294 l 1,43,-1
 430 705 l 1,44,45
 472 698 472 698 514.5 694.5 c 128,-1,46
 557.005 691 557.005 691 601 691 c 0,47,48
 662 691 662 691 710.5 716 c 128,-1,49
 759 741 759 741 793 783 c 128,-1,50
 827 825 827 825 845.5 879 c 128,-1,51
 864 933 864 933 864 990 c 0,35,36
EndSplineSet
Validated: 1
EndChar

StartChar: Q
Encoding: 81 81 53
Width: 1520
VWidth: 2796
GlyphClass: 2
Flags: MW
LayerCount: 2
Fore
SplineSet
1440 696 m 0,0,1
 1440 572 1440 572 1404.5 459.5 c 128,-1,2
 1368.99 347 1368.99 347 1303 254 c 128,-1,3
 1237 161 1237 161 1142 92 c 128,-1,4
 1047.01 23 1047.01 23 928 -14 c 1,5,6
 971 -86 971 -86 1023 -149.5 c 128,-1,7
 1075.01 -212.999 1075.01 -212.999 1137 -262 c 128,-1,8
 1198.99 -311 1198.99 -311 1273.5 -342 c 128,-1,9
 1348.01 -373 1348.01 -373 1435 -381 c 1,10,-1
 1435 -414 l 1,11,12
 1323 -408 1323 -408 1202 -376 c 128,-1,13
 1080.99 -344 1080.99 -344 966.5 -291.5 c 128,-1,14
 852 -239 852 -239 750.5 -168 c 128,-1,15
 649 -97.0005 649 -97.0005 573 -14 c 1,16,17
 319 75 319 75 195.5 253 c 128,-1,18
 72.0005 431 72.0005 431 72 699 c 0,19,20
 72 851 72 851 122.5 983 c 128,-1,21
 173.001 1115 173.001 1115 265.5 1213.5 c 128,-1,22
 358 1312.01 358 1312.01 485.5 1368.5 c 128,-1,23
 613 1425.01 613 1425.01 769 1425 c 0,24,25
 922 1425 922 1425 1046 1366.5 c 128,-1,26
 1170.01 1308 1170.01 1308 1257.5 1207.5 c 128,-1,27
 1344.99 1107 1344.99 1107 1392.5 975.5 c 128,-1,28
 1440.01 844 1440.01 844 1440 696 c 0,0,1
1206 672 m 0,29,30
 1206 745.047 1206 745.047 1197.5 823.5 c 128,-1,31
 1188.99 902 1188.99 902 1169.5 978 c 128,-1,32
 1150.01 1053.97 1150.01 1053.97 1116.5 1121.5 c 128,-1,33
 1083.02 1188.97 1083.02 1188.97 1033 1239.5 c 128,-1,34
 983 1290.01 983 1290.01 915 1320 c 128,-1,35
 847 1350 847 1350 755 1350 c 0,36,37
 666 1350 666 1350 598 1322 c 128,-1,38
 530 1293.99 530 1293.99 480.5 1245.5 c 128,-1,39
 431 1197.01 431 1197.01 398.5 1133 c 128,-1,40
 366 1068.99 366 1068.99 346 996.5 c 128,-1,41
 326 924 326 924 318 847.5 c 128,-1,42
 310 771 310 771 310 699 c 0,43,44
 310 628 310 628 318 551.5 c 128,-1,45
 326 475 326 475 346.5 402 c 128,-1,46
 367 329 367 329 400.5 263.5 c 128,-1,47
 434 197.999 434 197.999 483 148 c 128,-1,48
 532 98.0005 532 98.0005 600 69 c 128,-1,49
 668 40 668 40 755 40 c 0,50,51
 889 40 889 40 975.5 97 c 128,-1,52
 1062.01 154 1062.01 154 1113.5 245 c 128,-1,53
 1164.99 336 1164.99 336 1185.5 448.5 c 128,-1,54
 1206.01 561 1206.01 561 1206 672 c 0,29,30
EndSplineSet
Validated: 1
EndChar

StartChar: R
Encoding: 82 82 54
Width: 1406
VWidth: 2796
GlyphClass: 2
Flags: MW
LayerCount: 2
Fore
SplineSet
1051 0 m 1,0,-1
 579 651 l 1,1,2
 543 651 543 651 504.5 649 c 128,-1,3
 466 647 466 647 430 651 c 1,4,-1
 430 246 l 2,5,6
 430 181.999 430 181.999 437.5 141.5 c 128,-1,7
 445 101 445 101 467 78.5 c 128,-1,8
 489 56 489 56 529 48 c 128,-1,9
 569 40 569 40 635 40 c 1,10,-1
 635 0 l 1,11,-1
 37 0 l 1,12,-1
 37 40 l 1,13,14
 104 40 104 40 143.5 48 c 128,-1,15
 182.999 56 182.999 56 203.5 78.5 c 128,-1,16
 224.001 101 224.001 101 229.5 141.5 c 128,-1,17
 235.001 182 235.001 182 235 246 c 2,18,-1
 235 1150 l 2,19,20
 235 1214.99 235 1214.99 229.5 1255.5 c 128,-1,21
 223.999 1296 223.999 1296 203.5 1319 c 128,-1,22
 182.999 1341.99 182.999 1341.99 143.5 1350.5 c 128,-1,23
 104.024 1359 104.024 1359 37 1359 c 1,24,-1
 37 1395 l 1,25,-1
 563 1395 l 2,26,27
 624 1395 624 1395 689 1391 c 128,-1,28
 754.033 1386.99 754.033 1386.99 816 1373.5 c 128,-1,29
 878 1360 878 1360 934 1336 c 128,-1,30
 990 1312 990 1312 1032.5 1272 c 128,-1,31
 1075.01 1231.98 1075.01 1231.98 1099.5 1174.5 c 128,-1,32
 1123.99 1117.01 1123.99 1117.01 1124 1038 c 256,33,34
 1124 958 1124 958 1098 897.5 c 128,-1,35
 1072.01 837 1072.01 837 1026 794 c 128,-1,36
 980 751 980 751 917.5 723 c 128,-1,37
 855 695 855 695 782 680 c 1,38,-1
 1068 277 l 2,39,40
 1105.99 224.001 1105.99 224.001 1141.5 183 c 128,-1,41
 1177.01 142.001 1177.01 142.001 1218 112 c 128,-1,42
 1259 82 1259 82 1309 64 c 128,-1,43
 1358.99 46 1358.99 46 1425 40 c 1,44,-1
 1425 0 l 1,45,-1
 1051 0 l 1,0,-1
894 1021 m 0,46,47
 894 1088.01 894 1088.01 872.5 1142.5 c 128,-1,48
 851 1196.99 851 1196.99 810.5 1236 c 128,-1,49
 770 1275 770 1275 714.5 1296.5 c 128,-1,50
 659 1317.99 659 1317.99 593 1318 c 0,51,52
 552.963 1318 552.963 1318 512.5 1312.5 c 0,53,54
 471.672 1306.95 471.672 1306.95 430 1300 c 1,55,-1
 430 718 l 1,56,-1
 489 718 l 2,57,58
 564 718 564 718 636.5 733 c 128,-1,59
 709 748 709 748 766 783 c 128,-1,60
 823 818 823 818 858.5 876 c 128,-1,61
 894 934 894 934 894 1021 c 0,46,47
EndSplineSet
Validated: 33
EndChar

StartChar: S
Encoding: 83 83 55
Width: 1171
VWidth: 2796
GlyphClass: 2
Flags: MW
LayerCount: 2
Fore
SplineSet
1059 358 m 0,0,1
 1059 266 1059 266 1022.5 194 c 128,-1,2
 986 122 986 122 925 71 c 128,-1,3
 864 20 864 20 785 -7 c 128,-1,4
 706 -34 706 -34 621 -34 c 0,5,6
 565 -34 565 -34 509 -21 c 128,-1,7
 453 -7.99995 453 -7.99995 403.5 7 c 2,8,-1
 313 35 l 2,9,10
 272 48 272 48 246 48 c 0,11,12
 229.001 48 229.001 48 217.5 40.5 c 128,-1,13
 205.999 33 205.999 33 198.5 20.5 c 128,-1,14
 191 8.00005 191 8.00005 187.5 -6 c 128,-1,15
 183.998 -20.0094 183.998 -20.0094 182 -34 c 1,16,-1
 145 -34 l 1,17,-1
 145 448 l 1,18,-1
 182 448 l 1,19,20
 192.999 359 192.999 359 224 285.5 c 128,-1,21
 255.001 212 255.001 212 307 159 c 128,-1,22
 359 106.001 359 106.001 432 77 c 128,-1,23
 505 48 505 48 598 48 c 0,24,25
 649 48 649 48 698.5 62 c 128,-1,26
 748 75.9999 748 75.9999 787 105 c 128,-1,27
 826 133.999 826 133.999 850.5 177 c 128,-1,28
 875 220.001 875 220.001 875 277 c 0,29,30
 875 337 875 337 843 385.5 c 128,-1,31
 811 434 811 434 759 475.5 c 128,-1,32
 707 517 707 517 640 555 c 2,33,-1
 504.5 631 l 2,34,35
 436.02 668.988 436.02 668.988 369 711.5 c 128,-1,36
 302 754 302 754 250 805 c 128,-1,37
 197.999 856 197.999 856 166 918 c 128,-1,38
 134.001 980 134.001 980 134 1059 c 0,39,40
 134 1146 134 1146 167.5 1214 c 128,-1,41
 200.999 1281.99 200.999 1281.99 257 1329 c 128,-1,42
 313 1375.99 313 1375.99 386 1400.5 c 128,-1,43
 459 1424.99 459 1424.99 539 1425 c 0,44,45
 587 1425 587 1425 634 1413 c 128,-1,46
 681.061 1400.98 681.061 1400.98 724 1386.5 c 2,47,-1
 802.5 1360 l 2,48,49
 838 1348 838 1348 862 1348 c 0,50,51
 878 1348 878 1348 889 1356 c 128,-1,52
 900 1363.99 900 1363.99 908 1375.5 c 128,-1,53
 916.006 1387.01 916.006 1387.01 921 1400.5 c 128,-1,54
 926 1414 926 1414 928 1425 c 1,55,-1
 968 1425 l 1,56,-1
 968 945 l 1,57,-1
 928 945 l 1,58,59
 922 1027 922 1027 893 1100 c 128,-1,60
 864 1173.01 864 1173.01 815.5 1227 c 128,-1,61
 767 1281 767 1281 699 1313 c 128,-1,62
 631 1344.99 631 1344.99 542 1345 c 0,63,64
 496 1345 496 1345 452 1330 c 128,-1,65
 408 1315 408 1315 373.5 1287 c 128,-1,66
 339 1258.99 339 1258.99 317.5 1220 c 128,-1,67
 296 1181 296 1181 296 1132 c 0,68,69
 296 1075 296 1075 329 1028.5 c 128,-1,70
 362 982 362 982 416 942 c 128,-1,71
 470 902 470 902 538 866 c 2,72,-1
 678 792.5 l 2,73,74
 750 755 750 755 818 712.5 c 128,-1,75
 886 670 886 670 940 618.5 c 128,-1,76
 994 567 994 567 1026.5 503.5 c 128,-1,77
 1059.01 440 1059.01 440 1059 358 c 0,0,1
EndSplineSet
Validated: 1
EndChar

StartChar: T
Encoding: 84 84 56
Width: 1283
VWidth: 2796
GlyphClass: 2
Flags: MW
LayerCount: 2
Fore
SplineSet
1191 1068 m 1,0,1
 1177.99 1186.01 1177.99 1186.01 1118 1247 c 128,-1,2
 1058 1308.01 1058 1308.01 934 1308 c 2,3,-1
 739 1308 l 1,4,-1
 739 243 l 2,5,6
 739 178.999 739 178.999 744.5 139.5 c 128,-1,7
 750 100.001 750 100.001 770.5 77.5 c 128,-1,8
 791 55 791 55 829.5 47.5 c 128,-1,9
 868 40 868 40 934 40 c 1,10,-1
 934 0 l 1,11,-1
 344 0 l 1,12,-1
 344 40 l 1,13,14
 410 40 410 40 448 48 c 128,-1,15
 486 56 486 56 506.5 78.5 c 128,-1,16
 527 101 527 101 533 140.5 c 128,-1,17
 539 179.999 539 179.999 539 243 c 2,18,-1
 539 1308 l 1,19,-1
 371 1308 l 2,20,21
 306 1308 306 1308 257 1296.5 c 128,-1,22
 207.999 1284.99 207.999 1284.99 174.5 1257.5 c 128,-1,23
 141.001 1230.01 141.001 1230.01 122.5 1183.5 c 128,-1,24
 104.001 1137 104.001 1137 98 1068 c 1,25,-1
 51 1068 l 1,26,-1
 64 1395 l 1,27,-1
 1222 1395 l 1,28,-1
 1236 1068 l 1,29,-1
 1191 1068 l 1,0,1
EndSplineSet
Validated: 1
EndChar

StartChar: U
Encoding: 85 85 57
Width: 1520
VWidth: 2796
GlyphClass: 2
Flags: MW
LayerCount: 2
Fore
SplineSet
1502 1359 m 1,0,1
 1439 1359 1439 1359 1399.5 1348 c 128,-1,2
 1360.02 1337.01 1360.02 1337.01 1338 1311 c 128,-1,3
 1315.99 1285.01 1315.99 1285.01 1308 1243 c 128,-1,4
 1300 1201 1300 1201 1300 1141 c 2,5,-1
 1300 573 l 2,6,7
 1300 430 1300 430 1273.5 317.5 c 128,-1,8
 1246.99 205 1246.99 205 1184.5 127 c 128,-1,9
 1121.99 49 1121.99 49 1018.5 7.5 c 128,-1,10
 915 -34 915 -34 760 -34 c 0,11,12
 590 -34 590 -34 482.5 8.5 c 128,-1,13
 375 51 375 51 315 132 c 128,-1,14
 255 213 255 213 234 331 c 128,-1,15
 213 449 213 449 213 601 c 2,16,-1
 213 1150 l 2,17,18
 213 1207 213 1207 207.5 1246.5 c 128,-1,19
 201.999 1285.99 201.999 1285.99 183.5 1311.5 c 128,-1,20
 165.001 1337 165.001 1337 129 1348 c 128,-1,21
 93 1358.99 93 1358.99 31 1359 c 1,22,-1
 31 1395 l 1,23,-1
 593 1395 l 1,24,-1
 593 1359 l 1,25,26
 532 1359 532 1359 496.5 1348 c 128,-1,27
 461 1337.01 461 1337.01 442 1311.5 c 128,-1,28
 423 1286 423 1286 417 1246.5 c 128,-1,29
 411 1207.01 411 1207.01 411 1150 c 2,30,-1
 411 539 l 2,31,32
 411 442 411 442 424 354 c 128,-1,33
 437 266 437 266 476 200 c 128,-1,34
 515 134 515 134 586.5 95 c 128,-1,35
 658 56 658 56 774 56 c 0,36,37
 868 56 868 56 954 86 c 128,-1,38
 1039.99 116 1039.99 116 1110 182 c 0,39,40
 1144 213 1144 213 1163 264 c 128,-1,41
 1182.01 315 1182.01 315 1191.5 372 c 128,-1,42
 1200.99 429 1200.99 429 1203.5 485.5 c 128,-1,43
 1206 541.886 1206 541.886 1206 584 c 2,44,-1
 1206 1150 l 2,45,46
 1206 1214.97 1206 1214.97 1199.5 1255.5 c 128,-1,47
 1193.01 1296 1193.01 1296 1172 1319 c 128,-1,48
 1151 1341.99 1151 1341.99 1111.5 1350.5 c 128,-1,49
 1072.03 1359 1072.03 1359 1006 1359 c 1,50,-1
 1006 1395 l 1,51,-1
 1502 1395 l 1,52,-1
 1502 1359 l 1,0,1
EndSplineSet
Validated: 1
EndChar

StartChar: V
Encoding: 86 86 58
Width: 1520
VWidth: 2796
GlyphClass: 2
Flags: MW
LayerCount: 2
Fore
SplineSet
1496 1359 m 1,0,1
 1453 1352 1453 1352 1420 1334 c 128,-1,2
 1387 1316 1387 1316 1362.5 1290 c 128,-1,3
 1338.02 1264.02 1338.02 1264.02 1320.5 1230.5 c 128,-1,4
 1303.01 1197.03 1303.01 1197.03 1286 1158 c 2,5,-1
 800 -34 l 1,6,-1
 763 -34 l 1,7,-1
 240 1171 l 2,8,9
 220.983 1215.03 220.983 1215.03 203.5 1248 c 128,-1,10
 185.993 1281.01 185.993 1281.01 162 1304 c 128,-1,11
 138 1326.99 138 1326.99 104 1340 c 128,-1,12
 70 1353 70 1353 19 1359 c 1,13,-1
 19 1395 l 1,14,-1
 587 1395 l 1,15,-1
 587 1359 l 1,16,17
 565 1357.01 565 1357.01 538.5 1353 c 128,-1,18
 511.983 1348.99 511.983 1348.99 488 1338.5 c 128,-1,19
 464 1328 464 1328 448.5 1310 c 128,-1,20
 433 1292 433 1292 433 1262 c 0,21,22
 433 1222.99 433 1222.99 446.5 1186.5 c 128,-1,23
 460 1150.01 460 1150.01 481 1102 c 2,24,-1
 836 285 l 1,25,-1
 1166 1096 l 2,26,27
 1173.02 1111.03 1173.02 1111.03 1181 1131.5 c 128,-1,28
 1189 1152.03 1189 1152.03 1196 1174.5 c 128,-1,29
 1202.94 1196.79 1202.94 1196.79 1208.5 1218.5 c 0,30,31
 1214 1239.98 1214 1239.98 1214 1256 c 0,32,33
 1214 1283 1214 1283 1198 1301 c 128,-1,34
 1182 1319 1182 1319 1159.5 1330.5 c 128,-1,35
 1137.02 1341.99 1137.02 1341.99 1111 1348 c 2,36,-1
 1065 1359 l 1,37,-1
 1065 1395 l 1,38,-1
 1496 1395 l 1,39,-1
 1496 1359 l 1,0,1
EndSplineSet
Validated: 1
EndChar

StartChar: W
Encoding: 87 87 59
Width: 1990
VWidth: 2796
GlyphClass: 2
Flags: MW
LayerCount: 2
Fore
SplineSet
1972 1359 m 1,0,1
 1917.01 1359 1917.01 1359 1881.5 1333.5 c 128,-1,2
 1845.99 1308 1845.99 1308 1823 1269 c 128,-1,3
 1800.01 1230 1800.01 1230 1784 1183.5 c 2,4,-1
 1753 1096 l 1,5,-1
 1367 -34 l 1,6,-1
 1323 -34 l 1,7,-1
 1006 859 l 1,8,-1
 691 -34 l 1,9,-1
 651 -34 l 1,10,-1
 240 1126 l 1,11,-1
 209.5 1213 l 2,12,13
 195.003 1254.99 195.003 1254.99 174 1287.5 c 128,-1,14
 153 1320.01 153 1320.01 119 1339.5 c 128,-1,15
 84.9999 1359 84.9999 1359 27 1359 c 1,16,-1
 27 1395 l 1,17,-1
 542 1395 l 1,18,-1
 542 1359 l 1,19,20
 522 1359 522 1359 498 1356 c 128,-1,21
 474 1353 474 1353 454 1345 c 128,-1,22
 434.006 1337.01 434.006 1337.01 421 1320.5 c 128,-1,23
 408 1304 408 1304 408 1275 c 0,24,25
 408 1259 408 1259 413.5 1237 c 128,-1,26
 419.005 1214.98 419.005 1214.98 426 1192 c 128,-1,27
 433 1169.01 433 1169.01 440.5 1147 c 2,28,-1
 453 1110 l 1,29,-1
 726 325 l 1,30,-1
 958 993 l 1,31,-1
 924 1106.5 l 2,32,33
 904.992 1170.02 904.992 1170.02 875 1226 c 128,-1,34
 845 1281.99 845 1281.99 800.5 1320.5 c 128,-1,35
 756 1359.01 756 1359.01 691 1359 c 1,36,-1
 691 1395 l 1,37,-1
 1236 1395 l 1,38,-1
 1236 1359 l 1,39,40
 1210 1359 1210 1359 1183 1357.5 c 128,-1,41
 1156 1356 1156 1356 1135 1347 c 128,-1,42
 1114.01 1338.01 1114.01 1338.01 1101 1319.5 c 128,-1,43
 1087.99 1301.01 1087.99 1301.01 1088 1267 c 0,44,45
 1088 1224.98 1088 1224.98 1102.5 1173.5 c 128,-1,46
 1117.02 1121.96 1117.02 1121.96 1132 1085 c 2,47,-1
 1401 325 l 1,48,-1
 1667 1096 l 2,49,50
 1673.01 1113.03 1673.01 1113.03 1679.5 1134.5 c 128,-1,51
 1686.03 1156.1 1686.03 1156.1 1692 1179.5 c 0,52,53
 1698.05 1203.19 1698.05 1203.19 1703 1225.5 c 0,54,55
 1708 1248.02 1708 1248.02 1708 1264 c 0,56,57
 1708 1294 1708 1294 1693.5 1312.5 c 128,-1,58
 1678.99 1331.01 1678.99 1331.01 1656.5 1341.5 c 128,-1,59
 1633.99 1352.01 1633.99 1352.01 1608 1355.5 c 128,-1,60
 1581.97 1359 1581.97 1359 1558 1359 c 1,61,-1
 1558 1395 l 1,62,-1
 1972 1395 l 1,63,-1
 1972 1359 l 1,0,1
EndSplineSet
Validated: 1
EndChar

StartChar: X
Encoding: 88 88 60
Width: 1520
VWidth: 2796
GlyphClass: 2
Flags: MW
LayerCount: 2
Fore
SplineSet
897 0 m 1,0,-1
 897 40 l 1,1,2
 916 40 916 40 940.5 42 c 128,-1,3
 965 44 965 44 986.5 52 c 128,-1,4
 1008 60.0028 1008 60.0028 1023 75.5 c 128,-1,5
 1038 90.9999 1038 90.9999 1038 117 c 0,6,7
 1038 133.999 1038 133.999 1016 175.5 c 128,-1,8
 993.995 217.001 993.995 217.001 961 271 c 2,9,-1
 889.5 383.5 l 1,10,-1
 817.5 492.5 l 1,11,-1
 760 577.5 l 2,12,13
 736 612 736 612 733 616 c 1,14,-1
 440 240 l 2,15,16
 431 229.001 431 229.001 420.5 214 c 128,-1,17
 410.002 199.002 410.002 199.002 400 183 c 128,-1,18
 389.999 166.998 389.999 166.998 383.5 149.5 c 128,-1,19
 377 131.999 377 131.999 377 117 c 0,20,21
 377 93 377 93 390.5 77 c 128,-1,22
 404 60.9999 404 60.9999 424.5 53 c 128,-1,23
 445 45 445 45 468.5 42.5 c 128,-1,24
 492 40 492 40 512 40 c 1,25,-1
 512 0 l 1,26,-1
 14 0 l 1,27,-1
 14 40 l 1,28,29
 67 42 67 42 116 63.5 c 128,-1,30
 165.001 84.9999 165.001 84.9999 209 117.5 c 128,-1,31
 252.999 150.001 252.999 150.001 290.5 190.5 c 128,-1,32
 328 231 328 231 358 269 c 2,33,-1
 691 688 l 1,34,-1
 414 1091 l 2,35,36
 376.93 1144.1 376.93 1144.1 340.5 1191 c 128,-1,37
 304 1237.99 304 1237.99 261 1273.5 c 128,-1,38
 217.999 1309.01 217.999 1309.01 166.5 1331.5 c 128,-1,39
 115.001 1354 115.001 1354 45 1359 c 1,40,-1
 45 1395 l 1,41,-1
 691 1395 l 1,42,-1
 691 1359 l 1,43,44
 672.318 1357.04 672.318 1357.04 646.5 1353.5 c 0,45,46
 621.046 1350.01 621.046 1350.01 598.5 1342 c 128,-1,47
 576.015 1334.01 576.015 1334.01 560.5 1318.5 c 128,-1,48
 545 1303.01 545 1303.01 545 1278 c 0,49,50
 545 1258.99 545 1258.99 562.5 1222.5 c 128,-1,51
 580.024 1185.96 580.024 1185.96 607 1142 c 2,52,-1
 666 1050 l 1,53,-1
 727 960.5 l 1,54,-1
 778.5 889 l 2,55,56
 801 859 801 859 808 848 c 1,57,58
 814 856 814 856 840 885.5 c 2,59,-1
 900.5 957 l 1,60,-1
 974 1048.5 l 1,61,-1
 1046 1143.5 l 2,62,63
 1078.99 1188.98 1078.99 1188.98 1100 1226.5 c 128,-1,64
 1121 1264 1121 1264 1121 1283 c 0,65,66
 1121 1308 1121 1308 1104 1323 c 128,-1,67
 1087.01 1338 1087.01 1338 1062.5 1345.5 c 128,-1,68
 1037.98 1353.01 1037.98 1353.01 1012.5 1355 c 0,69,70
 987.219 1356.98 987.219 1356.98 971 1359 c 1,71,-1
 971 1395 l 1,72,-1
 1465 1395 l 1,73,-1
 1465 1359 l 1,74,75
 1404.02 1354.01 1404.02 1354.01 1358 1334.5 c 128,-1,76
 1312.02 1315.01 1312.02 1315.01 1275 1283.5 c 128,-1,77
 1237.99 1252 1237.99 1252 1206 1211.5 c 2,78,-1
 1139 1126 l 1,79,-1
 859 774 l 1,80,-1
 1161 328 l 1,81,-1
 1224.5 231 l 2,82,83
 1257.03 181.967 1257.03 181.967 1297 141 c 128,-1,84
 1337.01 100.001 1337.01 100.001 1385.5 72 c 128,-1,85
 1433.99 44.0008 1433.99 44.0008 1496 40 c 1,86,-1
 1496 0 l 1,87,-1
 897 0 l 1,0,-1
EndSplineSet
Validated: 1
EndChar

StartChar: Y
Encoding: 89 89 61
Width: 1520
VWidth: 2796
GlyphClass: 2
Flags: MW
LayerCount: 2
Fore
SplineSet
1494 1359 m 1,0,1
 1432.01 1359 1432.01 1359 1388.5 1338.5 c 128,-1,2
 1344.98 1317.99 1344.98 1317.99 1310 1285 c 128,-1,3
 1275 1252 1275 1252 1247 1209 c 2,4,-1
 1191 1121 l 1,5,-1
 853 593 l 1,6,-1
 853 243 l 2,7,8
 853 178.999 853 178.999 860 139.5 c 128,-1,9
 867 100.001 867 100.001 887.5 77.5 c 128,-1,10
 908 55 908 55 947 47.5 c 128,-1,11
 986 40 986 40 1051 40 c 1,12,-1
 1051 0 l 1,13,-1
 459 0 l 1,14,-1
 459 40 l 1,15,16
 524 40 524 40 562.5 48 c 128,-1,17
 601 56 601 56 620.5 78.5 c 128,-1,18
 640 101 640 101 645.5 140.5 c 128,-1,19
 651 179.999 651 179.999 651 243 c 2,20,-1
 651 573 l 1,21,-1
 272 1158 l 2,22,23
 250.061 1191.91 250.061 1191.91 224.5 1227.5 c 128,-1,24
 199.025 1262.97 199.025 1262.97 169 1292.5 c 128,-1,25
 139 1322.01 139 1322.01 102.5 1340.5 c 128,-1,26
 66.0001 1358.99 66.0001 1358.99 19 1359 c 1,27,-1
 19 1395 l 1,28,-1
 616 1395 l 1,29,-1
 616 1359 l 1,30,31
 594 1359 594 1359 566 1356 c 128,-1,32
 538 1353 538 1353 513.5 1344 c 128,-1,33
 489.007 1335 489.007 1335 472.5 1316.5 c 128,-1,34
 456 1298.01 456 1298.01 456 1267 c 0,35,36
 456 1247.99 456 1247.99 481.5 1197.5 c 128,-1,37
 507 1146.99 507 1146.99 545.5 1083.5 c 2,38,-1
 629 951 l 1,39,-1
 713 824 l 1,40,-1
 779.5 726.5 l 2,41,42
 807 687 807 687 808 683 c 1,43,-1
 1085 1113 l 2,44,45
 1094 1126.01 1094 1126.01 1104.5 1144.5 c 128,-1,46
 1114.98 1162.96 1114.98 1162.96 1124 1183 c 128,-1,47
 1132.97 1202.92 1132.97 1202.92 1140 1222.5 c 128,-1,48
 1147 1241.99 1147 1241.99 1147 1259 c 0,49,50
 1147 1287.99 1147 1287.99 1133.5 1307 c 128,-1,51
 1120.01 1325.99 1120.01 1325.99 1099.5 1337.5 c 128,-1,52
 1078.99 1349.01 1078.99 1349.01 1054 1354 c 128,-1,53
 1029 1359 1029 1359 1006 1359 c 1,54,-1
 1006 1395 l 1,55,-1
 1494 1395 l 1,56,-1
 1494 1359 l 1,0,1
EndSplineSet
Validated: 1
EndChar

StartChar: Z
Encoding: 90 90 62
Width: 1286
VWidth: 2796
GlyphClass: 2
Flags: MW
LayerCount: 2
Fore
SplineSet
1163 0 m 1,0,-1
 27 0 l 1,1,-1
 27 40 l 1,2,-1
 920 1315 l 1,3,-1
 475 1315 l 2,4,5
 397 1315 397 1315 347.5 1300.5 c 128,-1,6
 298 1285.99 298 1285.99 267 1254.5 c 128,-1,7
 235.999 1223 235.999 1223 219 1171.5 c 128,-1,8
 202.001 1120.01 202.001 1120.01 190 1046 c 1,9,-1
 152 1046 l 1,10,-1
 182 1395 l 1,11,-1
 1214 1395 l 1,12,-1
 296 83 l 1,13,-1
 867 83 l 2,14,15
 948 83 948 83 1001 103 c 128,-1,16
 1053.99 122.999 1053.99 122.999 1090 160.5 c 128,-1,17
 1126 198 1126 198 1151 252 c 128,-1,18
 1176 306 1176 306 1197 374 c 1,19,-1
 1227 369 l 1,20,-1
 1163 0 l 1,0,-1
EndSplineSet
Validated: 1
EndChar

StartChar: bracketleft
Encoding: 91 91 63
Width: 942
VWidth: 2796
GlyphClass: 2
Flags: MW
LayerCount: 2
Fore
SplineSet
640 -330 m 1,0,-1
 264 -274 l 1,1,-1
 264 1430 l 1,2,-1
 640 1484 l 1,3,-1
 659 1376 l 1,4,-1
 403 1337 l 1,5,-1
 403 -179 l 1,6,-1
 659 -221 l 1,7,-1
 640 -330 l 1,0,-1
EndSplineSet
Validated: 1
EndChar

StartChar: backslash
Encoding: 92 92 64
Width: 587
VWidth: 2796
GlyphClass: 2
Flags: MW
LayerCount: 2
Fore
SplineSet
509 -31 m 1,0,-1
 3 1462 l 1,1,-1
 93 1462 l 1,2,-1
 593 -31 l 1,3,-1
 509 -31 l 1,0,-1
EndSplineSet
Validated: 1
EndChar

StartChar: bracketright
Encoding: 93 93 65
Width: 942
VWidth: 2796
GlyphClass: 2
Flags: MW
LayerCount: 2
Fore
SplineSet
283 -336 m 1,0,-1
 257 -229 l 1,1,-1
 520 -187 l 1,2,-1
 520 1331 l 1,3,-1
 257 1374 l 1,4,-1
 283 1481 l 1,5,-1
 659 1425 l 1,6,-1
 659 -280 l 1,7,-1
 283 -336 l 1,0,-1
EndSplineSet
Validated: 1
EndChar

StartChar: asciicircum
Encoding: 94 94 66
Width: 2027
VWidth: 2796
GlyphClass: 2
Flags: MW
LayerCount: 2
Fore
SplineSet
1417 19 m 1,0,-1
 1014 1107 l 1,1,-1
 609 19 l 1,2,-1
 483 19 l 1,3,-1
 950 1236 l 1,4,-1
 1076 1236 l 1,5,-1
 1543 19 l 1,6,-1
 1417 19 l 1,0,-1
EndSplineSet
Validated: 1
EndChar

StartChar: underscore
Encoding: 95 95 67
Width: 1014
VWidth: 2796
GlyphClass: 2
Flags: MW
LayerCount: 2
Fore
SplineSet
0 -238 m 1,0,-1
 0 -162 l 1,1,-1
 1014 -162 l 1,2,-1
 1014 -238 l 1,3,-1
 0 -238 l 1,0,-1
EndSplineSet
Validated: 1
EndChar

StartChar: grave
Encoding: 96 96 68
Width: 791
VWidth: 2796
GlyphClass: 2
Flags: MW
LayerCount: 2
Fore
SplineSet
512 1073 m 1,0,-1
 210 1264 l 2,1,2
 117 1322.01 117 1322.01 117 1356 c 0,3,4
 117 1435.01 117 1435.01 182 1435 c 0,5,6
 236 1435 236 1435 304 1367 c 2,7,-1
 598 1073 l 1,8,-1
 512 1073 l 1,0,-1
EndSplineSet
Validated: 1
EndChar

StartChar: a
Encoding: 97 97 69
Width: 936
VWidth: 2796
GlyphClass: 2
Flags: MW
LayerCount: 2
Fore
SplineSet
934 137 m 1,0,1
 915 111.001 915 111.001 891 83 c 128,-1,2
 867 54.9999 867 54.9999 839 32.5 c 128,-1,3
 811 10 811 10 778 -4.5 c 128,-1,4
 745 -19 745 -19 710 -19 c 0,5,6
 677 -19 677 -19 656 -5.5 c 128,-1,7
 635 8 635 8 622.5 30.5 c 128,-1,8
 610 53 610 53 605.5 80.5 c 128,-1,9
 601 108 601 108 601 137 c 1,10,-1
 532.5 82 l 2,11,12
 498 55 498 55 461.5 32.5 c 128,-1,13
 425 10 425 10 385 -4.5 c 128,-1,14
 345 -19 345 -19 299 -19 c 0,15,16
 246 -19 246 -19 204 -0.5 c 128,-1,17
 162 18 162 18 133.5 50.5 c 128,-1,18
 105 83.0001 105 83.0001 90 127.5 c 128,-1,19
 75 172.001 75 172.001 75 224 c 0,20,21
 75 281 75 281 101.5 329 c 128,-1,22
 128.001 377 128.001 377 172 416.5 c 128,-1,23
 215.999 456 215.999 456 272 488 c 128,-1,24
 328 520 328 520 386.5 545.5 c 128,-1,25
 445 571 445 571 501 590 c 2,26,-1
 601 624 l 1,27,-1
 601 662 l 2,28,29
 601 710 601 710 594.5 754.5 c 128,-1,30
 588 799 588 799 569 833.5 c 128,-1,31
 550 868 550 868 516 888.5 c 128,-1,32
 482 909 482 909 425 909 c 0,33,34
 378 909 378 909 350 896 c 128,-1,35
 322 883 322 883 308 859.5 c 128,-1,36
 294 836 294 836 289.5 803.5 c 128,-1,37
 285 771 285 771 285 733 c 0,38,39
 285 687 285 687 267.5 661 c 128,-1,40
 249.999 635 249.999 635 198 635 c 0,41,42
 150 635 150 635 131 662 c 128,-1,43
 111.999 689 111.999 689 112 733 c 0,44,45
 112 797 112 797 146 842 c 128,-1,46
 180.001 887 180.001 887 231.5 916 c 128,-1,47
 283 945 283 945 343 958 c 128,-1,48
 403 971 403 971 456 971 c 0,49,50
 545 971 545 971 605.5 954 c 128,-1,51
 666 937 666 937 703 898 c 128,-1,52
 740 859 740 859 755.5 798 c 128,-1,53
 771 737 771 737 771 649 c 2,54,-1
 771 328 l 2,55,56
 771 288 771 288 770.5 244.5 c 0,57,58
 770.467 241.602 770.467 241.602 770.467 238.724 c 0,59,60
 770.467 198.402 770.467 198.402 777 162 c 0,61,62
 781 142.999 781 142.999 790 127.5 c 128,-1,63
 799 112.001 799 112.001 822 112 c 0,64,65
 834 112 834 112 850 122 c 128,-1,66
 866 132 866 132 882 146 c 128,-1,67
 897.979 159.98 897.979 159.98 912.5 174 c 2,68,-1
 934 195 l 1,69,-1
 934 137 l 1,0,1
601 565 m 1,70,-1
 492.5 521 l 2,71,72
 431 496 431 496 377.5 461 c 128,-1,73
 324 426 324 426 286 379.5 c 128,-1,74
 248 333 248 333 248 272 c 0,75,76
 248 242 248 242 258 211 c 128,-1,77
 268 179.999 268 179.999 287 155.5 c 128,-1,78
 306 131.001 306 131.001 333 116 c 128,-1,79
 360 101 360 101 395 101 c 0,80,81
 422 101 422 101 450 110.5 c 128,-1,82
 477.998 119.999 477.998 119.999 504.5 136 c 128,-1,83
 531 152.001 531 152.001 555.5 170 c 128,-1,84
 579.998 187.999 579.998 187.999 601 205 c 1,85,-1
 601 565 l 1,70,-1
EndSplineSet
Validated: 1
EndChar

StartChar: b
Encoding: 98 98 70
Width: 1054
VWidth: 2796
GlyphClass: 2
Flags: MW
LayerCount: 2
Fore
SplineSet
982 509 m 0,0,1
 982 406 982 406 947 308 c 128,-1,2
 912 210.001 912 210.001 848.5 135 c 128,-1,3
 785 60 785 60 695 14.5 c 128,-1,4
 605 -31 605 -31 494 -31 c 0,5,6
 400 -31 400 -31 313.5 4.5 c 128,-1,7
 226.999 40 226.999 40 152 93 c 1,8,-1
 152 1065 l 2,9,10
 152 1090.01 152 1090.01 154 1133.5 c 128,-1,11
 156 1177 156 1177 151.5 1220.5 c 128,-1,12
 147 1264 147 1264 131 1296 c 128,-1,13
 114.999 1327.99 114.999 1327.99 78 1328 c 0,14,15
 58.9999 1328 58.9999 1328 42 1323.5 c 128,-1,16
 25.079 1319.02 25.079 1319.02 5 1315 c 1,17,-1
 -8 1350 l 1,18,-1
 277 1462 l 1,19,-1
 325 1462 l 1,20,-1
 325 780 l 1,21,22
 351 816 351 816 383 851 c 128,-1,23
 415 886 415 886 452 912.5 c 128,-1,24
 489 939 489 939 531 955 c 128,-1,25
 573 971 573 971 621 971 c 0,26,27
 714 971 714 971 782.5 929 c 128,-1,28
 851 887 851 887 895 821 c 128,-1,29
 939 755 939 755 960.5 673 c 128,-1,30
 982 590.998 982 590.998 982 509 c 0,0,1
803 451 m 0,31,32
 803 511 803 511 789.5 576.5 c 128,-1,33
 776 642 776 642 743.5 697 c 128,-1,34
 711 752 711 752 660.5 788.5 c 128,-1,35
 610 825 610 825 537 825 c 0,36,37
 507 825 507 825 477.5 815.5 c 128,-1,38
 448 806 448 806 421.5 790 c 128,-1,39
 394.998 773.999 394.998 773.999 370 755 c 128,-1,40
 345 736 345 736 325 715 c 1,41,-1
 325 152 l 1,42,43
 369 105.001 369 105.001 425.5 76.5 c 128,-1,44
 482 48 482 48 547 48 c 0,45,46
 620 48 620 48 669 89 c 128,-1,47
 718 129.999 718 129.999 748 191.5 c 128,-1,48
 778 253 778 253 790.5 323 c 128,-1,49
 803 393 803 393 803 451 c 0,31,32
EndSplineSet
Validated: 33
EndChar

StartChar: c
Encoding: 99 99 71
Width: 936
VWidth: 2796
GlyphClass: 2
Flags: MW
LayerCount: 2
Fore
SplineSet
867 358 m 1,0,1
 855 284 855 284 822 214.5 c 128,-1,2
 789 145.001 789 145.001 738 90 c 128,-1,3
 687 35 687 35 620 2 c 128,-1,4
 553 -31 553 -31 472 -31 c 0,5,6
 370 -31 370 -31 294 13 c 128,-1,7
 217.999 57 217.999 57 168.5 129 c 128,-1,8
 119 201 119 201 94.5 290.5 c 128,-1,9
 70.0001 380 70.0001 380 70 470 c 0,10,11
 70 568 70 568 101 659 c 128,-1,12
 132.001 750 132.001 750 191 819.5 c 128,-1,13
 249.999 889 249.999 889 333 930 c 128,-1,14
 416 971 416 971 520 971 c 0,15,16
 568 971 568 971 624 956.5 c 128,-1,17
 680 942 680 942 728 913.5 c 128,-1,18
 776 885 776 885 808.5 842.5 c 128,-1,19
 841 800 841 800 841 744 c 0,20,21
 841 698 841 698 814.5 677.5 c 128,-1,22
 788 657 788 657 744 657 c 0,23,24
 698 657 698 657 676 675.5 c 128,-1,25
 654 694 654 694 644.5 721 c 128,-1,26
 635 748 635 748 631 780 c 128,-1,27
 627 812 627 812 614 839.5 c 128,-1,28
 601 867 601 867 572 885.5 c 128,-1,29
 543 904 543 904 486 904 c 0,30,31
 418 904 418 904 371 872 c 128,-1,32
 324 840 324 840 295 789.5 c 128,-1,33
 266 739 266 739 253 678 c 128,-1,34
 239.999 617 239.999 617 240 560 c 0,35,36
 240 490 240 490 256.5 415 c 128,-1,37
 273 340 273 340 310 277 c 128,-1,38
 347 214 347 214 405 174 c 128,-1,39
 463 133.999 463 133.999 545 134 c 0,40,41
 602 134 602 134 647 153.5 c 128,-1,42
 692 173 692 173 727 206 c 128,-1,43
 762 239 762 239 788.5 282 c 128,-1,44
 815 325 815 325 836 371 c 1,45,-1
 867 358 l 1,0,1
EndSplineSet
Validated: 1
EndChar

StartChar: d
Encoding: 100 100 72
Width: 1054
VWidth: 2796
GlyphClass: 2
Flags: MW
LayerCount: 2
Fore
SplineSet
777 -31 m 1,0,-1
 733 -31 l 1,1,-1
 733 106 l 1,2,3
 676 46 676 46 607 7.5 c 128,-1,4
 538 -31 538 -31 456 -31 c 0,5,6
 365 -31 365 -31 292.5 10 c 128,-1,7
 220.001 51 220.001 51 171 117 c 128,-1,8
 121.999 183 121.999 183 96 265.5 c 128,-1,9
 70.0001 348 70.0001 348 70 430 c 0,10,11
 70 528.001 70 528.001 101 624.5 c 128,-1,12
 132.001 721 132.001 721 191.5 798 c 128,-1,13
 251.001 875 251.001 875 336.5 923 c 128,-1,14
 422 971 422 971 528 971 c 0,15,16
 586 971 586 971 638.5 952.5 c 128,-1,17
 691 934 691 934 733 892 c 1,18,-1
 733 1088 l 2,19,20
 733 1110.01 733 1110.01 734.5 1150.5 c 128,-1,21
 736 1191 736 1191 731 1230.5 c 128,-1,22
 725.999 1270.01 725.999 1270.01 710.5 1299 c 128,-1,23
 695 1327.99 695 1327.99 659 1328 c 0,24,25
 640 1328 640 1328 623 1325 c 128,-1,26
 606 1322 606 1322 587 1315 c 1,27,-1
 573 1350 l 1,28,-1
 859 1462 l 1,29,-1
 904 1462 l 1,30,-1
 904 371 l 2,31,32
 904 356 904 356 902.5 330 c 128,-1,33
 901 304 901 304 901 275 c 128,-1,34
 901 246 901 246 904 216 c 128,-1,35
 907 186 907 186 915 161.5 c 128,-1,36
 923 137.001 923 137.001 938.5 121.5 c 128,-1,37
 954 106.001 954 106.001 979 106 c 0,38,39
 995.003 106 995.003 106 1013.5 111 c 128,-1,40
 1031.99 115.999 1031.99 115.999 1051 123 c 1,41,-1
 1062 86 l 1,42,-1
 777 -31 l 1,0,-1
733 665 m 2,43,44
 733 709 733 709 716.5 752.5 c 128,-1,45
 700 796 700 796 671 831 c 128,-1,46
 642 866 642 866 602.5 887.5 c 128,-1,47
 563 909 563 909 515 909 c 0,48,49
 441 909 441 909 392 869.5 c 128,-1,50
 343 830 343 830 313.5 770.5 c 128,-1,51
 284 711 284 711 271.5 642 c 128,-1,52
 259 573 259 573 259 515 c 0,53,54
 259 449 259 449 274 374 c 128,-1,55
 289 299 289 299 322.5 234 c 128,-1,56
 356 169.001 356 169.001 411.5 126 c 128,-1,57
 467 82.9999 467 82.9999 547 83 c 0,58,59
 603 83 603 83 650.5 111 c 128,-1,60
 698 139.001 698 139.001 733 179 c 1,61,-1
 733 665 l 2,43,44
EndSplineSet
Validated: 33
EndChar

StartChar: e
Encoding: 101 101 73
Width: 936
VWidth: 2796
GlyphClass: 2
Flags: MW
LayerCount: 2
Fore
SplineSet
875 344 m 1,0,1
 866 270 866 270 833 202.5 c 128,-1,2
 800 135 800 135 749.5 83 c 128,-1,3
 699 31 699 31 633 0 c 128,-1,4
 567 -31 567 -31 489 -31 c 0,5,6
 388 -31 388 -31 310.5 11 c 128,-1,7
 233 53 233 53 181.5 123 c 128,-1,8
 130.001 193.001 130.001 193.001 104 281.5 c 128,-1,9
 78.0001 370 78.0001 370 78 461 c 0,10,11
 78 564 78 564 104.5 656 c 128,-1,12
 131.001 748 131.001 748 185 817.5 c 128,-1,13
 239 887 239 887 321.5 929 c 128,-1,14
 404 971 404 971 515 971 c 0,15,16
 599 971 599 971 666 942 c 128,-1,17
 733 913 733 913 779.5 862 c 128,-1,18
 826 811 826 811 850.5 740.5 c 128,-1,19
 875 670 875 670 875 587 c 1,20,-1
 224 587 l 1,21,22
 224 511 224 511 244.5 431.5 c 128,-1,23
 265 352 265 352 307.5 287.5 c 128,-1,24
 350 223 350 223 414.5 181 c 128,-1,25
 479 139 479 139 568 139 c 0,26,27
 623 139 623 139 666 156 c 128,-1,28
 709 172.999 709 172.999 742.5 204 c 128,-1,29
 776 235.001 776 235.001 801 276.5 c 128,-1,30
 826 318 826 318 844 366 c 1,31,-1
 875 344 l 1,0,1
659 646 m 1,32,33
 659 694 659 694 647.5 739 c 128,-1,34
 636 784 636 784 611 818.5 c 128,-1,35
 586 853 586 853 547.5 875 c 128,-1,36
 509 897 509 897 456 897 c 256,37,38
 403 897 403 897 362 876 c 128,-1,39
 321 855 321 855 291.5 820 c 128,-1,40
 262 785 262 785 245 739.5 c 128,-1,41
 228.001 694 228.001 694 224 646 c 1,42,-1
 659 646 l 1,32,33
EndSplineSet
Validated: 1
EndChar

StartChar: f
Encoding: 102 102 74
Width: 701
VWidth: 2796
GlyphClass: 2
Flags: MW
LayerCount: 2
Fore
SplineSet
918 1286 m 0,0,1
 918 1271 918 1271 910 1256 c 128,-1,2
 902.006 1241.01 902.006 1241.01 890.5 1229.5 c 128,-1,3
 879.009 1218 879.009 1218 864 1210.5 c 128,-1,4
 849 1203 849 1203 833 1203 c 0,5,6
 799 1203 799 1203 773 1231.5 c 128,-1,7
 747.022 1259.98 747.022 1259.98 719.5 1295 c 128,-1,8
 691.99 1330.01 691.99 1330.01 658.5 1358.5 c 128,-1,9
 625 1387 625 1387 576 1387 c 0,10,11
 534 1387 534 1387 507.5 1366.5 c 128,-1,12
 480.992 1345.99 480.992 1345.99 464.5 1313.5 c 128,-1,13
 448 1280.99 448 1280.99 441 1240 c 128,-1,14
 434 1199.01 434 1199.01 432 1156.5 c 128,-1,15
 430 1113.99 430 1113.99 431.5 1076 c 128,-1,16
 433 1038.01 433 1038.01 433 1009 c 2,17,-1
 433 942 l 1,18,-1
 677 942 l 1,19,-1
 677 867 l 1,20,-1
 433 867 l 1,21,-1
 433 248 l 2,22,23
 433 177.001 433 177.001 440.5 135.5 c 128,-1,24
 448 93.9995 448 93.9995 471 73 c 128,-1,25
 494 52 494 52 537 46 c 128,-1,26
 580 40 580 40 651 40 c 1,27,-1
 651 0 l 1,28,-1
 83 0 l 1,29,-1
 83 40 l 1,30,31
 144.999 40 144.999 40 180.5 51.5 c 128,-1,32
 216.001 63 216.001 63 234.5 88 c 128,-1,33
 252.999 113.001 252.999 113.001 258.5 153 c 128,-1,34
 264 193.001 264 193.001 264 248 c 2,35,-1
 264 867 l 1,36,-1
 78 867 l 1,37,-1
 78 942 l 1,38,-1
 264 942 l 1,39,-1
 264 1006 l 2,40,41
 264 1096 264 1096 288.5 1179 c 128,-1,42
 313 1261.99 313 1261.99 362 1324.5 c 128,-1,43
 411 1387.01 411 1387.01 484.5 1424.5 c 128,-1,44
 558 1462 558 1462 657 1462 c 0,45,46
 692 1462 692 1462 737 1450.5 c 128,-1,47
 782 1438.99 782 1438.99 822 1416.5 c 128,-1,48
 862 1394 862 1394 890 1361 c 128,-1,49
 918 1328 918 1328 918 1286 c 0,0,1
EndSplineSet
Validated: 33
EndChar

StartChar: g
Encoding: 103 103 75
Width: 1054
VWidth: 2796
GlyphClass: 2
Flags: MW
LayerCount: 2
Fore
SplineSet
1014 859 m 0,0,1
 1014 829 1014 829 993 818 c 128,-1,2
 972 807 972 807 942.5 805.5 c 128,-1,3
 913 804 913 804 881 807.5 c 128,-1,4
 849 811 849 811 827 811 c 1,5,6
 857 771 857 771 870 721.5 c 128,-1,7
 883 672 883 672 883 624 c 0,8,9
 883 545 883 545 852.5 485.5 c 128,-1,10
 822 426 822 426 770 385.5 c 128,-1,11
 718 345 718 345 651 324.5 c 128,-1,12
 584 304 584 304 512 304 c 0,13,14
 477.003 304 477.003 304 440.5 309 c 128,-1,15
 404.004 313.999 404.004 313.999 369 325 c 1,16,17
 341 303 341 303 316 274.5 c 128,-1,18
 291 246 291 246 291 210 c 0,19,20
 291 178.999 291 178.999 321.5 165.5 c 128,-1,21
 352 152 352 152 402 146.5 c 128,-1,22
 452 140.999 452 140.999 516 141 c 128,-1,23
 580 141 580 141 647 138 c 128,-1,24
 714 135 714 135 778 125.5 c 128,-1,25
 842 116.001 842 116.001 892 92 c 128,-1,26
 942 68 942 68 973 26 c 128,-1,27
 1004 -16 1004 -16 1004 -86 c 0,28,29
 1004 -149 1004 -149 979 -201 c 128,-1,30
 954 -253.001 954 -253.001 913 -294.5 c 128,-1,31
 872 -336 872 -336 818.5 -366 c 128,-1,32
 765 -396 765 -396 706 -416.5 c 128,-1,33
 647 -437 647 -437 587.5 -446.5 c 128,-1,34
 528 -456 528 -456 475 -456 c 0,35,36
 449 -456 449 -456 407.5 -451 c 128,-1,37
 366 -446 366 -446 320 -436 c 128,-1,38
 274.002 -426 274.002 -426 228 -410.5 c 128,-1,39
 181.999 -395 181.999 -395 145 -373 c 128,-1,40
 107.999 -351 107.999 -351 84.5 -323 c 128,-1,41
 60.9999 -295 60.9999 -295 61 -259 c 0,42,43
 61 -230.999 61 -230.999 83.5 -192 c 128,-1,44
 106 -153 106 -153 137 -115.5 c 128,-1,45
 168.001 -78 168.001 -78 200 -44.5 c 2,46,-1
 251 8 l 1,47,48
 237.999 15.9999 237.999 15.9999 221.5 28.5 c 128,-1,49
 205 41 205 41 190 56 c 128,-1,50
 175 71 175 71 164.5 88 c 128,-1,51
 154 105 154 105 154 123 c 0,52,53
 154 151.999 154 151.999 172 184 c 128,-1,54
 190 215.999 190 215.999 216 246 c 128,-1,55
 241.999 276 241.999 276 270 302 c 128,-1,56
 298 328 298 328 318 344 c 1,57,58
 277 363 277 363 243.5 393 c 128,-1,59
 210.001 423 210.001 423 187 460.5 c 128,-1,60
 164.001 498 164.001 498 151.5 541 c 128,-1,61
 139.001 584 139.001 584 139 629 c 0,62,63
 139 709 139 709 170 772.5 c 128,-1,64
 201.001 836 201.001 836 252.5 879.5 c 128,-1,65
 304 923 304 923 372 947 c 128,-1,66
 440 971 440 971 515 971 c 0,67,68
 560 971 560 971 603 959.5 c 128,-1,69
 646 948 646 948 688 934 c 128,-1,70
 730 920 730 920 772.5 908.5 c 128,-1,71
 814.998 897 814.998 897 859 897 c 0,72,73
 886 897 886 897 913.5 900.5 c 128,-1,74
 941 904 941 904 968 904 c 256,75,76
 995 904 995 904 1004.5 898.5 c 128,-1,77
 1014 892.997 1014 892.997 1014 859 c 0,0,1
702 595 m 0,78,79
 702 643 702 643 693 699.5 c 128,-1,80
 684 756 684 756 661 805.5 c 128,-1,81
 638 855 638 855 598 887.5 c 128,-1,82
 558 920 558 920 498 920 c 0,83,84
 446 920 446 920 411.5 897.5 c 128,-1,85
 377 875 377 875 356.5 840.5 c 128,-1,86
 336 806 336 806 327 762 c 128,-1,87
 318 718 318 718 318 674 c 0,88,89
 318 625 318 625 327 569 c 128,-1,90
 336 513 336 513 360 465.5 c 128,-1,91
 384 418 384 418 424 386.5 c 128,-1,92
 464 355 464 355 526 355 c 0,93,94
 579 355 579 355 613 375.5 c 128,-1,95
 647 396 647 396 667 430 c 128,-1,96
 687 464 687 464 694.5 507 c 128,-1,97
 702 550 702 550 702 595 c 0,78,79
928 -126 m 0,98,99
 928 -105 928 -105 919.5 -90 c 128,-1,100
 911 -75 911 -75 896.5 -65 c 128,-1,101
 882 -55 882 -55 863.5 -48 c 128,-1,102
 845 -41 845 -41 827 -37 c 0,103,104
 788 -27 788 -27 719.5 -21.5 c 128,-1,105
 651 -15.9999 651 -15.9999 575.5 -13 c 2,106,-1
 427.5 -7 l 2,107,108
 355 -4 355 -4 307 0 c 1,109,-1
 276.5 -37.5 l 2,110,111
 259 -59 259 -59 244 -82.5 c 128,-1,112
 229 -106 229 -106 219.5 -131.5 c 128,-1,113
 210 -157.001 210 -157.001 210 -182 c 0,114,115
 210 -213.001 210 -213.001 230.5 -236 c 128,-1,116
 251.001 -258.999 251.001 -258.999 283 -275.5 c 128,-1,117
 315 -292 315 -292 355.5 -303 c 128,-1,118
 396 -314 396 -314 435.5 -320 c 128,-1,119
 475 -326 475 -326 510.5 -328 c 128,-1,120
 546 -330 546 -330 568 -330 c 0,121,122
 614 -330 614 -330 676.5 -321.5 c 128,-1,123
 739 -313 739 -313 795 -289.5 c 128,-1,124
 851 -266 851 -266 889.5 -226.5 c 128,-1,125
 928 -187.001 928 -187.001 928 -126 c 0,98,99
EndSplineSet
Validated: 33
EndChar

StartChar: h
Encoding: 104 104 76
Width: 1054
VWidth: 2796
GlyphClass: 2
Flags: MW
LayerCount: 2
Fore
SplineSet
579 0 m 1,0,-1
 579 40 l 1,1,2
 625 40 625 40 654.5 46.5 c 128,-1,3
 684 53 684 53 701 70 c 128,-1,4
 718 86.9999 718 86.9999 724 116.5 c 128,-1,5
 730 146.001 730 146.001 730 193 c 2,6,-1
 730 563 l 2,7,8
 730 606 730 606 729 655.5 c 128,-1,9
 728 705 728 705 714 746.5 c 128,-1,10
 700 788 700 788 669 816 c 128,-1,11
 638 844 638 844 579 844 c 0,12,13
 543 844 543 844 510.5 832.5 c 128,-1,14
 478 821 478 821 448 802.5 c 128,-1,15
 418 784 418 784 392 759.5 c 128,-1,16
 366 735 366 735 344 710 c 1,17,-1
 344 193 l 2,18,19
 344 146.001 344 146.001 349 116 c 128,-1,20
 354 86 354 86 370 69 c 128,-1,21
 386 52 386 52 415.5 46 c 128,-1,22
 445 40 445 40 494 40 c 1,23,-1
 494 0 l 1,24,-1
 27 0 l 1,25,-1
 27 40 l 1,26,27
 72 40 72 40 101 47.5 c 128,-1,28
 129.999 55 129.999 55 146 73 c 128,-1,29
 162.001 91 162.001 91 167.5 120.5 c 128,-1,30
 173.001 150.001 173.001 150.001 173 193 c 2,31,-1
 173 1188 l 2,32,33
 173 1204.01 173 1204.01 171 1228.5 c 128,-1,34
 169 1253 169 1253 162.5 1275.5 c 128,-1,35
 156.001 1298 156.001 1298 142 1314.5 c 128,-1,36
 128.001 1331 128.001 1331 104 1331 c 0,37,38
 84.9999 1331 84.9999 1331 65.5 1326.5 c 128,-1,39
 45.9634 1321.99 45.9634 1321.99 27 1315 c 1,40,-1
 11 1350 l 1,41,-1
 296 1462 l 1,42,-1
 344 1462 l 1,43,-1
 344 774 l 1,44,45
 371 815 371 815 404 851 c 128,-1,46
 437 887 437 887 476 914 c 128,-1,47
 515 941 515 941 560.5 956 c 128,-1,48
 606 971 606 971 657 971 c 0,49,50
 747 971 747 971 797 929 c 128,-1,51
 847 887 847 887 870.5 824.5 c 128,-1,52
 894 762 894 762 899 687 c 128,-1,53
 904 612 904 612 904 545 c 2,54,-1
 904 193 l 2,55,56
 904 149.999 904 149.999 908.5 120.5 c 128,-1,57
 913 90.9995 913 90.9995 928 73 c 128,-1,58
 943 55 943 55 970.5 47.5 c 128,-1,59
 998 40 998 40 1043 40 c 1,60,-1
 1043 0 l 1,61,-1
 579 0 l 1,0,-1
EndSplineSet
Validated: 1
EndChar

StartChar: i
Encoding: 105 105 77
Width: 587
VWidth: 2796
GlyphClass: 2
Flags: MW
LayerCount: 2
Fore
SplineSet
78 0 m 1,0,-1
 78 40 l 1,1,2
 124.001 40 124.001 40 153 46.5 c 128,-1,3
 181.999 53 181.999 53 197.5 71 c 128,-1,4
 212.999 89 212.999 89 218.5 118 c 128,-1,5
 224.001 146.999 224.001 146.999 224 193 c 2,6,-1
 224 696 l 2,7,8
 224 714 224 714 222 738 c 128,-1,9
 220.001 762 220.001 762 213 784 c 128,-1,10
 205.999 806 205.999 806 191 821 c 128,-1,11
 176 836 176 836 152 836 c 0,12,13
 134 836 134 836 115.5 831 c 128,-1,14
 97.001 826 97.001 826 78 819 c 1,15,-1
 64 856 l 1,16,-1
 350 971 l 1,17,-1
 395 971 l 1,18,-1
 395 193 l 2,19,20
 395 146.999 395 146.999 400.5 118 c 128,-1,21
 406 89 406 89 421.5 71 c 128,-1,22
 437 53 437 53 465 46.5 c 128,-1,23
 493 40 493 40 539 40 c 1,24,-1
 539 0 l 1,25,-1
 78 0 l 1,0,-1
414 1264 m 256,26,27
 414 1220.99 414 1220.99 384 1189.5 c 128,-1,28
 354 1158 354 1158 310 1158 c 256,29,30
 266 1158 266 1158 235.5 1188 c 128,-1,31
 205.001 1218 205.001 1218 205 1264 c 0,32,33
 205 1307.99 205 1307.99 235.5 1337.5 c 128,-1,34
 265.999 1367.01 265.999 1367.01 310 1367 c 0,35,36
 352 1367 352 1367 383 1337 c 128,-1,37
 414 1307 414 1307 414 1264 c 256,26,27
EndSplineSet
EndChar

StartChar: j
Encoding: 106 106 78
Width: 587
VWidth: 2796
GlyphClass: 2
Flags: MW
LayerCount: 2
Fore
SplineSet
411 1264 m 256,0,1
 411 1220.99 411 1220.99 379.5 1189.5 c 128,-1,2
 348 1158 348 1158 304 1158 c 256,3,4
 261 1158 261 1158 231 1188 c 128,-1,5
 201 1218 201 1218 201 1264 c 0,6,7
 201 1307.01 201 1307.01 231.5 1337 c 128,-1,8
 261.999 1367 261.999 1367 304 1367 c 256,9,10
 347 1367 347 1367 379 1337 c 128,-1,11
 411 1307 411 1307 411 1264 c 256,0,1
395 19 m 2,12,13
 395 -72 395 -72 375.5 -157.5 c 128,-1,14
 356 -243 356 -243 312.5 -309 c 128,-1,15
 269 -375 269 -375 198 -415.5 c 128,-1,16
 127.001 -456 127.001 -456 22 -456 c 0,17,18
 -3.8147e-06 -456 -3.8147e-06 -456 -31.5 -450.5 c 128,-1,19
 -63 -445 -63 -445 -92.5 -433 c 128,-1,20
 -122.001 -421 -122.001 -421 -142 -401 c 128,-1,21
 -161.999 -381 -161.999 -381 -162 -352 c 0,22,23
 -162 -317 -162 -317 -137.5 -290.5 c 128,-1,24
 -113.001 -264 -113.001 -264 -78 -264 c 256,25,26
 -42 -264 -42 -264 -15.5 -281 c 128,-1,27
 11 -298 11 -298 33.5 -317.5 c 128,-1,28
 56 -337 56 -337 78.5 -354 c 128,-1,29
 101 -371 101 -371 128 -371 c 0,30,31
 168.001 -371 168.001 -371 188 -340.5 c 128,-1,32
 207.999 -310 207.999 -310 216 -267.5 c 128,-1,33
 224 -224.998 224 -224.998 224 -181.5 c 2,34,-1
 224 -112 l 1,35,-1
 224 590 l 2,36,37
 224 613 224 613 225.5 654 c 128,-1,38
 227 695.003 227 695.003 221.5 734.5 c 128,-1,39
 215.999 774 215.999 774 199.5 803.5 c 128,-1,40
 183 833 183 833 149 833 c 0,41,42
 116 833 116 833 78 819 c 1,43,-1
 64 856 l 1,44,-1
 350 971 l 1,45,-1
 395 971 l 1,46,-1
 395 19 l 2,12,13
EndSplineSet
Validated: 33
EndChar

StartChar: k
Encoding: 107 107 79
Width: 1054
VWidth: 2796
GlyphClass: 2
Flags: MW
LayerCount: 2
Fore
SplineSet
609 0 m 1,0,-1
 609 40 l 1,1,2
 618 40 618 40 630 40.5 c 128,-1,3
 642 41 642 41 651.5 45 c 128,-1,4
 661 49 661 49 667.5 56 c 128,-1,5
 674 63 674 63 674 75 c 0,6,7
 674 97.9999 674 97.9999 660.5 118.5 c 2,8,-1
 635 157 l 1,9,-1
 347 520 l 1,10,-1
 347 213 l 2,11,12
 347 163.999 347 163.999 350.5 130.5 c 128,-1,13
 354 97.0005 354 97.0005 368 76.5 c 128,-1,14
 382 56 382 56 413 48 c 128,-1,15
 444 40 444 40 498 40 c 1,16,-1
 498 0 l 1,17,-1
 14 0 l 1,18,-1
 14 40 l 1,19,20
 67 40 67 40 97.5 46.5 c 128,-1,21
 127.999 53 127.999 53 144.5 71.5 c 128,-1,22
 161 89.9999 161 89.9999 166 123 c 128,-1,23
 170.999 156 170.999 156 171 208 c 2,24,-1
 171 1088 l 2,25,26
 171 1102.97 171 1102.97 171.5 1126.5 c 128,-1,27
 172 1150.03 172 1150.03 172 1177 c 128,-1,28
 172 1204.01 172 1204.01 169.5 1231.5 c 128,-1,29
 166.999 1259.01 166.999 1259.01 158.5 1281.5 c 128,-1,30
 149.999 1304 149.999 1304 136.5 1317.5 c 128,-1,31
 123 1331 123 1331 101 1331 c 0,32,33
 83 1331 83 1331 67 1326.5 c 128,-1,34
 50.9612 1321.99 50.9612 1321.99 34 1315 c 1,35,-1
 14 1350 l 1,36,-1
 299 1462 l 1,37,-1
 347 1462 l 1,38,-1
 347 542 l 1,39,-1
 584 744 l 2,40,41
 593 751 593 751 609 765.5 c 2,42,-1
 641.5 796 l 2,43,44
 658.004 812.004 658.004 812.004 670.5 829.5 c 128,-1,45
 683 847 683 847 683 859 c 0,46,47
 683 887 683 887 657.5 899 c 128,-1,48
 632 911 632 911 609 912 c 1,49,-1
 609 942 l 1,50,-1
 1017 942 l 1,51,-1
 1017 912 l 1,52,53
 973 911 973 911 938.5 904 c 128,-1,54
 904 897 904 897 874 883.5 c 128,-1,55
 844 870 844 870 816 849.5 c 128,-1,56
 788 829 788 829 755 800 c 2,57,-1
 507 579 l 1,58,-1
 755 269 l 1,59,-1
 804.5 206.5 l 2,60,61
 828.996 175.004 828.996 175.004 855 146 c 128,-1,62
 881 117.001 881 117.001 911 92.5 c 128,-1,63
 941 68.0001 941 68.0001 976 48 c 0,64,65
 991 40 991 40 1020.5 40 c 2,66,-1
 1065 40 l 1,67,-1
 1065 0 l 1,68,-1
 609 0 l 1,0,-1
EndSplineSet
Validated: 1
EndChar

StartChar: l
Encoding: 108 108 80
Width: 587
VWidth: 2796
GlyphClass: 2
Flags: MW
LayerCount: 2
Fore
SplineSet
78 0 m 1,0,-1
 78 40 l 1,1,2
 127.001 40 127.001 40 155 51.5 c 128,-1,3
 183.001 63 183.001 63 197.5 84.5 c 128,-1,4
 212.001 106 212.001 106 215 138.5 c 128,-1,5
 218 171.001 218 171.001 218 213 c 2,6,-1
 218 1091 l 2,7,8
 218 1115 218 1115 220.5 1155 c 128,-1,9
 223 1195 223 1195 217.5 1233.5 c 128,-1,10
 212.001 1271.99 212.001 1271.99 195.5 1300 c 128,-1,11
 179 1328.01 179 1328.01 142 1328 c 0,12,13
 126 1328 126 1328 111 1325 c 128,-1,14
 96 1322 96 1322 78 1315 c 1,15,-1
 61 1350 l 1,16,-1
 344 1462 l 1,17,-1
 389 1462 l 1,18,-1
 389 213 l 2,19,20
 389 165 389 165 394 132.5 c 128,-1,21
 399 99.9995 399 99.9995 414.5 79.5 c 128,-1,22
 430 58.9999 430 58.9999 461 49.5 c 128,-1,23
 492 40 492 40 542 40 c 1,24,-1
 542 0 l 1,25,-1
 78 0 l 1,0,-1
EndSplineSet
Validated: 33
EndChar

StartChar: m
Encoding: 109 109 81
Width: 1641
VWidth: 2796
GlyphClass: 2
Flags: MW
LayerCount: 2
Fore
SplineSet
1166 0 m 1,0,-1
 1166 40 l 1,1,2
 1221.01 40 1221.01 40 1251.5 48 c 128,-1,3
 1281.99 56 1281.99 56 1296.5 76.5 c 128,-1,4
 1311.01 97.0001 1311.01 97.0001 1314.5 130.5 c 128,-1,5
 1318 164.048 1318 164.048 1318 213 c 2,6,-1
 1318 621 l 2,7,8
 1318 660.968 1318 660.968 1311.5 701 c 128,-1,9
 1305.01 740.971 1305.01 740.971 1288 774 c 128,-1,10
 1271.01 806.989 1271.01 806.989 1240.5 827.5 c 128,-1,11
 1210.01 848 1210.01 848 1161 848 c 0,12,13
 1125 848 1125 848 1091.5 837 c 128,-1,14
 1057.99 825.994 1057.99 825.994 1027.5 807.5 c 128,-1,15
 996.989 788.991 996.989 788.991 969.5 766 c 128,-1,16
 942 743 942 743 918 718 c 1,17,-1
 918 213 l 2,18,19
 918 163.999 918 163.999 922 130.5 c 128,-1,20
 926 97.0005 926 97.0005 941 76.5 c 128,-1,21
 956 56 956 56 986.5 48 c 128,-1,22
 1016.99 40 1016.99 40 1070 40 c 1,23,-1
 1070 0 l 1,24,-1
 593 0 l 1,25,-1
 593 40 l 1,26,27
 649 40 649 40 679.5 48 c 128,-1,28
 710 56 710 56 725 76 c 128,-1,29
 740 95.9999 740 95.9999 743.5 129 c 128,-1,30
 747 162 747 162 747 213 c 2,31,-1
 747 621 l 2,32,33
 747 662 747 662 740 703 c 128,-1,34
 733 744 733 744 716 777 c 128,-1,35
 699 810 699 810 667.5 830.5 c 128,-1,36
 636 851 636 851 587 851 c 0,37,38
 550 851 550 851 516.5 839 c 128,-1,39
 483 827 483 827 452.5 809 c 128,-1,40
 422 791 422 791 395.5 767 c 128,-1,41
 369.005 743.005 369.005 743.005 344 718 c 1,42,-1
 344 213 l 2,43,44
 344 163.999 344 163.999 348 130.5 c 128,-1,45
 352 97.0005 352 97.0005 367 76.5 c 128,-1,46
 382 56 382 56 413.5 48 c 128,-1,47
 445 40 445 40 498 40 c 1,48,-1
 498 0 l 1,49,-1
 31 0 l 1,50,-1
 31 40 l 1,51,52
 82 40 82 40 110 50 c 128,-1,53
 138.001 60 138.001 60 152.5 81 c 128,-1,54
 167.001 102 167.001 102 170 135 c 128,-1,55
 173 168 173 168 173 213 c 2,56,-1
 173 595 l 2,57,58
 173 616 173 616 174.5 656 c 128,-1,59
 176 696 176 696 171.5 736.5 c 128,-1,60
 167 777 167 777 151 806.5 c 128,-1,61
 134.999 836 134.999 836 101 836 c 0,62,63
 83 836 83 836 65.5 831 c 128,-1,64
 48 826 48 826 31 819 c 1,65,-1
 14 856 l 1,66,-1
 299 971 l 1,67,-1
 344 971 l 1,68,-1
 344 771 l 1,69,70
 377 807 377 807 413 842.5 c 128,-1,71
 449 878 449 878 488.5 906.5 c 128,-1,72
 528 935 528 935 573 953 c 128,-1,73
 618 971 618 971 672 971 c 0,74,75
 773 971 773 971 831 918.5 c 128,-1,76
 889 866 889 866 912 771 c 1,77,78
 945 810 945 810 979.5 845.5 c 128,-1,79
 1014.01 881.009 1014.01 881.009 1054 909 c 128,-1,80
 1094 937 1094 937 1140 954 c 128,-1,81
 1186 971 1186 971 1241 971 c 0,82,83
 1317.99 971 1317.99 971 1367 940 c 128,-1,84
 1416.01 909 1416.01 909 1443 860 c 128,-1,85
 1470 811 1470 811 1480.5 748 c 128,-1,86
 1491 685 1491 685 1491 621 c 2,87,-1
 1491 213 l 2,88,89
 1491 168.959 1491 168.959 1495 136.5 c 128,-1,90
 1499.01 103.982 1499.01 103.982 1513.5 82.5 c 128,-1,91
 1528.01 60.9949 1528.01 60.9949 1556 50.5 c 128,-1,92
 1584.01 40 1584.01 40 1633 40 c 1,93,-1
 1633 0 l 1,94,-1
 1166 0 l 1,0,-1
EndSplineSet
Validated: 33
EndChar

StartChar: n
Encoding: 110 110 82
Width: 1054
VWidth: 2796
GlyphClass: 2
Flags: MW
LayerCount: 2
Fore
SplineSet
579 0 m 1,0,-1
 579 40 l 1,1,2
 632 40 632 40 663 48 c 128,-1,3
 694 56 694 56 709.5 76 c 128,-1,4
 725 95.9999 725 95.9999 729 129 c 128,-1,5
 733 162 733 162 733 213 c 2,6,-1
 733 598 l 2,7,8
 733 638 733 638 729.5 681.5 c 128,-1,9
 726 725 726 725 711 761 c 128,-1,10
 696 797 696 797 666 820.5 c 128,-1,11
 636 844 636 844 584 844 c 0,12,13
 547 844 547 844 513 832.5 c 128,-1,14
 479 821 479 821 448.5 802.5 c 128,-1,15
 418 784 418 784 391.5 759.5 c 128,-1,16
 365 735 365 735 341 710 c 1,17,-1
 341 213 l 2,18,19
 341 163.999 341 163.999 345.5 130.5 c 128,-1,20
 350 97.0005 350 97.0005 365 76.5 c 128,-1,21
 380 56 380 56 410.5 48 c 128,-1,22
 441 40 441 40 494 40 c 1,23,-1
 494 0 l 1,24,-1
 25 0 l 1,25,-1
 25 40 l 1,26,27
 76 40 76 40 105 50 c 128,-1,28
 133.999 60 133.999 60 148 81 c 128,-1,29
 161.999 102 161.999 102 165 135 c 128,-1,30
 168 168 168 168 168 213 c 2,31,-1
 168 565 l 2,32,33
 168 587 168 587 169.5 632 c 128,-1,34
 171 676.996 171 676.996 166 722 c 128,-1,35
 161.001 767 161.001 767 145.5 801.5 c 128,-1,36
 130.001 836 130.001 836 96 836 c 0,37,38
 78 836 78 836 60 831 c 128,-1,39
 42 826 42 826 25 819 c 1,40,-1
 11 856 l 1,41,-1
 299 971 l 1,42,-1
 341 971 l 1,43,-1
 341 771 l 1,44,45
 369.993 806.992 369.993 806.992 405 842.5 c 128,-1,46
 440 878 440 878 479.5 906.5 c 128,-1,47
 519 935 519 935 564 953 c 128,-1,48
 609 971 609 971 657 971 c 0,49,50
 733 971 733 971 781.5 939.5 c 128,-1,51
 830 908 830 908 857.5 857 c 128,-1,52
 885 806 885 806 894.5 743 c 128,-1,53
 904 680 904 680 904 616 c 2,54,-1
 904 213 l 2,55,56
 904 168 904 168 908 135 c 128,-1,57
 912 102 912 102 926.5 81 c 128,-1,58
 941 60 941 60 971 50 c 128,-1,59
 1001 40 1001 40 1051 40 c 1,60,-1
 1051 0 l 1,61,-1
 579 0 l 1,0,-1
EndSplineSet
Validated: 33
EndChar

StartChar: o
Encoding: 111 111 83
Width: 1054
VWidth: 2796
GlyphClass: 2
Flags: MW
LayerCount: 2
Fore
SplineSet
982 489 m 0,0,1
 982 386 982 386 950 292 c 128,-1,2
 918 197.999 918 197.999 857.5 126.5 c 128,-1,3
 797 54.9999 797 54.9999 711 12 c 128,-1,4
 625 -31 625 -31 517 -31 c 0,5,6
 415 -31 415 -31 332.5 10.5 c 128,-1,7
 250 52 250 52 192 120 c 128,-1,8
 133.999 187.999 133.999 187.999 102 277 c 128,-1,9
 70.0001 366 70.0001 366 70 461 c 0,10,11
 70 561 70 561 102 653 c 128,-1,12
 133.999 745 133.999 745 194 815.5 c 128,-1,13
 254 886 254 886 338.5 928.5 c 128,-1,14
 423 971 423 971 528 971 c 0,15,16
 631 971 631 971 715 933.5 c 128,-1,17
 799 896 799 896 858.5 830.5 c 128,-1,18
 918 765 918 765 950 676.5 c 128,-1,19
 982 588 982 588 982 489 c 0,0,1
789 408 m 0,20,21
 789 453 789 453 783.5 508 c 128,-1,22
 777.999 563.002 777.999 563.002 764.5 618 c 128,-1,23
 751 673 751 673 729 724.5 c 128,-1,24
 707 776 707 776 674.5 816 c 128,-1,25
 642 856 642 856 597.5 880 c 128,-1,26
 553 904 553 904 494 904 c 0,27,28
 425 904 425 904 380 869 c 128,-1,29
 335 834 335 834 309 781.5 c 128,-1,30
 283 729 283 729 273.5 666 c 128,-1,31
 264 603 264 603 264 547 c 0,32,33
 264 502 264 502 270 447.5 c 128,-1,34
 276 392.999 276 392.999 289.5 337 c 128,-1,35
 303 281 303 281 325.5 228.5 c 128,-1,36
 348 176 348 176 381 135 c 128,-1,37
 414 94.0005 414 94.0005 458 69.5 c 128,-1,38
 502 45 502 45 560 45 c 0,39,40
 634 45 634 45 679 80 c 128,-1,41
 724 114.999 724 114.999 748.5 169 c 128,-1,42
 773 223 773 223 781 287 c 128,-1,43
 789 351 789 351 789 408 c 0,20,21
EndSplineSet
Validated: 1
EndChar

StartChar: p
Encoding: 112 112 84
Width: 1054
VWidth: 2796
GlyphClass: 2
Flags: MW
LayerCount: 2
Fore
SplineSet
984 507 m 0,0,1
 984 411 984 411 957 314.5 c 128,-1,2
 930 218.001 930 218.001 875.5 142 c 128,-1,3
 821 65.9999 821 65.9999 739.5 17.5 c 128,-1,4
 658 -31 658 -31 550 -31 c 0,5,6
 487 -31 487 -31 430.5 -9.5 c 128,-1,7
 374 12 374 12 328 56 c 1,8,-1
 328 -232 l 2,9,10
 328 -284 328 -284 332 -318 c 128,-1,11
 336 -352 336 -352 351.5 -372.5 c 128,-1,12
 367 -393 367 -393 399 -402.5 c 128,-1,13
 431 -412 431 -412 486 -414 c 1,14,-1
 486 -453 l 1,15,-1
 -11 -453 l 1,16,-1
 -11 -414 l 1,17,18
 46 -412 46 -412 79 -403.5 c 128,-1,19
 112 -395 112 -395 127.5 -374.5 c 128,-1,20
 142.999 -354 142.999 -354 147.5 -318.5 c 128,-1,21
 152 -283 152 -283 152 -227 c 2,22,-1
 152 665 l 2,23,24
 152 687.971 152 687.971 152.5 716.5 c 128,-1,25
 152.999 745 152.999 745 147 770.5 c 128,-1,26
 141 796 141 796 125 813 c 128,-1,27
 108.999 830 108.999 830 75 830 c 0,28,29
 38 830 38 830 5 814 c 1,30,-1
 -5 851 l 1,31,-1
 288 968 l 1,32,-1
 328 968 l 1,33,-1
 328 747 l 1,34,35
 352 789 352 789 382 829.5 c 128,-1,36
 412 870 412 870 449.5 901.5 c 128,-1,37
 487 933 487 933 531.5 952 c 128,-1,38
 576 971 576 971 629 971 c 0,39,40
 722 971 722 971 789 928 c 128,-1,41
 856 885 856 885 899 818 c 128,-1,42
 942 751 942 751 963 668.5 c 128,-1,43
 984 586 984 586 984 507 c 0,0,1
819 408 m 0,44,45
 819 474 819 474 807.5 549.5 c 128,-1,46
 796 625 796 625 766 690.5 c 128,-1,47
 736 756 736 756 683.5 800 c 128,-1,48
 631 844 631 844 547 844 c 0,49,50
 515 844 515 844 483.5 827.5 c 128,-1,51
 452 811 452 811 424 787 c 128,-1,52
 396 763 396 763 372 736 c 2,53,-1
 328 685 l 1,54,-1
 328 333 l 2,55,56
 328 274 328 274 334.5 220.5 c 128,-1,57
 341 166.999 341 166.999 364.5 125 c 128,-1,58
 388 83 388 83 431 58.5 c 128,-1,59
 474 34 474 34 547 34 c 0,60,61
 624 34 624 34 676 69 c 128,-1,62
 728 104 728 104 759.5 158.5 c 128,-1,63
 791 212.999 791 212.999 805 279 c 128,-1,64
 819 345 819 345 819 408 c 0,44,45
EndSplineSet
Validated: 33
EndChar

StartChar: q
Encoding: 113 113 85
Width: 1054
VWidth: 2796
GlyphClass: 2
Flags: MW
LayerCount: 2
Fore
SplineSet
579 -453 m 1,0,-1
 579 -414 l 1,1,2
 631 -414 631 -414 661 -405.5 c 128,-1,3
 691 -397 691 -397 707.5 -377.5 c 128,-1,4
 724 -358 724 -358 728.5 -325 c 128,-1,5
 733 -292 733 -292 733 -243 c 2,6,-1
 733 165 l 1,7,8
 705.005 131.006 705.005 131.006 670 95.5 c 128,-1,9
 635 59.9999 635 59.9999 596 32 c 128,-1,10
 557 3.99995 557 3.99995 513.5 -13.5 c 128,-1,11
 470 -31 470 -31 422 -31 c 0,12,13
 333 -31 333 -31 267 12 c 128,-1,14
 201 55 201 55 157 122.5 c 128,-1,15
 113.001 190 113.001 190 91.5 271 c 128,-1,16
 70.0001 352 70.0001 352 70 430 c 0,17,18
 70 537 70 537 103.5 635 c 128,-1,19
 136.999 733 136.999 733 199 807.5 c 128,-1,20
 260.999 882 260.999 882 351.5 926.5 c 128,-1,21
 442 971 442 971 557 971 c 0,22,23
 608 971 608 971 659.5 957 c 128,-1,24
 711 943 711 943 750 904 c 1,25,26
 812 933 812 933 867 971 c 1,27,-1
 904 971 l 1,28,-1
 904 -243 l 2,29,30
 904 -291 904 -291 908.5 -323.5 c 128,-1,31
 913 -356 913 -356 929 -376 c 128,-1,32
 945 -396 945 -396 975.5 -405 c 128,-1,33
 1006 -414 1006 -414 1057 -414 c 1,34,-1
 1057 -453 l 1,35,-1
 579 -453 l 1,0,-1
733 672 m 2,36,37
 733 777 733 777 684 837 c 128,-1,38
 635 897 635 897 523 897 c 0,39,40
 444 897 444 897 390 860 c 128,-1,41
 336 823 336 823 303 766.5 c 128,-1,42
 270 710 270 710 256.5 641 c 128,-1,43
 243 572 243 572 243 507 c 0,44,45
 243 440 243 440 258 370 c 128,-1,46
 273 300 273 300 307 243.5 c 128,-1,47
 341 186.999 341 186.999 395 151 c 128,-1,48
 449 115 449 115 528 115 c 0,49,50
 590 115 590 115 642 149 c 128,-1,51
 694 183.001 694 183.001 733 227 c 1,52,-1
 733 672 l 2,36,37
EndSplineSet
Validated: 1
EndChar

StartChar: r
Encoding: 114 114 86
Width: 720
VWidth: 2796
GlyphClass: 2
Flags: MW
LayerCount: 2
Fore
SplineSet
718 856 m 0,0,1
 718 818 718 818 690 789 c 128,-1,2
 662 760 662 760 624 760 c 0,3,4
 601 760 601 760 581 772 c 128,-1,5
 560.989 784.007 560.989 784.007 542.5 797 c 2,6,-1
 508.5 821.5 l 2,7,8
 493 833 493 833 478 833 c 0,9,10
 457 833 457 833 436 813 c 128,-1,11
 415 793 415 793 396.5 766.5 c 128,-1,12
 378 740 378 740 363 714 c 128,-1,13
 348 688 348 688 341 674 c 1,14,-1
 341 218 l 2,15,16
 341 128 341 128 375.5 84 c 128,-1,17
 410 40 410 40 507 40 c 1,18,-1
 507 0 l 1,19,-1
 19 0 l 1,20,-1
 19 40 l 1,21,22
 72 40 72 40 101.5 48 c 128,-1,23
 131.001 56 131.001 56 146 76.5 c 128,-1,24
 161 97.0001 161 97.0001 164.5 130.5 c 128,-1,25
 167.999 163.999 167.999 163.999 168 213 c 2,26,-1
 168 593 l 2,27,28
 168 608.966 168 608.966 167.5 641.5 c 128,-1,29
 167.001 674 167.001 674 164 709.5 c 128,-1,30
 161 745 161 745 155 776.5 c 128,-1,31
 149 808 149 808 137 822 c 1,32,33
 114.999 833 114.999 833 83 833 c 0,34,35
 53 833 53 833 19 819 c 1,36,-1
 8 856 l 1,37,-1
 299 971 l 1,38,-1
 341 971 l 1,39,-1
 341 758 l 1,40,41
 359 791 359 791 383.5 827.5 c 128,-1,42
 408 864 408 864 439 896 c 128,-1,43
 470 928 470 928 506 949.5 c 128,-1,44
 542 971 542 971 584 971 c 0,45,46
 609 971 609 971 633.5 963.5 c 128,-1,47
 658 956 658 956 676.5 941 c 128,-1,48
 695 926 695 926 706.5 904.5 c 128,-1,49
 718 883 718 883 718 856 c 0,0,1
EndSplineSet
Validated: 1
EndChar

StartChar: s
Encoding: 115 115 87
Width: 821
VWidth: 2796
GlyphClass: 2
Flags: MW
LayerCount: 2
Fore
SplineSet
747 238 m 0,0,1
 747 176.001 747 176.001 718 127 c 128,-1,2
 689 77.9999 689 77.9999 644 42.5 c 128,-1,3
 599 6.99995 599 6.99995 542.5 -12 c 128,-1,4
 486 -31 486 -31 430 -31 c 0,5,6
 397 -31 397 -31 362.5 -21 c 128,-1,7
 328 -10.9999 328 -10.9999 295 1.5 c 128,-1,8
 262 14 262 14 232.5 24 c 128,-1,9
 202.999 34 202.999 34 179 34 c 0,10,11
 173 34 173 34 167 28 c 128,-1,12
 161 22 161 22 156.5 14.5 c 128,-1,13
 151.998 6.99729 151.998 6.99729 148.5 -1.49999 c 128,-1,14
 145.001 -9.99837 145.001 -9.99837 142 -14 c 1,15,-1
 106 -14 l 1,16,-1
 106 322 l 1,17,-1
 142 322 l 1,18,19
 152.999 266 152.999 266 176 214 c 128,-1,20
 198.999 161.999 198.999 161.999 235.5 122 c 128,-1,21
 272 81.9999 272 81.9999 320.5 58 c 128,-1,22
 369 34 369 34 430 34 c 0,23,24
 461 34 461 34 490.5 43 c 128,-1,25
 520 52 520 52 542.5 69.5 c 128,-1,26
 565 87.0001 565 87.0001 579 113 c 128,-1,27
 593 138.999 593 138.999 593 173 c 0,28,29
 593 239 593 239 556.5 283.5 c 128,-1,30
 520 328 520 328 465.5 362 c 128,-1,31
 411 396 411 396 348 426.5 c 128,-1,32
 285 457 285 457 230.5 496 c 128,-1,33
 176.001 535 176.001 535 140 587.5 c 128,-1,34
 104 640 104 640 104 718 c 0,35,36
 104 784 104 784 130 831 c 128,-1,37
 155.999 878 155.999 878 198 909.5 c 128,-1,38
 240 941 240 941 295.5 956 c 128,-1,39
 351 971 351 971 408 971 c 0,40,41
 436 971 436 971 461.5 965.5 c 128,-1,42
 487 960 487 960 513 952.5 c 128,-1,43
 539 945 539 945 564.5 939.5 c 128,-1,44
 590 934 590 934 616 934 c 0,45,46
 632 934 632 934 642.5 945 c 128,-1,47
 653 956 653 956 659 971 c 1,48,-1
 696 971 l 1,49,-1
 696 649 l 1,50,-1
 659 649 l 1,51,52
 649 699 649 699 629 746 c 128,-1,53
 609 793 609 793 579 830 c 128,-1,54
 549 867 549 867 506 889.5 c 128,-1,55
 463 912 463 912 406 912 c 0,56,57
 375 912 375 912 343 906.5 c 128,-1,58
 311 901 311 901 284.5 887.5 c 128,-1,59
 258 874 258 874 241 849.5 c 128,-1,60
 224.001 825 224.001 825 224 785 c 0,61,62
 224 717 224 717 263 674 c 128,-1,63
 302 631 302 631 360 599 c 128,-1,64
 418 567 418 567 485.5 538 c 128,-1,65
 553 509 553 509 611 471.5 c 128,-1,66
 669 434 669 434 708 379 c 128,-1,67
 747 324 747 324 747 238 c 0,0,1
EndSplineSet
Validated: 1
EndChar

StartChar: t
Encoding: 116 116 88
Width: 587
VWidth: 2796
GlyphClass: 2
Flags: MW
LayerCount: 2
Fore
SplineSet
587 173 m 1,0,1
 576 135.001 576 135.001 554 98 c 128,-1,2
 532 60.9999 532 60.9999 501.5 32.5 c 128,-1,3
 471 4 471 4 433.5 -13.5 c 128,-1,4
 396 -31 396 -31 352 -31 c 0,5,6
 298 -31 298 -31 261.5 -10 c 128,-1,7
 225.001 11 225.001 11 203.5 46 c 128,-1,8
 182.001 80.9999 182.001 80.9999 173.5 126 c 128,-1,9
 164.999 171 164.999 171 165 218 c 2,10,-1
 165 872 l 1,11,-1
 16 872 l 1,12,-1
 16 904 l 1,13,14
 70 924 70 924 114 962.5 c 128,-1,15
 157.999 1001 157.999 1001 194.5 1049.5 c 128,-1,16
 230.982 1097.97 230.982 1097.97 259 1151 c 128,-1,17
 287 1203.99 287 1203.99 307 1253 c 1,18,-1
 339 1253 l 1,19,-1
 339 942 l 1,20,-1
 560 942 l 1,21,-1
 560 872 l 1,22,-1
 339 872 l 1,23,-1
 339 243 l 2,24,25
 339 220.001 339 220.001 342 192.5 c 128,-1,26
 345 165.001 345 165.001 355 141 c 128,-1,27
 365 117 365 117 383 101.5 c 128,-1,28
 401 86.0001 401 86.0001 430 86 c 0,29,30
 477 86 477 86 504 110 c 128,-1,31
 531 134 531 134 547 173 c 1,32,-1
 587 173 l 1,0,1
EndSplineSet
Validated: 1
EndChar

StartChar: u
Encoding: 117 117 89
Width: 1054
VWidth: 2796
GlyphClass: 2
Flags: MW
LayerCount: 2
Fore
SplineSet
771 -31 m 1,0,-1
 724 -31 l 1,1,-1
 724 171 l 1,2,-1
 656.5 101.5 l 2,3,4
 621 65.9999 621 65.9999 581 36.5 c 128,-1,5
 541 6.99995 541 6.99995 496.5 -12 c 128,-1,6
 452 -31 452 -31 403 -31 c 0,7,8
 326 -31 326 -31 278.5 3 c 128,-1,9
 230.999 37 230.999 37 204 90 c 128,-1,10
 177 142.999 177 142.999 168.5 208.5 c 128,-1,11
 159.999 274.001 159.999 274.001 160 336 c 2,12,-1
 160 758 l 2,13,14
 160 804 160 804 151.5 833 c 128,-1,15
 142.999 862 142.999 862 124 877.5 c 128,-1,16
 104.999 893 104.999 893 74.5 898.5 c 128,-1,17
 44 904 44 904 0 904 c 1,18,-1
 0 942 l 1,19,-1
 333 942 l 1,20,-1
 333 313 l 2,21,22
 333 272 333 272 339 233.5 c 128,-1,23
 345 194.999 345 194.999 362.5 165 c 128,-1,24
 380 135 380 135 410.5 116.5 c 128,-1,25
 441 98.0005 441 98.0005 489 98 c 0,26,27
 522.998 98 522.998 98 555.5 110.5 c 128,-1,28
 588 122.999 588 122.999 618.5 142 c 128,-1,29
 649 161.001 649 161.001 675.5 185 c 128,-1,30
 701.99 208.99 701.99 208.99 724 232 c 1,31,-1
 724 766 l 2,32,33
 724 810 724 810 715 836.5 c 128,-1,34
 706 863 706 863 687.5 878 c 128,-1,35
 669 893 669 893 639.5 898.5 c 128,-1,36
 610 904 610 904 571 904 c 1,37,-1
 571 942 l 1,38,-1
 894 942 l 1,39,-1
 894 248 l 2,40,41
 894 233 894 233 895.5 208.5 c 128,-1,42
 897 184.001 897 184.001 903 161.5 c 128,-1,43
 909 139 909 139 922 122.5 c 128,-1,44
 935 106 935 106 958 106 c 0,45,46
 1001 106 1001 106 1043 123 c 1,47,-1
 1057 86 l 1,48,-1
 771 -31 l 1,0,-1
EndSplineSet
Validated: 1
EndChar

StartChar: v
Encoding: 118 118 90
Width: 1054
VWidth: 2796
GlyphClass: 2
Flags: MW
LayerCount: 2
Fore
SplineSet
1035 904 m 1,0,1
 1002 902 1002 902 980 893.5 c 128,-1,2
 958 885 958 885 943 869 c 128,-1,3
 928 853 928 853 917.5 830.5 c 2,4,-1
 894 780 l 1,5,-1
 563 -31 l 1,6,-1
 520 -31 l 1,7,-1
 182 769 l 2,8,9
 166.999 803.003 166.999 803.003 152.5 826 c 128,-1,10
 137.999 849 137.999 849 119.5 864 c 128,-1,11
 101.001 879 101.001 879 76.5 888.5 c 128,-1,12
 52 898 52 898 16 904 c 1,13,-1
 16 942 l 1,14,-1
 461 942 l 1,15,-1
 461 904 l 1,16,17
 440 904 440 904 419.5 902.5 c 128,-1,18
 399 901 399 901 384 894 c 128,-1,19
 369 887 369 887 359.5 872 c 128,-1,20
 350 857 350 857 350 830 c 0,21,22
 350 807 350 807 356.5 786.5 c 128,-1,23
 362.995 766.013 362.995 766.013 371 747 c 2,24,-1
 590 227 l 1,25,-1
 811 769 l 2,26,27
 819 788 819 788 826 810.5 c 128,-1,28
 833 833 833 833 833 856 c 0,29,30
 833 875 833 875 822 884.5 c 128,-1,31
 811 894 811 894 794.5 898 c 128,-1,32
 778 902 778 902 759.5 903 c 128,-1,33
 741 904 741 904 726 904 c 1,34,-1
 726 942 l 1,35,-1
 1035 942 l 1,36,-1
 1035 904 l 1,0,1
EndSplineSet
Validated: 1
EndChar

StartChar: w
Encoding: 119 119 91
Width: 1520
VWidth: 2796
GlyphClass: 2
Flags: MW
LayerCount: 2
Fore
SplineSet
1505 904 m 1,0,1
 1454 897 1454 897 1422 865 c 128,-1,2
 1390.01 833 1390.01 833 1371 785 c 2,3,-1
 1057 -31 l 1,4,-1
 1014 -31 l 1,5,-1
 777 573 l 1,6,-1
 507 -31 l 1,7,-1
 467 -31 l 1,8,-1
 162 763 l 2,9,10
 149.998 796.004 149.998 796.004 138.5 820 c 128,-1,11
 126.999 844 126.999 844 110.5 860.5 c 128,-1,12
 94 877 94 877 71 887 c 128,-1,13
 48 897 48 897 11 904 c 1,14,-1
 11 942 l 1,15,-1
 408 942 l 1,16,-1
 408 904 l 1,17,18
 374 904 374 904 348 892.5 c 128,-1,19
 322 881 322 881 322 838 c 0,20,21
 322 819 322 819 325.5 799.5 c 128,-1,22
 329 780 329 780 336 763 c 2,23,-1
 539 221 l 1,24,-1
 741 662 l 1,25,26
 724 711 724 711 711.5 754 c 128,-1,27
 699 797 699 797 679 830 c 128,-1,28
 659 863 659 863 628 882.5 c 128,-1,29
 597 902 597 902 539 904 c 1,30,-1
 539 942 l 1,31,-1
 990 942 l 1,32,-1
 990 904 l 1,33,34
 967 902 967 902 944.5 899.5 c 128,-1,35
 922 897 922 897 903.5 889.5 c 128,-1,36
 885 882 885 882 873.5 866.5 c 128,-1,37
 862 851 862 851 862 822 c 0,38,39
 862 811 862 811 876 768.5 c 128,-1,40
 890 726 890 726 912.5 667.5 c 2,41,-1
 962.5 543 l 1,42,-1
 1015 416 l 1,43,-1
 1060 308 l 1,44,-1
 1088 243 l 1,45,-1
 1283 763 l 2,46,47
 1292.02 785.044 1292.02 785.044 1298.5 807.5 c 128,-1,48
 1305 830.018 1305 830.018 1305 853 c 0,49,50
 1305 871.005 1305 871.005 1295 881.5 c 128,-1,51
 1284.99 892.004 1284.99 892.004 1269 896.5 c 128,-1,52
 1252.99 901 1252.99 901 1236 902.5 c 128,-1,53
 1219.01 904 1219.01 904 1206 904 c 1,54,-1
 1206 942 l 1,55,-1
 1505 942 l 1,56,-1
 1505 904 l 1,0,1
EndSplineSet
Validated: 1
EndChar

StartChar: x
Encoding: 120 120 92
Width: 1054
VWidth: 2796
GlyphClass: 2
Flags: MW
LayerCount: 2
Fore
SplineSet
584 0 m 1,0,-1
 584 40 l 1,1,2
 599 40 599 40 615.5 42 c 128,-1,3
 632 44 632 44 645.5 50 c 128,-1,4
 659 56 659 56 668 67.5 c 128,-1,5
 677 79.0001 677 79.0001 677 98 c 0,6,7
 677 108.001 677 108.001 664 132 c 128,-1,8
 651 156 651 156 630.5 188 c 2,9,-1
 586.5 255.5 l 2,10,11
 562.991 291.014 562.991 291.014 539.5 323 c 2,12,-1
 498.5 380.5 l 2,13,14
 481 406 481 406 472 416 c 1,15,16
 463 404 463 404 442.5 379.5 c 2,17,-1
 397.5 324.5 l 1,18,-1
 347 260.5 l 2,19,20
 321 227.001 321 227.001 300 195.5 c 128,-1,21
 279 164 279 164 265 139.5 c 128,-1,22
 251.001 115.001 251.001 115.001 251 101 c 0,23,24
 251 81.9999 251 81.9999 260 70.5 c 128,-1,25
 269 59 269 59 282.5 52 c 128,-1,26
 296 45 296 45 312.5 42.5 c 128,-1,27
 329 40 329 40 344 40 c 1,28,-1
 344 0 l 1,29,-1
 37 0 l 1,30,-1
 37 40 l 1,31,32
 66 41 66 41 94 61 c 128,-1,33
 122.001 80.9999 122.001 80.9999 147 108 c 128,-1,34
 172.001 135 172.001 135 194 165 c 2,35,-1
 232 216 l 1,36,-1
 430 478 l 1,37,-1
 251 739 l 1,38,-1
 206.5 802 l 2,39,40
 185.999 831 185.999 831 161.5 853 c 128,-1,41
 137.001 875 137.001 875 104.5 888 c 128,-1,42
 71.9999 901 71.9999 901 27 904 c 1,43,-1
 27 942 l 1,44,-1
 472 942 l 1,45,-1
 472 904 l 1,46,-1
 461 904 l 2,47,48
 436 907 436 907 415.5 896 c 128,-1,49
 395 885 395 885 395 853 c 0,50,51
 395 841 395 841 413 808.5 c 128,-1,52
 431 776 431 776 455 737.5 c 2,53,-1
 501.5 665.5 l 1,54,-1
 534 618 l 1,55,56
 543 632 543 632 568.5 665.5 c 2,57,-1
 620 736.5 l 2,58,59
 646 774 646 774 665.5 808 c 128,-1,60
 685 842 685 842 685 856 c 0,61,62
 685 871 685 871 678.5 880.5 c 128,-1,63
 672 890 672 890 660.5 895.5 c 128,-1,64
 649 901 649 901 635 902.5 c 128,-1,65
 621 904 621 904 609 904 c 1,66,-1
 609 942 l 1,67,-1
 928 942 l 1,68,-1
 928 904 l 1,69,70
 874 902 874 902 821.5 860 c 128,-1,71
 769 818 769 818 722.5 761.5 c 128,-1,72
 676 705 676 705 637.5 645.5 c 128,-1,73
 599 586 599 586 573 550 c 1,74,-1
 808 216 l 1,75,-1
 853 152.5 l 2,76,77
 875 122.001 875 122.001 900.5 97 c 128,-1,78
 926 71.9999 926 71.9999 956.5 57 c 128,-1,79
 987 42 987 42 1029 40 c 1,80,-1
 1029 0 l 1,81,-1
 584 0 l 1,0,-1
EndSplineSet
Validated: 33
EndChar

StartChar: y
Encoding: 121 121 93
Width: 1054
VWidth: 2796
GlyphClass: 2
Flags: MW
LayerCount: 2
Fore
SplineSet
1043 904 m 1,0,1
 1010 901 1010 901 988.5 889 c 128,-1,2
 967 877 967 877 951 857.5 c 128,-1,3
 935 838 935 838 925 813.5 c 2,4,-1
 904 763 l 1,5,-1
 520 -179 l 2,6,7
 500 -227 500 -227 469 -276.5 c 128,-1,8
 438 -326 438 -326 397 -366 c 128,-1,9
 356 -406 356 -406 307 -431 c 128,-1,10
 258 -456 258 -456 201 -456 c 0,11,12
 175 -456 175 -456 149.5 -448.5 c 128,-1,13
 124 -441 124 -441 105 -426 c 128,-1,14
 85.9999 -411 85.9999 -411 73.5 -389 c 128,-1,15
 61.0001 -367 61.0001 -367 61 -339 c 0,16,17
 61 -288 61 -288 90 -267 c 128,-1,18
 118.999 -246 118.999 -246 165 -246 c 0,19,20
 184.001 -246 184.001 -246 202.5 -251.5 c 128,-1,21
 221.008 -257.003 221.008 -257.003 239.5 -264.5 c 128,-1,22
 257.993 -271.997 257.993 -271.997 276 -277.5 c 128,-1,23
 294 -283 294 -283 310 -283 c 0,24,25
 337 -283 337 -283 361.5 -263 c 128,-1,26
 386 -243.001 386 -243.001 407.5 -212.5 c 128,-1,27
 429 -182.001 429 -182.001 446.5 -144 c 128,-1,28
 464 -106.001 464 -106.001 478.5 -70.5 c 128,-1,29
 493 -35 493 -35 503 -5 c 128,-1,30
 513 25 513 25 520 40 c 1,31,-1
 182 750 l 2,32,33
 168.005 776.991 168.005 776.991 152.5 803 c 128,-1,34
 137.001 829 137.001 829 117 850 c 128,-1,35
 97.0005 871 97.0005 871 71.5 885.5 c 128,-1,36
 46 900 46 900 11 904 c 1,37,-1
 11 942 l 1,38,-1
 453 942 l 1,39,-1
 453 904 l 1,40,41
 433 904 433 904 412.5 902.5 c 128,-1,42
 392 901 392 901 375 895 c 128,-1,43
 358 889 358 889 347 875.5 c 128,-1,44
 336 862 336 862 336 836 c 0,45,46
 336 807 336 807 347.5 778.5 c 128,-1,47
 359 750 359 750 371 724 c 2,48,-1
 601 248 l 1,49,-1
 811 771 l 1,50,-1
 826 808 l 2,51,52
 833 825 833 825 833 848 c 0,53,54
 833 868 833 868 824 880 c 128,-1,55
 815 892 815 892 800.5 897 c 128,-1,56
 786 902 786 902 769 903 c 128,-1,57
 752 904 752 904 736 904 c 1,58,-1
 736 942 l 1,59,-1
 1043 942 l 1,60,-1
 1043 904 l 1,0,1
EndSplineSet
Validated: 1
EndChar

StartChar: z
Encoding: 122 122 94
Width: 936
VWidth: 2796
GlyphClass: 2
Flags: MW
LayerCount: 2
Fore
SplineSet
269 70 m 1,0,-1
 616 70 l 2,1,2
 688 70 688 70 730.5 78.5 c 128,-1,3
 773 87.0001 773 87.0001 797 111 c 128,-1,4
 821 135 821 135 831.5 177.5 c 128,-1,5
 842 219.999 842 219.999 851 288 c 1,6,-1
 886 288 l 1,7,-1
 872 0 l 1,8,-1
 42 0 l 1,9,-1
 42 40 l 1,10,-1
 668 872 l 1,11,-1
 358 872 l 2,12,13
 299 872 299 872 261 865.5 c 128,-1,14
 223.001 859 223.001 859 199.5 838.5 c 128,-1,15
 175.999 818 175.999 818 164 780.5 c 128,-1,16
 152 743 152 743 145 683 c 1,17,-1
 106 683 l 1,18,-1
 112 942 l 1,19,-1
 904 942 l 1,20,-1
 904 904 l 1,21,-1
 269 70 l 1,0,-1
EndSplineSet
Validated: 1
EndChar

StartChar: braceleft
Encoding: 123 123 95
Width: 1006
VWidth: 2796
GlyphClass: 2
Flags: MW
LayerCount: 2
Fore
SplineSet
797 -453 m 1,0,1
 722 -445 722 -445 653 -411.5 c 128,-1,2
 584 -378 584 -378 531 -325.5 c 128,-1,3
 478 -273 478 -273 446 -205 c 128,-1,4
 414 -137.001 414 -137.001 414 -59 c 0,5,6
 414 -19 414 -19 421.5 20 c 128,-1,7
 429 59 429 59 437.5 98 c 128,-1,8
 445.997 136.983 445.997 136.983 453.5 175.5 c 128,-1,9
 461 214.001 461 214.001 461 254 c 0,10,11
 461 299 461 299 440 338 c 128,-1,12
 419 377 419 377 385 406.5 c 128,-1,13
 351 436 351 436 308.5 454 c 128,-1,14
 266 472 266 472 224 478 c 1,15,-1
 224 531 l 1,16,17
 266 537 266 537 308.5 555 c 128,-1,18
 351 573 351 573 385 602 c 128,-1,19
 419 631 419 631 440 669 c 128,-1,20
 461 707 461 707 461 752 c 0,21,22
 461 795 461 795 453.5 836 c 128,-1,23
 446 877 446 877 437.5 917.5 c 128,-1,24
 429 958 429 958 421.5 999 c 128,-1,25
 414 1039.99 414 1039.99 414 1083 c 0,26,27
 414 1159.01 414 1159.01 446.5 1225.5 c 128,-1,28
 479 1291.99 479 1291.99 533.5 1341.5 c 128,-1,29
 588 1391 588 1391 657 1423 c 128,-1,30
 726 1454.99 726 1454.99 797 1462 c 1,31,-1
 797 1425 l 1,32,33
 689 1401 689 1401 628.5 1334.5 c 128,-1,34
 568 1268.01 568 1268.01 568 1155 c 0,35,36
 568 1120.01 568 1120.01 575 1084.5 c 128,-1,37
 581.994 1049.03 581.994 1049.03 590.5 1013.5 c 128,-1,38
 598.996 978.018 598.996 978.018 606 942.5 c 128,-1,39
 613 907.002 613 907.002 613 870 c 0,40,41
 613 729 613 729 536 641 c 128,-1,42
 459 553 459 553 330 507 c 1,43,44
 460 459 460 459 536.5 369.5 c 128,-1,45
 613 280 613 280 613 137 c 0,46,47
 613 99.9995 613 99.9995 606 65 c 128,-1,48
 598.995 29.9767 598.995 29.9767 590.5 -5 c 128,-1,49
 582.005 -39.9753 582.005 -39.9753 575 -74.5 c 128,-1,50
 568 -109 568 -109 568 -145 c 0,51,52
 568 -259 568 -259 628.5 -325.5 c 128,-1,53
 689 -392 689 -392 797 -416 c 1,54,-1
 797 -453 l 1,0,1
EndSplineSet
Validated: 1
EndChar

StartChar: bar
Encoding: 124 124 96
Width: 421
VWidth: 2796
GlyphClass: 2
Flags: MW
LayerCount: 2
Fore
SplineSet
165 -456 m 1,0,-1
 165 1462 l 1,1,-1
 254 1462 l 1,2,-1
 254 -456 l 1,3,-1
 165 -456 l 1,0,-1
EndSplineSet
Validated: 1
EndChar

StartChar: braceright
Encoding: 125 125 97
Width: 1006
VWidth: 2796
GlyphClass: 2
Flags: MW
LayerCount: 2
Fore
SplineSet
782 478 m 1,0,1
 741 472 741 472 699 454 c 128,-1,2
 657 436 657 436 623.5 406.5 c 128,-1,3
 590 377 590 377 568.5 338 c 128,-1,4
 547 299 547 299 547 254 c 0,5,6
 547 213.998 547 213.998 554 175.5 c 128,-1,7
 561.002 136.992 561.002 136.992 570 98 c 128,-1,8
 579 59 579 59 586 20 c 128,-1,9
 593 -19 593 -19 593 -59 c 0,10,11
 593 -137 593 -137 560.5 -205 c 128,-1,12
 528 -272.999 528 -272.999 475 -325.5 c 128,-1,13
 422 -378 422 -378 353 -411.5 c 128,-1,14
 284 -445 284 -445 210 -453 c 1,15,-1
 210 -416 l 1,16,17
 317 -392 317 -392 378.5 -325.5 c 128,-1,18
 440 -259 440 -259 440 -145 c 0,19,20
 440 -109 440 -109 433 -74.5 c 128,-1,21
 426 -40 426 -40 417 -5 c 128,-1,22
 408 30 408 30 401.5 65 c 128,-1,23
 395 99.9999 395 99.9999 395 137 c 0,24,25
 395 209 395 209 415.5 266.5 c 128,-1,26
 436 324 436 324 472.5 369.5 c 128,-1,27
 509 415 509 415 561 448.5 c 128,-1,28
 613 482 613 482 677 507 c 1,29,30
 549 553 549 553 472 641 c 128,-1,31
 395 729 395 729 395 870 c 0,32,33
 395 906.997 395 906.997 401.5 942.5 c 128,-1,34
 407.998 977.99 407.998 977.99 417 1013.5 c 128,-1,35
 426.007 1049.03 426.007 1049.03 433 1084.5 c 128,-1,36
 440 1120.01 440 1120.01 440 1155 c 0,37,38
 440 1267.99 440 1267.99 378.5 1334.5 c 128,-1,39
 317 1400.99 317 1400.99 210 1425 c 1,40,-1
 210 1462 l 1,41,42
 283 1454.99 283 1454.99 352 1423 c 128,-1,43
 421 1391.01 421 1391.01 474 1341.5 c 128,-1,44
 527 1292 527 1292 560 1225.5 c 128,-1,45
 593 1159.01 593 1159.01 593 1083 c 0,46,47
 593 1039.99 593 1039.99 586 999 c 128,-1,48
 579 958 579 958 570 917.5 c 128,-1,49
 561 877 561 877 554 836 c 128,-1,50
 547 795 547 795 547 752 c 0,51,52
 547 707 547 707 568.5 669 c 128,-1,53
 590 631 590 631 623.5 602 c 128,-1,54
 657 573 657 573 699 555 c 128,-1,55
 741 537 741 537 782 531 c 1,56,-1
 782 478 l 1,0,1
EndSplineSet
Validated: 1
EndChar

StartChar: asciitilde
Encoding: 126 126 98
Width: 1146
VWidth: 2796
GlyphClass: 2
Flags: MW
LayerCount: 2
Fore
SplineSet
1107 649 m 1,0,1
 1084.98 605.978 1084.98 605.978 1056.5 566 c 128,-1,2
 1028 526 1028 526 992 494.5 c 128,-1,3
 956 463 956 463 912 444 c 128,-1,4
 868 425 868 425 816 425 c 0,5,6
 752 425 752 425 690.5 448.5 c 128,-1,7
 628.99 472.004 628.99 472.004 568 500 c 128,-1,8
 507 528 507 528 446 552 c 128,-1,9
 385 576 385 576 322 576 c 0,10,11
 280 576 280 576 247 557.5 c 128,-1,12
 214 539 214 539 187.5 510.5 c 128,-1,13
 160.999 482 160.999 482 139 448 c 128,-1,14
 116.999 414 116.999 414 98 381 c 1,15,-1
 42 456 l 1,16,17
 66 500 66 500 92.5 543.5 c 128,-1,18
 119.001 587 119.001 587 153.5 622 c 128,-1,19
 188 657 188 657 232 678 c 128,-1,20
 276 699 276 699 333 699 c 0,21,22
 392 699 392 699 457.5 674.5 c 128,-1,23
 522.995 650.003 522.995 650.003 588.5 620.5 c 128,-1,24
 654 591 654 591 715.5 566.5 c 128,-1,25
 777 542 777 542 827 542 c 0,26,27
 867 542 867 542 900.5 558.5 c 128,-1,28
 934 575 934 575 961.5 601 c 128,-1,29
 989 627 989 627 1010.5 660.5 c 128,-1,30
 1032.05 694.086 1032.05 694.086 1049 726 c 1,31,-1
 1107 649 l 1,0,1
EndSplineSet
Validated: 1
EndChar

StartChar: Euro
Encoding: 8364 8364 99
Width: 1297
VWidth: 2796
Flags: MW
LayerCount: 2
Fore
SplineSet
1222 272 m 1,0,1
 1180.01 197.023 1180.01 197.023 1136 139.5 c 128,-1,2
 1092.02 82.0164 1092.02 82.0164 1039 43 c 128,-1,3
 986.005 4 986.005 4 917 -15 c 128,-1,4
 848 -34 848 -34 755 -34 c 0,5,6
 640 -34 640 -34 540.5 7 c 128,-1,7
 441 48 441 48 363 121 c 128,-1,8
 285 194.001 285 194.001 232 295.5 c 128,-1,9
 179.001 397 179.001 397 157 517 c 1,10,-1
 3 517 l 1,11,-1
 45 618 l 1,12,-1
 145 618 l 1,13,14
 142 634 142 634 142 648 c 2,15,-1
 142 677 l 2,16,17
 142 696 142 696 143.5 714.5 c 128,-1,18
 145 733 145 733 145 752 c 1,19,-1
 0 752 l 1,20,-1
 42 853 l 1,21,-1
 160 853 l 1,22,23
 182.999 976 182.999 976 237 1081 c 128,-1,24
 291 1186 291 1186 372 1262.5 c 128,-1,25
 453 1339 453 1339 557.5 1382 c 128,-1,26
 662 1425.01 662 1425.01 785 1425 c 0,27,28
 871 1425 871 1425 932.5 1397 c 128,-1,29
 994 1368.99 994 1368.99 1038 1331 c 1,30,31
 1057.98 1330 1057.98 1330 1074 1339.5 c 128,-1,32
 1090 1348.99 1090 1348.99 1100.5 1363.5 c 128,-1,33
 1111 1378.01 1111 1378.01 1118.5 1395 c 128,-1,34
 1126 1411.99 1126 1411.99 1129 1425 c 1,35,-1
 1166 1425 l 1,36,-1
 1191 1021 l 1,37,-1
 1161 1021 l 1,38,39
 1140 1088 1140 1088 1105 1148 c 128,-1,40
 1070.03 1207.96 1070.03 1207.96 1024.5 1254 c 128,-1,41
 979.02 1299.99 979.02 1299.99 923 1326.5 c 128,-1,42
 867 1353.01 867 1353.01 803 1353 c 0,43,44
 696 1353 696 1353 621.5 1312 c 128,-1,45
 547 1271.01 547 1271.01 499 1201.5 c 128,-1,46
 451 1132.01 451 1132.01 425.5 1042 c 128,-1,47
 400 952 400 952 389 853 c 1,48,-1
 1046 853 l 1,49,-1
 1004 752 l 1,50,-1
 381 752 l 1,51,52
 381 730 381 730 379 712 c 128,-1,53
 377 694 377 694 377 674 c 0,54,55
 377 661 377 661 377.5 647.5 c 128,-1,56
 378 634 378 634 381 618 c 1,57,-1
 968 618 l 1,58,-1
 926 517 l 1,59,-1
 389 517 l 1,60,61
 403 419 403 419 435 335 c 128,-1,62
 467 251 467 251 521 189.5 c 128,-1,63
 575 128 575 128 652 93.5 c 128,-1,64
 729 59 729 59 833 59 c 0,65,66
 950 59 950 59 1034 123 c 128,-1,67
 1118 187.001 1118 187.001 1191 294 c 1,68,-1
 1222 272 l 1,0,1
EndSplineSet
Validated: 33
EndChar

StartChar: quotesinglbase
Encoding: 8218 8218 100
Width: 701
VWidth: 2796
Flags: MW
LayerCount: 2
Fore
SplineSet
512 0 m 0,0,1
 512 -66 512 -66 492 -118.5 c 128,-1,2
 472 -171 472 -171 437.5 -211 c 128,-1,3
 403 -251.001 403 -251.001 353.5 -280 c 128,-1,4
 304 -309 304 -309 246 -328 c 1,5,-1
 246 -285 l 1,6,7
 274 -269 274 -269 304.5 -246.5 c 128,-1,8
 335 -224 335 -224 360 -197.5 c 128,-1,9
 385 -170.999 385 -170.999 400.5 -138.5 c 128,-1,10
 416 -105.999 416 -105.999 416 -70 c 0,11,12
 416 -51 416 -51 411 -29.5 c 128,-1,13
 406 -8.00005 406 -8.00005 381 -8 c 0,14,15
 359 -8 359 -8 340 -16.5 c 128,-1,16
 321 -25 321 -25 302 -25 c 0,17,18
 280 -25 280 -25 261 -16 c 128,-1,19
 241.999 -7 241.999 -7 228 8 c 128,-1,20
 214.001 23 214.001 23 206 43 c 128,-1,21
 198 63 198 63 198 83 c 0,22,23
 198 111.999 198 111.999 209.5 134.5 c 128,-1,24
 221.001 157 221.001 157 241 172.5 c 128,-1,25
 260.999 187.999 260.999 187.999 285.5 196.5 c 128,-1,26
 309.998 205 309.998 205 336 205 c 0,27,28
 375 205 375 205 408 186.5 c 128,-1,29
 441 168.001 441 168.001 464 139.5 c 128,-1,30
 487 111 487 111 499.5 74 c 128,-1,31
 512 37 512 37 512 0 c 0,0,1
EndSplineSet
Validated: 1
EndChar

StartChar: florin
Encoding: 402 402 101
Width: 1054
VWidth: 2796
Flags: MW
LayerCount: 2
Fore
SplineSet
1029 1315 m 0,0,1
 1029 1279 1029 1279 1013 1256 c 128,-1,2
 996.995 1233.01 996.995 1233.01 958 1233 c 0,3,4
 930 1233 930 1233 912 1246 c 128,-1,5
 894 1259.01 894 1259.01 894 1289 c 0,6,7
 894 1307 894 1307 906 1326 c 128,-1,8
 918 1345.01 918 1345.01 918 1353 c 0,9,10
 918 1371 918 1371 907 1376.5 c 128,-1,11
 896.011 1382 896.011 1382 881 1382 c 0,12,13
 848 1382 848 1382 822.5 1352.5 c 128,-1,14
 797 1322.99 797 1322.99 778.5 1276.5 c 128,-1,15
 760.003 1230.01 760.003 1230.01 748.5 1174 c 128,-1,16
 737.005 1118.03 737.005 1118.03 729 1065 c 128,-1,17
 720.999 1011.99 720.999 1011.99 716 967.5 c 128,-1,18
 711 923 711 923 707 900 c 1,19,-1
 889 900 l 1,20,-1
 872 833 l 1,21,-1
 694 833 l 1,22,23
 662 647 662 647 613.5 466 c 2,24,-1
 517 104 l 2,25,26
 505 59 505 59 487.5 1.5 c 128,-1,27
 470 -56 470 -56 446 -116.5 c 128,-1,28
 421.997 -177.007 421.997 -177.007 391 -236 c 128,-1,29
 360 -295 360 -295 321.5 -340.5 c 128,-1,30
 283 -386 283 -386 234.5 -414 c 128,-1,31
 186.001 -442 186.001 -442 126 -442 c 0,32,33
 78 -442 78 -442 40.5 -415 c 128,-1,34
 3 -388 3 -388 3 -336 c 0,35,36
 3 -296 3 -296 20.5 -271 c 128,-1,37
 38 -245.999 38 -245.999 81 -246 c 0,38,39
 104 -246 104 -246 126.5 -261.5 c 128,-1,40
 149 -277 149 -277 149 -302 c 0,41,42
 149 -321 149 -321 136 -335.5 c 128,-1,43
 122.999 -350 122.999 -350 123 -360 c 0,44,45
 123 -373 123 -373 132 -377 c 128,-1,46
 141 -381 141 -381 152 -381 c 0,47,48
 186.999 -381 186.999 -381 213.5 -351 c 128,-1,49
 240.001 -321 240.001 -321 260 -279.5 c 128,-1,50
 280.001 -237.996 280.001 -237.996 292 -195 c 128,-1,51
 304 -151.999 304 -151.999 310 -126 c 0,52,53
 337 -20 337 -20 357.5 87.5 c 2,54,-1
 400 302 l 2,55,56
 427 437 427 437 459.5 568.5 c 2,57,-1
 526 833 l 1,58,-1
 347 833 l 1,59,-1
 360 900 l 1,60,61
 375 901 375 901 398 903 c 128,-1,62
 421 905 421 905 444 909 c 128,-1,63
 467.01 913.002 467.01 913.002 487.5 918.5 c 128,-1,64
 508 924 508 924 520 934 c 0,65,66
 543 953 543 953 561 996.5 c 128,-1,67
 579.012 1040.03 579.012 1040.03 597.5 1095 c 128,-1,68
 615.972 1149.92 615.972 1149.92 639 1208 c 128,-1,69
 662 1266.01 662 1266.01 695 1314.5 c 128,-1,70
 728 1362.99 728 1362.99 775 1394 c 128,-1,71
 822 1425.01 822 1425.01 889 1425 c 0,72,73
 912.98 1425 912.98 1425 938.5 1418.5 c 128,-1,74
 963.976 1412.01 963.976 1412.01 984.5 1398 c 128,-1,75
 1005 1384.01 1005 1384.01 1017 1363.5 c 128,-1,76
 1029 1342.99 1029 1342.99 1029 1315 c 0,0,1
EndSplineSet
Validated: 1
EndChar

StartChar: quotedblbase
Encoding: 8222 8222 102
Width: 933
VWidth: 2796
Flags: MW
LayerCount: 2
Fore
SplineSet
875 -3 m 0,0,1
 875 -68 875 -68 855.5 -120 c 128,-1,2
 836 -172.001 836 -172.001 801 -211.5 c 128,-1,3
 766 -250.999 766 -250.999 717 -280.5 c 128,-1,4
 668 -310 668 -310 609 -330 c 1,5,-1
 609 -285 l 1,6,7
 636 -269 636 -269 666 -247 c 128,-1,8
 696 -224.999 696 -224.999 721.5 -198.5 c 128,-1,9
 747 -171.999 747 -171.999 763.5 -140.5 c 128,-1,10
 780 -109 780 -109 780 -72 c 0,11,12
 780 -53 780 -53 773 -32 c 128,-1,13
 766 -11 766 -11 741 -11 c 0,14,15
 722 -11 722 -11 703 -18 c 128,-1,16
 684 -25 684 -25 665 -25 c 0,17,18
 621 -25 621 -25 592 7.5 c 128,-1,19
 563 40 563 40 563 83 c 0,20,21
 563 111.001 563 111.001 573.5 133.5 c 128,-1,22
 584 156 584 156 602.5 171.5 c 128,-1,23
 621 186.999 621 186.999 645.5 196 c 128,-1,24
 670 205 670 205 696 205 c 0,25,26
 737 205 737 205 770 186.5 c 128,-1,27
 803 168.001 803 168.001 827 138.5 c 128,-1,28
 851 108.999 851 108.999 863 72 c 128,-1,29
 875 35 875 35 875 -3 c 0,0,1
384 0 m 0,30,31
 384 -66 384 -66 364 -118.5 c 128,-1,32
 344 -171 344 -171 308.5 -211 c 128,-1,33
 273 -251.001 273 -251.001 224 -280 c 128,-1,34
 174.999 -309 174.999 -309 115 -328 c 1,35,-1
 115 -285 l 1,36,37
 143.001 -269 143.001 -269 173 -246.5 c 128,-1,38
 203 -224 203 -224 229 -197.5 c 128,-1,39
 254.999 -170.999 254.999 -170.999 271.5 -138.5 c 128,-1,40
 288 -105.999 288 -105.999 288 -70 c 0,41,42
 288 -60 288 -60 286.5 -50 c 128,-1,43
 285 -40 285 -40 281 -30 c 128,-1,44
 277 -20 277 -20 269 -14 c 128,-1,45
 261 -8 261 -8 248 -8 c 0,46,47
 229 -8 229 -8 211 -16.5 c 128,-1,48
 193 -25 193 -25 173 -25 c 0,49,50
 126.999 -25 126.999 -25 98.5 8 c 128,-1,51
 70 41 70 41 70 83 c 0,52,53
 70 141.001 70 141.001 111 173 c 128,-1,54
 151.999 204.999 151.999 204.999 205 205 c 0,55,56
 245.999 205 245.999 205 278.5 186.5 c 128,-1,57
 311 168.001 311 168.001 334.5 139.5 c 128,-1,58
 358 111 358 111 371 74 c 128,-1,59
 384 37 384 37 384 0 c 0,30,31
EndSplineSet
Validated: 1
EndChar

StartChar: ellipsis
Encoding: 8230 8230 103
Width: 2110
VWidth: 2796
Flags: MW
LayerCount: 2
Fore
SplineSet
1873 86 m 0,0,1
 1873 38 1873 38 1841 3.5 c 128,-1,2
 1809.01 -31 1809.01 -31 1759 -31 c 0,3,4
 1708 -31 1708 -31 1677.5 3.5 c 128,-1,5
 1647.01 38 1647.01 38 1647 86 c 0,6,7
 1647 135.001 1647 135.001 1679 168 c 128,-1,8
 1710.99 201 1710.99 201 1759 201 c 256,9,10
 1806.01 201 1806.01 201 1839.5 168 c 128,-1,11
 1872.99 135 1872.99 135 1873 86 c 0,0,1
1169 86 m 0,12,13
 1169 38 1169 38 1135.5 3.5 c 128,-1,14
 1102.01 -31 1102.01 -31 1054 -31 c 0,15,16
 1004.01 -31 1004.01 -31 971.5 3.5 c 128,-1,17
 939 38 939 38 939 86 c 0,18,19
 939 135.001 939 135.001 972.5 168 c 128,-1,20
 1006 201 1006 201 1054 201 c 256,21,22
 1102 201 1102 201 1135.5 168 c 128,-1,23
 1168.99 135 1168.99 135 1169 86 c 0,12,13
467 86 m 0,24,25
 467 38 467 38 435 3.5 c 128,-1,26
 403 -31 403 -31 352 -31 c 256,27,28
 302 -31 302 -31 271 3.5 c 128,-1,29
 239.999 38 239.999 38 240 86 c 0,30,31
 240 135.001 240 135.001 272 168 c 128,-1,32
 304 201 304 201 352 201 c 256,33,34
 400 201 400 201 433.5 168 c 128,-1,35
 467 135 467 135 467 86 c 0,24,25
EndSplineSet
Validated: 1
EndChar

StartChar: dagger
Encoding: 8224 8224 104
Width: 1054
VWidth: 2796
Flags: MW
LayerCount: 2
Fore
SplineSet
950 939 m 0,0,1
 950 892 950 892 919.5 866.5 c 128,-1,2
 889 841 889 841 844 841 c 0,3,4
 804 841 804 841 768 852 c 128,-1,5
 732 863 732 863 695 877.5 c 128,-1,6
 658.017 891.993 658.017 891.993 620.5 905 c 128,-1,7
 583 918 583 918 539 920 c 1,8,9
 542 851 542 851 565 787.5 c 128,-1,10
 588 724 588 724 643 680 c 1,11,12
 609.002 543.01 609.002 543.01 590 404.5 c 128,-1,13
 571 266 571 266 560.5 127 c 128,-1,14
 550 -12 550 -12 546.5 -151.5 c 128,-1,15
 543 -291 543 -291 539 -430 c 1,16,-1
 504 -430 l 1,17,18
 502 -292 502 -292 498 -152 c 128,-1,19
 494 -12 494 -12 484 128 c 128,-1,20
 473.998 268.014 473.998 268.014 453.5 406.5 c 128,-1,21
 433 545 433 545 397 680 c 1,22,23
 429 706 429 706 447.5 732.5 c 128,-1,24
 466 759 466 759 477.5 787.5 c 128,-1,25
 489 816 489 816 494.5 849 c 128,-1,26
 499.998 881.983 499.998 881.983 504 920 c 1,27,28
 464 919 464 919 427 906.5 c 128,-1,29
 390.022 894.008 390.022 894.008 354 880 c 2,30,-1
 282.5 853.5 l 2,31,32
 246.998 841 246.998 841 210 841 c 0,33,34
 157.999 841 157.999 841 131 864 c 128,-1,35
 104 887 104 887 104 939 c 0,36,37
 104 961 104 961 113 980 c 128,-1,38
 122 999 122 999 136 1013 c 128,-1,39
 150 1027 150 1027 170 1035 c 128,-1,40
 190 1043 190 1043 210 1043 c 0,41,42
 241.999 1043 241.999 1043 276 1030 c 2,43,-1
 347 1002 l 2,44,45
 384.007 986.997 384.007 986.997 422.5 973.5 c 128,-1,46
 461 960 461 960 504 958 c 1,47,48
 504 1006 504 1006 489 1049 c 128,-1,49
 474 1092.01 474 1092.01 456 1134.5 c 128,-1,50
 438 1176.99 438 1176.99 423 1220 c 128,-1,51
 408 1263 408 1263 408 1312 c 0,52,53
 408 1364.01 408 1364.01 437.5 1403.5 c 128,-1,54
 467 1442.99 467 1442.99 523 1443 c 0,55,56
 549 1443 549 1443 570 1431.5 c 128,-1,57
 591 1419.99 591 1419.99 605.5 1401.5 c 128,-1,58
 619.994 1383.01 619.994 1383.01 627.5 1360 c 128,-1,59
 635 1337.01 635 1337.01 635 1312 c 0,60,61
 635 1267 635 1267 620.5 1223.5 c 128,-1,62
 606.004 1180.01 606.004 1180.01 588.5 1137 c 128,-1,63
 570.982 1093.95 570.982 1093.95 556 1049.5 c 128,-1,64
 540.999 1004.99 540.999 1004.99 539 958 c 1,65,66
 579 960 579 960 618 973 c 128,-1,67
 657 986 657 986 694.5 1001 c 128,-1,68
 732 1016 732 1016 768 1028 c 128,-1,69
 804 1040 804 1040 841 1040 c 0,70,71
 885 1040 885 1040 917.5 1011.5 c 128,-1,72
 950 983 950 983 950 939 c 0,0,1
EndSplineSet
Validated: 1
EndChar

StartChar: daggerdbl
Encoding: 8225 8225 105
Width: 1054
VWidth: 2796
Flags: MW
LayerCount: 2
Fore
SplineSet
912 -14 m 0,0,1
 912 -109 912 -109 814 -109 c 0,2,3
 781 -109 781 -109 749 -99 c 128,-1,4
 716.994 -88.9979 716.994 -88.9979 683.5 -76 c 128,-1,5
 650 -62.9999 650 -62.9999 616 -52 c 128,-1,6
 582 -41 582 -41 545 -40 c 1,7,8
 545 -80.9999 545 -80.9999 558.5 -119 c 128,-1,9
 572.001 -157.002 572.001 -157.002 588.5 -194.5 c 128,-1,10
 605 -232 605 -232 618.5 -269.5 c 128,-1,11
 632 -307 632 -307 632 -347 c 0,12,13
 632 -393 632 -393 603.5 -424.5 c 128,-1,14
 575 -456 575 -456 528 -456 c 0,15,16
 507 -456 507 -456 487.5 -446.5 c 128,-1,17
 468 -437 468 -437 454.5 -421.5 c 128,-1,18
 441 -406 441 -406 433 -385.5 c 128,-1,19
 425 -365 425 -365 425 -344 c 0,20,21
 425 -311 425 -311 435.5 -273.5 c 128,-1,22
 446 -236 446 -236 460 -196.5 c 2,23,-1
 487.5 -116.5 l 2,24,25
 501 -76 501 -76 507 -40 c 1,26,27
 467 -40 467 -40 431.5 -50.5 c 128,-1,28
 396 -61 396 -61 363 -74 c 2,29,-1
 299.5 -98 l 2,30,31
 268.999 -109 268.999 -109 240 -109 c 0,32,33
 145.001 -109 145.001 -109 145 -19 c 0,34,35
 145 31 145 31 171.5 53 c 128,-1,36
 198.001 75.0001 198.001 75.0001 246 75 c 0,37,38
 279 75 279 75 310 65 c 128,-1,39
 340.997 55.0012 340.997 55.0012 373.5 42 c 128,-1,40
 406.004 28.9986 406.004 28.9986 438.5 18.5 c 128,-1,41
 471 8 471 8 507 8 c 1,42,-1
 492 63.5 l 2,43,44
 486 86 486 86 476 104 c 128,-1,45
 466 122 466 122 449.5 137.5 c 128,-1,46
 433 152.999 433 152.999 406 173 c 1,47,48
 457 246.999 457 246.999 482 334.5 c 128,-1,49
 507 422 507 422 507 512 c 0,50,51
 507 597 507 597 485.5 681 c 128,-1,52
 464 765 464 765 406 830 c 1,53,54
 433 849 433 849 449.5 867.5 c 128,-1,55
 466 886 466 886 476 906.5 c 128,-1,56
 486 927 486 927 492 951 c 128,-1,57
 498 975 498 975 507 1006 c 1,58,59
 470 1004.01 470 1004.01 436.5 992 c 2,60,-1
 369.5 968 l 2,61,62
 335.998 955.999 335.998 955.999 302.5 946.5 c 128,-1,63
 269 937 269 937 232 937 c 0,64,65
 142 937 142 937 142 1027 c 0,66,67
 142 1115.01 142 1115.01 232 1115 c 0,68,69
 266.017 1115 266.017 1115 299.5 1105 c 128,-1,70
 333.12 1094.96 333.12 1094.96 367 1082 c 128,-1,71
 400.812 1069.07 400.812 1069.07 436 1057.5 c 0,72,73
 470.979 1046 470.979 1046 507 1043 c 1,74,75
 505 1084 505 1084 492 1123 c 128,-1,76
 478.99 1162.03 478.99 1162.03 463.5 1200 c 128,-1,77
 448 1237.99 448 1237.99 435 1275 c 128,-1,78
 422 1312.01 422 1312.01 422 1350 c 0,79,80
 422 1396.99 422 1396.99 451.5 1429.5 c 128,-1,81
 481 1462.01 481 1462.01 528 1462 c 0,82,83
 583 1462 583 1462 605 1429.5 c 128,-1,84
 627 1397 627 1397 627 1345 c 0,85,86
 627 1315.01 627 1315.01 615 1279.5 c 2,87,-1
 589 1205 l 2,88,89
 575 1166 575 1166 562 1125 c 128,-1,90
 549 1084 549 1084 545 1043 c 1,91,92
 582.019 1046 582.019 1046 616 1057.5 c 0,93,94
 650.204 1069.07 650.204 1069.07 683.5 1082 c 128,-1,95
 716.883 1094.96 716.883 1094.96 750.5 1105 c 128,-1,96
 783.983 1115 783.983 1115 819 1115 c 0,97,98
 863 1115 863 1115 887.5 1092.5 c 128,-1,99
 912 1070 912 1070 912 1024 c 256,100,101
 912 978 912 978 884.5 956 c 128,-1,102
 857 934 857 934 814 934 c 0,103,104
 780 934 780 934 746.5 943.5 c 128,-1,105
 713.007 952.998 713.007 952.998 679.5 965.5 c 2,106,-1
 613 989.5 l 2,107,108
 579.979 1001.01 579.979 1001.01 545 1006 c 1,109,110
 549 975 549 975 555 951 c 128,-1,111
 561 927 561 927 572.5 906.5 c 128,-1,112
 584 886 584 886 601 867.5 c 128,-1,113
 618 849 618 849 643 830 c 1,114,115
 593 756 593 756 569 671.5 c 128,-1,116
 545 587 545 587 545 498 c 0,117,118
 545 412 545 412 568 329 c 128,-1,119
 591 246 591 246 643 173 c 1,120,121
 597 138.001 597 138.001 575.5 101 c 128,-1,122
 554 63.9999 554 63.9999 545 5 c 1,123,124
 580 7.00005 580 7.00005 613.5 18 c 128,-1,125
 647 29 647 29 680 42 c 128,-1,126
 713 55 713 55 746.5 65 c 128,-1,127
 780 75.0001 780 75.0001 814 75 c 0,128,129
 853 75 853 75 882.5 50.5 c 128,-1,130
 912 26 912 26 912 -14 c 0,0,1
EndSplineSet
Validated: 1
EndChar

StartChar: circumflex
Encoding: 710 710 106
Width: 659
VWidth: 2796
Flags: MW
LayerCount: 2
Fore
SplineSet
587 1073 m 1,0,-1
 330 1292 l 1,1,-1
 72 1073 l 1,2,-1
 0 1073 l 1,3,-1
 266 1425 l 1,4,-1
 397 1425 l 1,5,-1
 659 1073 l 1,6,-1
 587 1073 l 1,0,-1
EndSplineSet
Validated: 1
EndChar

StartChar: perthousand
Encoding: 8240 8240 107
Width: 2225
VWidth: 2796
Flags: MW
LayerCount: 2
Fore
SplineSet
2190 523 m 0,0,1
 2190 467 2190 467 2177.5 403.5 c 128,-1,2
 2165.01 340.048 2165.01 340.048 2140.5 278.5 c 128,-1,3
 2116 217 2116 217 2080.5 161 c 128,-1,4
 2045 105.001 2045 105.001 1998.5 62 c 128,-1,5
 1952 18.9958 1952 18.9958 1895.5 -6 c 128,-1,6
 1838.99 -31 1838.99 -31 1772 -31 c 0,7,8
 1632.01 -31 1632.01 -31 1569.5 46 c 128,-1,9
 1506.99 123 1506.99 123 1507 259 c 0,10,11
 1507 347 1507 347 1544.5 435 c 128,-1,12
 1582 523 1582 523 1645.5 594 c 128,-1,13
 1708.99 664.99 1708.99 664.99 1792 710 c 128,-1,14
 1874.99 755 1874.99 755 1966 755 c 0,15,16
 2014 755 2014 755 2055 736.5 c 128,-1,17
 2096 718 2096 718 2126 686.5 c 128,-1,18
 2156 655 2156 655 2173 613 c 128,-1,19
 2190 571 2190 571 2190 523 c 0,0,1
1432 523 m 0,20,21
 1432 438 1432 438 1404 340.5 c 128,-1,22
 1375.99 243 1375.99 243 1322 160.5 c 128,-1,23
 1268 78 1268 78 1190.5 23.5 c 128,-1,24
 1112.99 -31 1112.99 -31 1014 -31 c 0,25,26
 874 -31 874 -31 812 46 c 128,-1,27
 750 123 750 123 750 259 c 0,28,29
 750 347 750 347 787.5 435 c 128,-1,30
 825 523 825 523 887.5 594 c 128,-1,31
 950 665 950 665 1032.5 710 c 128,-1,32
 1115 755 1115 755 1206 755 c 0,33,34
 1254.99 755 1254.99 755 1296.5 736.5 c 128,-1,35
 1338.01 718 1338.01 718 1368 686.5 c 128,-1,36
 1398 655 1398 655 1415 613 c 128,-1,37
 1431.99 571 1431.99 571 1432 523 c 0,20,21
325 -34 m 1,38,-1
 224 -34 l 1,39,-1
 1040 1337 l 1,40,41
 989 1289 989 1289 925.5 1263.5 c 128,-1,42
 862 1238 862 1238 792 1238 c 0,43,44
 711 1238 711 1238 638 1264 c 1,45,46
 646 1222 646 1222 646 1182 c 0,47,48
 646 1132.01 646 1132.01 635 1074 c 128,-1,49
 624.003 1016.01 624.003 1016.01 603.5 958 c 128,-1,50
 583 900 583 900 551.5 846 c 128,-1,51
 520 792 520 792 479 750.5 c 128,-1,52
 438 709 438 709 387.5 684 c 128,-1,53
 337 659 337 659 277 659 c 0,54,55
 212.001 659 212.001 659 166 684.5 c 128,-1,56
 119.999 710 119.999 710 91.5 752.5 c 128,-1,57
 63 795 63 795 50 849.5 c 128,-1,58
 37 904 37 904 37 963 c 0,59,60
 37 1043.99 37 1043.99 67.5 1127.5 c 128,-1,61
 97.9999 1211.01 97.9999 1211.01 153 1278.5 c 128,-1,62
 208.001 1346 208.001 1346 283.5 1389 c 128,-1,63
 359 1432.01 359 1432.01 448 1432 c 0,64,65
 477 1432 477 1432 514.5 1409.5 c 2,66,-1
 597 1360.5 l 2,67,68
 641.965 1334.02 641.965 1334.02 693.5 1311.5 c 128,-1,69
 745 1289 745 1289 803 1289 c 0,70,71
 855.017 1289 855.017 1289 889.5 1299 c 128,-1,72
 924.014 1309.01 924.014 1309.01 953 1328.5 c 128,-1,73
 982.017 1348.01 982.017 1348.01 1009 1374.5 c 2,74,-1
 1070 1435 l 1,75,-1
 1197 1435 l 1,76,-1
 325 -34 l 1,38,-1
2134 512 m 0,77,78
 2134 545 2134 545 2125 576.5 c 128,-1,79
 2116 607.99 2116 607.99 2097.5 632.5 c 128,-1,80
 2079.01 656.996 2079.01 656.996 2052 672.5 c 128,-1,81
 2025 688 2025 688 1988 688 c 0,82,83
 1939 688 1939 688 1896 661.5 c 128,-1,84
 1853.01 635.011 1853.01 635.011 1817.5 592 c 128,-1,85
 1782.02 549.032 1782.02 549.032 1754 494.5 c 128,-1,86
 1726.02 440.058 1726.02 440.058 1707 382.5 c 128,-1,87
 1688.01 325.038 1688.01 325.038 1677.5 271 c 128,-1,88
 1667 217 1667 217 1667 176 c 0,89,90
 1667 117.001 1667 117.001 1702 75.5 c 128,-1,91
 1736.99 34 1736.99 34 1798 34 c 0,92,93
 1849.01 34 1849.01 34 1893 57.5 c 128,-1,94
 1936.99 81.0001 1936.99 81.0001 1974 119.5 c 128,-1,95
 2010.99 157.986 2010.99 157.986 2041 208 c 128,-1,96
 2070.99 257.977 2070.99 257.977 2091.5 311.5 c 128,-1,97
 2112 365 2112 365 2123 416.5 c 128,-1,98
 2134 468 2134 468 2134 512 c 0,77,78
1376 512 m 0,99,100
 1376 544.983 1376 544.983 1366.5 576.5 c 128,-1,101
 1357.01 607.978 1357.01 607.978 1338.5 632.5 c 128,-1,102
 1320.01 656.996 1320.01 656.996 1293 672.5 c 128,-1,103
 1266 688 1266 688 1230 688 c 0,104,105
 1182 688 1182 688 1140 661.5 c 128,-1,106
 1097.99 634.993 1097.99 634.993 1061.5 591 c 128,-1,107
 1025.01 547 1025.01 547 997 492.5 c 128,-1,108
 969 438 969 438 949.5 381 c 128,-1,109
 930 324 930 324 919.5 270.5 c 128,-1,110
 909 216.999 909 216.999 909 176 c 0,111,112
 909 117.001 909 117.001 942.5 75.5 c 128,-1,113
 976 34 976 34 1040 34 c 0,114,115
 1090.99 34 1090.99 34 1135.5 57.5 c 128,-1,116
 1180.01 81.0001 1180.01 81.0001 1216.5 119.5 c 128,-1,117
 1253.01 158.015 1253.01 158.015 1283 208 c 128,-1,118
 1312.99 257.976 1312.99 257.976 1333.5 311.5 c 128,-1,119
 1354.01 365 1354.01 365 1365 416.5 c 128,-1,120
 1375.99 468 1375.99 468 1376 512 c 0,99,100
593 1182 m 0,121,122
 593 1206 593 1206 591.5 1233 c 128,-1,123
 590 1260 590 1260 579 1281 c 1,124,125
 543 1300.01 543 1300.01 510.5 1323 c 128,-1,126
 478 1345.99 478 1345.99 451 1374 c 1,127,128
 389 1360.01 389 1360.01 342 1305.5 c 128,-1,129
 295 1251.01 295 1251.01 262 1180.5 c 128,-1,130
 228.997 1109.99 228.997 1109.99 212 1035.5 c 128,-1,131
 195.001 961 195.001 961 195 907 c 0,132,133
 195 881 195 881 198.5 848.5 c 128,-1,134
 201.999 816 201.999 816 213 788 c 128,-1,135
 223.999 760 223.999 760 245 742 c 128,-1,136
 266 724 266 724 302 724 c 0,137,138
 348 724 348 724 387.5 747 c 128,-1,139
 427 770 427 770 460 808.5 c 128,-1,140
 493 847 493 847 517.5 896 c 128,-1,141
 542.002 945.005 542.002 945.005 558.5 995.5 c 128,-1,142
 575.004 1046.02 575.004 1046.02 584 1095 c 128,-1,143
 593 1144.01 593 1144.01 593 1182 c 0,121,122
EndSplineSet
Validated: 1
EndChar

StartChar: Scaron
Encoding: 352 352 108
Width: 1171
VWidth: 2796
Flags: MW
LayerCount: 2
Fore
SplineSet
1059 358 m 0,0,1
 1059 266 1059 266 1022.5 194 c 128,-1,2
 986 122 986 122 925 71 c 128,-1,3
 864 20 864 20 785 -7 c 128,-1,4
 706 -34 706 -34 621 -34 c 0,5,6
 565 -34 565 -34 509 -21 c 128,-1,7
 453 -8 453 -8 403.5 7 c 2,8,-1
 313 35 l 2,9,10
 272 48 272 48 246 48 c 0,11,12
 229.001 48 229.001 48 217.5 40.5 c 128,-1,13
 205.999 33 205.999 33 198.5 20.5 c 128,-1,14
 191 8 191 8 187.5 -6 c 128,-1,15
 183.998 -20.0098 183.998 -20.0098 182 -34 c 1,16,-1
 145 -34 l 1,17,-1
 145 448 l 1,18,-1
 182 448 l 1,19,20
 192.999 359 192.999 359 224 285.5 c 128,-1,21
 255.001 212 255.001 212 307 159 c 128,-1,22
 359 106.001 359 106.001 432 77 c 128,-1,23
 505 48 505 48 598 48 c 0,24,25
 649 48 649 48 698.5 62 c 128,-1,26
 748 76 748 76 787 105 c 128,-1,27
 826 133.999 826 133.999 850.5 177 c 128,-1,28
 875 220.001 875 220.001 875 277 c 0,29,30
 875 337 875 337 843 385.5 c 128,-1,31
 811 434 811 434 759 475.5 c 128,-1,32
 707 517 707 517 640 555 c 2,33,-1
 504.5 631 l 2,34,35
 436.02 668.988 436.02 668.988 369 711.5 c 128,-1,36
 302 754 302 754 250 805 c 128,-1,37
 197.999 856 197.999 856 166 918 c 128,-1,38
 134.001 980 134.001 980 134 1059 c 0,39,40
 134 1146 134 1146 167.5 1214 c 128,-1,41
 200.999 1281.99 200.999 1281.99 257 1329 c 128,-1,42
 313 1375.99 313 1375.99 386 1400.5 c 128,-1,43
 459 1424.99 459 1424.99 539 1425 c 0,44,45
 587 1425 587 1425 634 1413 c 128,-1,46
 681.061 1400.98 681.061 1400.98 724 1386.5 c 2,47,-1
 802.5 1360 l 2,48,49
 838 1348 838 1348 862 1348 c 0,50,51
 878 1348 878 1348 889 1356 c 128,-1,52
 900 1363.99 900 1363.99 908 1375.5 c 128,-1,53
 916.006 1387.01 916.006 1387.01 921 1400.5 c 128,-1,54
 926 1414 926 1414 928 1425 c 1,55,-1
 968 1425 l 1,56,-1
 968 945 l 1,57,-1
 928 945 l 1,58,59
 922 1027 922 1027 893 1100 c 128,-1,60
 864 1173.01 864 1173.01 815.5 1227 c 128,-1,61
 767 1281 767 1281 699 1313 c 128,-1,62
 631 1344.99 631 1344.99 542 1345 c 0,63,64
 496 1345 496 1345 452 1330 c 128,-1,65
 408 1315 408 1315 373.5 1287 c 128,-1,66
 339 1258.99 339 1258.99 317.5 1220 c 128,-1,67
 296 1181 296 1181 296 1132 c 0,68,69
 296 1075 296 1075 329 1028.5 c 128,-1,70
 362 982 362 982 416 942 c 128,-1,71
 470 902 470 902 538 866 c 2,72,-1
 678 792.5 l 2,73,74
 750 755 750 755 818 712.5 c 128,-1,75
 886 670 886 670 940 618.5 c 128,-1,76
 994 567 994 567 1026.5 503.5 c 128,-1,77
 1059.01 440 1059.01 440 1059 358 c 0,0,1
664 1524 m 1,78,-1
 531 1524 l 1,79,-1
 266 1877 l 1,80,-1
 340 1877 l 1,81,-1
 597 1660 l 1,82,-1
 855 1877 l 1,83,-1
 928 1877 l 1,84,-1
 664 1524 l 1,78,-1
EndSplineSet
EndChar

StartChar: guilsinglleft
Encoding: 8249 8249 109
Width: 701
VWidth: 2796
Flags: MW
LayerCount: 2
Fore
SplineSet
520 -8 m 1,0,-1
 123 478 l 1,1,-1
 520 963 l 1,2,-1
 576 963 l 1,3,-1
 325 478 l 1,4,-1
 576 -8 l 1,5,-1
 520 -8 l 1,0,-1
EndSplineSet
Validated: 1
EndChar

StartChar: guilsinglright
Encoding: 8250 8250 110
Width: 701
VWidth: 2796
Flags: MW
LayerCount: 2
Fore
SplineSet
182 -8 m 1,0,-1
 126 -8 l 1,1,-1
 377 475 l 1,2,-1
 126 963 l 1,3,-1
 182 963 l 1,4,-1
 579 475 l 1,5,-1
 182 -8 l 1,0,-1
EndSplineSet
Validated: 1
EndChar

StartChar: OE
Encoding: 338 338 111
Width: 1875
VWidth: 2796
Flags: MW
LayerCount: 2
Fore
SplineSet
1703 0 m 1,0,-1
 1029 0 l 2,1,2
 949 0 949 0 868.5 -8 c 128,-1,3
 788 -15.9999 788 -15.9999 707 -16 c 0,4,5
 558 -16 558 -16 441.5 43 c 128,-1,6
 325 102 325 102 243.5 200.5 c 128,-1,7
 162.001 299 162.001 299 120 428 c 128,-1,8
 78 557 78 557 78 696 c 0,9,10
 78 844 78 844 121.5 974.5 c 128,-1,11
 165 1105 165 1105 248.5 1201 c 128,-1,12
 332 1297 332 1297 453.5 1353 c 128,-1,13
 575 1408.99 575 1408.99 730 1409 c 2,14,-1
 733 1409 l 1,15,-1
 744 1409 l 1,16,-1
 782 1406 l 1,17,-1
 931 1401 l 2,18,19
 1121 1393 1121 1393 1311 1394 c 0,20,21
 1500 1395 1500 1395 1692 1395 c 1,22,-1
 1703 1091 l 1,23,-1
 1670 1091 l 1,24,25
 1654.99 1165.05 1654.99 1165.05 1640.5 1210 c 128,-1,26
 1625.99 1255.02 1625.99 1255.02 1599.5 1279.5 c 128,-1,27
 1572.98 1304.01 1572.98 1304.01 1526.5 1312 c 128,-1,28
 1479.97 1320 1479.97 1320 1401 1320 c 2,29,-1
 1139 1320 l 1,30,-1
 1139 771 l 1,31,-1
 1323 771 l 2,32,33
 1432.01 771 1432.01 771 1486 814 c 128,-1,34
 1540 857 1540 857 1540 971 c 1,35,-1
 1582 971 l 1,36,-1
 1582 483 l 1,37,-1
 1540 483 l 1,38,39
 1535.99 545 1535.99 545 1525 584.5 c 128,-1,40
 1514.01 623.987 1514.01 623.987 1489.5 648 c 128,-1,41
 1465.01 672 1465.01 672 1424.5 681.5 c 128,-1,42
 1384 691 1384 691 1323 691 c 2,43,-1
 1139 691 l 1,44,-1
 1139 232 l 2,45,46
 1139 161.999 1139 161.999 1151 129 c 128,-1,47
 1163 96 1163 96 1190.5 85 c 128,-1,48
 1217.99 74.0001 1217.99 74.0001 1261 76 c 128,-1,49
 1304.01 77.9999 1304.01 77.9999 1367 78 c 0,50,51
 1451 78 1451 78 1512 91 c 128,-1,52
 1573.01 104 1573.01 104 1620 136 c 128,-1,53
 1666.99 167.999 1666.99 167.999 1703 220 c 128,-1,54
 1739 272.001 1739 272.001 1772 350 c 1,55,-1
 1815 350 l 1,56,-1
 1703 0 l 1,0,-1
939 1073 m 2,57,58
 939 1133 939 1133 933.5 1182.5 c 128,-1,59
 928 1232 928 1232 907.5 1267.5 c 128,-1,60
 887 1303.01 887 1303.01 846.5 1322.5 c 128,-1,61
 806 1342 806 1342 733 1342 c 0,62,63
 647 1342 647 1342 582 1312.5 c 128,-1,64
 517 1282.99 517 1282.99 471 1232.5 c 128,-1,65
 425 1181.99 425 1181.99 394 1116 c 128,-1,66
 363.004 1050.01 363.004 1050.01 345.5 977.5 c 128,-1,67
 328 905 328 905 320.5 830.5 c 128,-1,68
 313 756 313 756 313 688 c 0,69,70
 313 621 313 621 321 549 c 128,-1,71
 329 477 329 477 347.5 406.5 c 128,-1,72
 366 336 366 336 397.5 272.5 c 128,-1,73
 429 209.001 429 209.001 475.5 161 c 128,-1,74
 522 113 522 113 585.5 84.5 c 128,-1,75
 649 56 649 56 730 56 c 0,76,77
 808 56 808 56 851 78.5 c 128,-1,78
 894 101 894 101 913.5 140 c 128,-1,79
 933 179 933 179 936 233 c 128,-1,80
 939 287 939 287 939 350 c 2,81,-1
 939 1073 l 2,57,58
EndSplineSet
Validated: 33
EndChar

StartChar: Zcaron
Encoding: 381 381 112
Width: 1286
VWidth: 2796
Flags: MW
LayerCount: 2
Fore
SplineSet
1163 0 m 1,0,-1
 27 0 l 1,1,-1
 27 40 l 1,2,-1
 920 1315 l 1,3,-1
 475 1315 l 2,4,5
 397 1315 397 1315 347.5 1300.5 c 128,-1,6
 298 1285.99 298 1285.99 267 1254.5 c 128,-1,7
 235.999 1223 235.999 1223 219 1171.5 c 128,-1,8
 202.001 1120.01 202.001 1120.01 190 1046 c 1,9,-1
 152 1046 l 1,10,-1
 182 1395 l 1,11,-1
 1214 1395 l 1,12,-1
 296 83 l 1,13,-1
 867 83 l 2,14,15
 948 83 948 83 1001 103 c 128,-1,16
 1053.99 122.999 1053.99 122.999 1090 160.5 c 128,-1,17
 1126 198 1126 198 1151 252 c 128,-1,18
 1176 306 1176 306 1197 374 c 1,19,-1
 1227 369 l 1,20,-1
 1163 0 l 1,0,-1
765 1524 m 1,21,-1
 632 1524 l 1,22,-1
 367 1877 l 1,23,-1
 441 1877 l 1,24,-1
 698 1660 l 1,25,-1
 956 1877 l 1,26,-1
 1029 1877 l 1,27,-1
 765 1524 l 1,21,-1
EndSplineSet
EndChar

StartChar: quoteleft
Encoding: 8216 8216 113
Width: 701
VWidth: 2796
Flags: MW
LayerCount: 2
Fore
SplineSet
507 1014 m 0,0,1
 507 986 507 986 495 964 c 128,-1,2
 483 942 483 942 464 926.5 c 128,-1,3
 445 911 445 911 420.5 902.5 c 128,-1,4
 396 894 396 894 369 894 c 0,5,6
 329 894 329 894 296.5 912 c 128,-1,7
 264 930 264 930 240 958.5 c 128,-1,8
 216 987 216 987 203 1024 c 128,-1,9
 189.999 1061.01 189.999 1061.01 190 1099 c 0,10,11
 190 1165 190 1165 209.5 1217.5 c 128,-1,12
 229 1270 229 1270 264.5 1310 c 128,-1,13
 300 1350.01 300 1350.01 349.5 1379 c 128,-1,14
 399.034 1408.01 399.034 1408.01 459 1425 c 1,15,-1
 459 1382 l 1,16,17
 430 1365 430 1365 400 1344 c 128,-1,18
 369.983 1322.99 369.983 1322.99 344 1296.5 c 128,-1,19
 318 1269.99 318 1269.99 301.5 1238 c 128,-1,20
 285 1206.01 285 1206.01 285 1169 c 0,21,22
 285 1159.01 285 1159.01 286.5 1149 c 128,-1,23
 288 1138.99 288 1138.99 292 1129.5 c 128,-1,24
 296.007 1119.99 296.007 1119.99 304.5 1113.5 c 128,-1,25
 313.007 1107 313.007 1107 325 1107 c 0,26,27
 344.012 1107 344.012 1107 362.5 1115.5 c 128,-1,28
 380.988 1124 380.988 1124 403 1124 c 128,-1,29
 425 1124 425 1124 444 1115 c 128,-1,30
 462.992 1106 462.992 1106 476.5 1090.5 c 128,-1,31
 489.991 1075.02 489.991 1075.02 498.5 1055 c 128,-1,32
 507 1035.01 507 1035.01 507 1014 c 0,0,1
EndSplineSet
Validated: 1
EndChar

StartChar: quoteright
Encoding: 8217 8217 114
Width: 701
VWidth: 2796
Flags: MW
LayerCount: 2
Fore
SplineSet
512 1222 m 0,0,1
 512 1156 512 1156 492 1104.5 c 128,-1,2
 472 1053.01 472 1053.01 436.5 1012.5 c 128,-1,3
 401 972 401 972 352 943.5 c 128,-1,4
 303 915 303 915 243 894 c 1,5,-1
 243 939 l 1,6,7
 272 956 272 956 302 977.5 c 128,-1,8
 332 999 332 999 358 1026 c 128,-1,9
 384 1053 384 1053 400 1084 c 128,-1,10
 416 1115 416 1115 416 1152 c 0,11,12
 416 1162.01 416 1162.01 415 1173 c 128,-1,13
 414 1183.99 414 1183.99 410 1192.5 c 128,-1,14
 406 1201.01 406 1201.01 397.5 1207.5 c 128,-1,15
 388.993 1214 388.993 1214 377 1214 c 0,16,17
 357.988 1214 357.988 1214 339.5 1205.5 c 128,-1,18
 321.012 1197 321.012 1197 299 1197 c 0,19,20
 255 1197 255 1197 225 1230.5 c 128,-1,21
 195 1263.99 195 1263.99 195 1308 c 0,22,23
 195 1335 195 1335 206.5 1357 c 128,-1,24
 217.996 1379 217.996 1379 238 1394 c 128,-1,25
 258.011 1409.01 258.011 1409.01 282.5 1417 c 128,-1,26
 307.015 1425 307.015 1425 333 1425 c 0,27,28
 373 1425 373 1425 406.5 1407.5 c 128,-1,29
 440 1389.99 440 1389.99 463 1361.5 c 128,-1,30
 485.996 1333 485.996 1333 499 1296.5 c 128,-1,31
 512 1260.01 512 1260.01 512 1222 c 0,0,1
EndSplineSet
Validated: 1
EndChar

StartChar: quotedblleft
Encoding: 8220 8220 115
Width: 1073
VWidth: 2796
Flags: MW
LayerCount: 2
Fore
SplineSet
875 1014 m 0,0,1
 875 987 875 987 863.5 965 c 128,-1,2
 852 943 852 943 833.5 927.5 c 128,-1,3
 815 912 815 912 790.5 903 c 128,-1,4
 766 894 766 894 741 894 c 0,5,6
 700 894 700 894 667.5 912.5 c 128,-1,7
 635 931 635 931 611 960.5 c 128,-1,8
 586.997 990.004 586.997 990.004 575 1027 c 128,-1,9
 563 1064.01 563 1064.01 563 1102 c 0,10,11
 563 1166.99 563 1166.99 582.5 1219 c 128,-1,12
 602 1271.01 602 1271.01 637 1310.5 c 128,-1,13
 672 1349.99 672 1349.99 721.5 1379.5 c 128,-1,14
 770.978 1408.99 770.978 1408.99 830 1430 c 1,15,-1
 830 1384 l 1,16,17
 801 1368 801 1368 771 1346 c 128,-1,18
 740.963 1323.97 740.963 1323.97 715 1297.5 c 128,-1,19
 688.995 1270.99 688.995 1270.99 673 1239.5 c 128,-1,20
 657 1208 657 1208 657 1171 c 0,21,22
 657 1162 657 1162 658 1151.5 c 128,-1,23
 659.001 1140.99 659.001 1140.99 663.5 1131.5 c 128,-1,24
 668.003 1122 668.003 1122 676 1116 c 128,-1,25
 684 1110 684 1110 696 1110 c 0,26,27
 715.014 1110 715.014 1110 733.5 1117 c 128,-1,28
 751.986 1124 751.986 1124 771 1124 c 0,29,30
 815 1124 815 1124 845 1091 c 128,-1,31
 875 1058 875 1058 875 1014 c 0,0,1
384 1017 m 0,32,33
 384 990 384 990 372 968 c 128,-1,34
 360 946 360 946 340.5 930.5 c 128,-1,35
 321 915 321 915 296.5 906 c 128,-1,36
 272 897 272 897 246 897 c 0,37,38
 205.999 897 205.999 897 173.5 915.5 c 128,-1,39
 140.999 934 140.999 934 117.5 962.5 c 128,-1,40
 93.9977 991.002 93.9977 991.002 82 1028 c 128,-1,41
 70 1065 70 1065 70 1102 c 0,42,43
 70 1166.99 70 1166.99 89.5 1219.5 c 128,-1,44
 109 1272 109 1272 144 1312.5 c 128,-1,45
 178.999 1353 178.999 1353 228 1382.5 c 128,-1,46
 277 1412.01 277 1412.01 336 1432 c 1,47,-1
 336 1387 l 1,48,49
 307 1371 307 1371 277 1349 c 128,-1,50
 246.971 1326.97 246.971 1326.97 222 1300.5 c 128,-1,51
 196.996 1273.99 196.996 1273.99 181 1242.5 c 128,-1,52
 165 1211 165 1211 165 1174 c 0,53,54
 165 1154.01 165 1154.01 171 1132 c 128,-1,55
 177 1109.99 177 1109.99 205 1110 c 0,56,57
 223.989 1110 223.989 1110 242.5 1118 c 128,-1,58
 261.011 1126 261.011 1126 280 1126 c 0,59,60
 302.011 1126 302.011 1126 321 1117.5 c 128,-1,61
 340.013 1108.99 340.013 1108.99 353.5 1093 c 128,-1,62
 367.004 1076.99 367.004 1076.99 375.5 1057.5 c 128,-1,63
 384 1038 384 1038 384 1017 c 0,32,33
EndSplineSet
Validated: 1
EndChar

StartChar: quotedblright
Encoding: 8221 8221 116
Width: 1073
VWidth: 2796
Flags: MW
LayerCount: 2
Fore
SplineSet
512 1222 m 0,0,1
 512 1156 512 1156 492 1104.5 c 128,-1,2
 472 1053.01 472 1053.01 436.5 1012.5 c 128,-1,3
 401 972 401 972 352 943.5 c 128,-1,4
 303 915 303 915 243 894 c 1,5,-1
 243 939 l 1,6,7
 272 956 272 956 302 977.5 c 128,-1,8
 332 999 332 999 358 1026 c 128,-1,9
 384 1053 384 1053 400 1084 c 128,-1,10
 416 1115 416 1115 416 1152 c 0,11,12
 416 1162.01 416 1162.01 415 1173 c 128,-1,13
 414 1183.99 414 1183.99 410 1192.5 c 128,-1,14
 406 1201.01 406 1201.01 397.5 1207.5 c 128,-1,15
 388.993 1214 388.993 1214 377 1214 c 0,16,17
 357.988 1214 357.988 1214 339.5 1205.5 c 128,-1,18
 321.012 1197 321.012 1197 299 1197 c 0,19,20
 255 1197 255 1197 225 1230.5 c 128,-1,21
 195 1263.99 195 1263.99 195 1308 c 0,22,23
 195 1335 195 1335 206.5 1357 c 128,-1,24
 217.996 1379 217.996 1379 238 1394 c 128,-1,25
 258.011 1409.01 258.011 1409.01 282.5 1417 c 128,-1,26
 307.015 1425 307.015 1425 333 1425 c 0,27,28
 373 1425 373 1425 406.5 1407.5 c 128,-1,29
 440 1389.99 440 1389.99 463 1361.5 c 128,-1,30
 485.996 1333 485.996 1333 499 1296.5 c 128,-1,31
 512 1260.01 512 1260.01 512 1222 c 0,0,1
1004 1219 m 0,32,33
 1004 1154.01 1004 1154.01 984 1102 c 128,-1,34
 964 1049.99 964 1049.99 929 1010.5 c 128,-1,35
 894 971 894 971 845 941.5 c 128,-1,36
 796 912 796 912 736 892 c 1,37,-1
 736 937 l 1,38,39
 765 953 765 953 795 975 c 128,-1,40
 825.021 997.016 825.021 997.016 851 1023.5 c 128,-1,41
 877.005 1050.01 877.005 1050.01 893 1081.5 c 128,-1,42
 909 1113 909 1113 909 1150 c 0,43,44
 909 1159 909 1159 908 1170 c 128,-1,45
 906.998 1181.01 906.998 1181.01 902.5 1190.5 c 128,-1,46
 898 1199.99 898 1199.99 890 1207 c 128,-1,47
 882 1214 882 1214 870 1214 c 0,48,49
 850.988 1214 850.988 1214 831.5 1205.5 c 128,-1,50
 812.012 1197 812.012 1197 792 1197 c 0,51,52
 748 1197 748 1197 719.5 1229.5 c 128,-1,53
 691 1262.01 691 1262.01 691 1305 c 0,54,55
 691 1334 691 1334 702 1356.5 c 128,-1,56
 713 1379 713 1379 731.5 1394 c 128,-1,57
 750.009 1409.01 750.009 1409.01 774.5 1417 c 128,-1,58
 799.015 1425 799.015 1425 825 1425 c 0,59,60
 864 1425 864 1425 897.5 1407.5 c 128,-1,61
 931.013 1389.99 931.013 1389.99 954.5 1360.5 c 128,-1,62
 978.005 1330.99 978.005 1330.99 991 1294 c 128,-1,63
 1004 1256.99 1004 1256.99 1004 1219 c 0,32,33
EndSplineSet
EndChar

StartChar: bullet
Encoding: 8226 8226 117
Width: 608
VWidth: 2796
Flags: MW
LayerCount: 2
Fore
SplineSet
537 691 m 0,0,1
 537 642 537 642 518.5 599 c 128,-1,2
 500 556 500 556 468.5 524.5 c 128,-1,3
 437 493 437 493 394.5 474.5 c 128,-1,4
 352 456 352 456 304 456 c 0,5,6
 255 456 255 456 212 474.5 c 128,-1,7
 168.999 493 168.999 493 137.5 524.5 c 128,-1,8
 106 556 106 556 88 599 c 128,-1,9
 70 642 70 642 70 691 c 0,10,11
 70 739 70 739 88 781 c 128,-1,12
 106 823 106 823 137.5 854.5 c 128,-1,13
 169 886 169 886 212 904.5 c 128,-1,14
 255.001 923 255.001 923 304 923 c 0,15,16
 352 923 352 923 394.5 904.5 c 128,-1,17
 437 886 437 886 468.5 854.5 c 128,-1,18
 500 823 500 823 518.5 781 c 128,-1,19
 537 739 537 739 537 691 c 0,0,1
EndSplineSet
Validated: 1
EndChar

StartChar: endash
Encoding: 8211 8211 118
Width: 1014
VWidth: 2796
Flags: MW
LayerCount: 2
Fore
SplineSet
-45 464 m 1,0,-1
 -45 542 l 1,1,-1
 1043 542 l 1,2,-1
 1043 464 l 1,3,-1
 -45 464 l 1,0,-1
EndSplineSet
Validated: 1
EndChar

StartChar: emdash
Encoding: 8212 8212 119
Width: 2027
VWidth: 2796
Flags: MW
LayerCount: 2
Fore
SplineSet
0 464 m 1,0,-1
 0 542 l 1,1,-1
 2028 542 l 1,2,-1
 2028 464 l 1,3,-1
 0 464 l 1,0,-1
EndSplineSet
Validated: 1
EndChar

StartChar: tilde
Encoding: 732 732 120
Width: 701
VWidth: 2796
Flags: MW
LayerCount: 2
Fore
SplineSet
702 1383 m 1,0,1
 698 1341 698 1341 678.5 1300.5 c 128,-1,2
 658.995 1259.99 658.995 1259.99 630 1228 c 128,-1,3
 601 1196.01 601 1196.01 562 1177 c 128,-1,4
 523 1157.99 523 1157.99 478 1158 c 0,5,6
 421 1158 421 1158 385.5 1173.5 c 128,-1,7
 350.059 1188.97 350.059 1188.97 319.5 1207.5 c 128,-1,8
 288.967 1226.02 288.967 1226.02 257 1241 c 128,-1,9
 225.001 1256 225.001 1256 175 1256 c 0,10,11
 153.001 1256 153.001 1256 132.5 1247 c 128,-1,12
 111.999 1238 111.999 1238 95.5 1224.5 c 128,-1,13
 78.9933 1210.99 78.9933 1210.99 68 1193.5 c 128,-1,14
 56.9992 1175.99 56.9992 1175.99 55 1158 c 1,15,-1
 0 1158 l 1,16,17
 11.0026 1203.01 11.0026 1203.01 30 1242.5 c 128,-1,18
 49 1281.99 49 1281.99 77.5 1310.5 c 128,-1,19
 106 1339 106 1339 145 1355.5 c 128,-1,20
 184 1372 184 1372 233 1372 c 0,21,22
 274 1372 274 1372 305.5 1357.5 c 128,-1,23
 337.082 1342.96 337.082 1342.96 367 1325.5 c 128,-1,24
 396.918 1308.04 396.918 1308.04 428.5 1293.5 c 128,-1,25
 460 1278.99 460 1278.99 501 1279 c 0,26,27
 552 1279 552 1279 593.5 1306 c 128,-1,28
 635 1333 635 1333 647 1383 c 1,29,-1
 702 1383 l 1,0,1
EndSplineSet
Validated: 1
EndChar

StartChar: trademark
Encoding: 8482 8482 121
Width: 2065
VWidth: 2796
Flags: MW
LayerCount: 2
Fore
SplineSet
1622 565 m 1,0,-1
 1622 601 l 1,1,2
 1662.01 601 1662.01 601 1686.5 607.5 c 128,-1,3
 1710.99 614 1710.99 614 1724 630 c 128,-1,4
 1737 646 1737 646 1741 672 c 128,-1,5
 1745 698 1745 698 1745 736 c 2,6,-1
 1745 1244 l 1,7,-1
 1425 565 l 1,8,-1
 1395 565 l 1,9,-1
 1076 1233 l 1,10,-1
 1076 739 l 2,11,12
 1076 695 1076 695 1080.5 667.5 c 128,-1,13
 1085 639.994 1085 639.994 1099.5 625 c 128,-1,14
 1114.01 609.998 1114.01 609.998 1140.5 605.5 c 128,-1,15
 1167.01 601 1167.01 601 1211 601 c 1,16,-1
 1211 565 l 1,17,-1
 894 565 l 1,18,-1
 894 601 l 1,19,20
 935 601 935 601 958.5 608.5 c 128,-1,21
 982 616 982 616 994 632.5 c 128,-1,22
 1006 649 1006 649 1009 674.5 c 128,-1,23
 1012 700 1012 700 1012 739 c 2,24,-1
 1012 1227 l 2,25,26
 1012 1264.01 1012 1264.01 1009 1289.5 c 128,-1,27
 1006 1315.01 1006 1315.01 994.5 1330 c 128,-1,28
 983.005 1344.99 983.005 1344.99 960 1352 c 128,-1,29
 937 1359 937 1359 894 1359 c 1,30,-1
 894 1395 l 1,31,-1
 1191 1395 l 1,32,-1
 1470 808 l 1,33,-1
 1745 1395 l 1,34,-1
 2030 1395 l 1,35,-1
 2030 1359 l 1,36,-1
 2019 1359 l 2,37,38
 1981.01 1360.01 1981.01 1360.01 1960.5 1349.5 c 128,-1,39
 1940.01 1339.01 1940.01 1339.01 1930 1320 c 128,-1,40
 1919.99 1300.99 1919.99 1300.99 1918 1275 c 128,-1,41
 1916 1249 1916 1249 1916 1219 c 2,42,-1
 1916 739 l 2,43,44
 1916 703 1916 703 1919 677 c 128,-1,45
 1922 651 1922 651 1934 634 c 128,-1,46
 1946 617 1946 617 1969 609 c 128,-1,47
 1992 601 1992 601 2030 601 c 1,48,-1
 2030 565 l 1,49,-1
 1622 565 l 1,0,-1
789 1191 m 1,50,51
 784 1248 784 1248 756.5 1277.5 c 128,-1,52
 729 1307.01 729 1307.01 689.5 1319 c 128,-1,53
 650 1331 650 1331 603 1332.5 c 128,-1,54
 556 1334 556 1334 512 1334 c 1,55,-1
 512 739 l 2,56,57
 512 703 512 703 514.5 677 c 128,-1,58
 517 651 517 651 528 634.5 c 128,-1,59
 539 618 539 618 561.5 610 c 128,-1,60
 584 602 584 602 624 601 c 1,61,-1
 624 565 l 1,62,-1
 235 565 l 1,63,-1
 235 601 l 1,64,65
 274 608 274 608 294.5 616 c 128,-1,66
 315 624 315 624 325.5 639 c 128,-1,67
 336 654 336 654 337.5 678 c 128,-1,68
 339 702 339 702 339 739 c 2,69,-1
 339 1334 l 1,70,-1
 264 1334 l 2,71,72
 217.999 1334 217.999 1334 186 1328 c 128,-1,73
 154 1322 154 1322 130 1306 c 128,-1,74
 105.99 1289.99 105.99 1289.99 90.5 1262 c 128,-1,75
 74.995 1233.99 74.995 1233.99 64 1191 c 1,76,-1
 34 1191 l 1,77,-1
 48 1395 l 1,78,-1
 808 1395 l 1,79,-1
 825 1191 l 1,80,-1
 789 1191 l 1,50,51
EndSplineSet
Validated: 33
EndChar

